<?xml version="1.0" encoding="UTF-8"?><svg id="Layer_1" xmlns="http://www.w3.org/2000/svg" xmlns:xlink="http://www.w3.org/1999/xlink" viewBox="0 0 1374.82 974.8"><defs><style>.cls-1,.cls-2,.cls-3,.cls-4,.cls-5,.cls-6,.cls-7,.cls-8{fill:#fff;}.cls-9{fill:#cf1327;}.cls-10{letter-spacing:0em;}.cls-2{font-size:20.65px;}.cls-2,.cls-3,.cls-4,.cls-5,.cls-6,.cls-7,.cls-8{font-family:Montserrat-Bold, 'Montserrat Bold';}.cls-11{fill:#243770;}.cls-12{letter-spacing:.1em;}.cls-3{font-size:17px;}.cls-13{letter-spacing:.1em;}.cls-4{font-size:13.28px;}.cls-14{letter-spacing:.1em;}.cls-15{clip-path:url(#clippath);}.cls-5{font-size:13.48px;}.cls-16,.cls-17{fill:#767a7c;}.cls-16,.cls-18{stroke:#1d1d1b;stroke-miterlimit:10;}.cls-19{fill:none;}.cls-20{letter-spacing:.1em;}.cls-21{letter-spacing:.1em;}.cls-6{font-size:25.99px;}.cls-7{font-size:21.99px;}.cls-8{font-size:18.57px;}.cls-22{fill:#acacac;}.cls-23{fill:#d2d2d2;}.cls-18{fill:#feca12;}</style><clipPath id="clippath"><path class="cls-19" d="M815.89,682.9c0,22.18-17.98,40.16-40.15,40.16s-40.16-17.98-40.16-40.16,17.98-40.15,40.16-40.15,40.15,17.98,40.15,40.15"/></clipPath></defs><path class="cls-16" d="M918.38,898.49l-.26-.55-1.03,.14-.91,.66-.73,1.07-.5,1.22-.16,1.1,1.28-.23,.94-.41,1.57-.86-.21-1.16v-.97Zm282.66-48.82l1.31,.66,.27-.85,.03-.88-.15-.87-.33-.84-.92,.66-.65-.47-.55-.75-.6-.23-1.04,1.22,.92,1.26,1.7,1.08Zm-267.23,44.29l-.09-.06-.09,.23,.17-.17Zm99.17,43.14l-1.16-.27-2.62,.87-1.49,.71-1.15,.73-.67,.92-.48,1.03-.84,.89-3.15,.79-1.05,.53-.83,.77-.78,.97-.72,1.22,.56-.02,2.37-1.07,.21,.1,.66,.17,.85,.12,.74-.07,.49-.35,1.11-1.58,2.36-1.49,.4-.55,.25-.61,.41-.52,.88-.27,.82-.05,.59,.09,.52,.22,.6,.39,.8,.27,.67-.2,.92-.56,.97-.45,.62-.9,.87-1.99-2.52,.22-1.2-.05Zm-61.03,31.38l-.72-.02-.84,.4,.02-.37-.11-.16-.24-.04-.34,.02-.36,.54,.05,.26,.42,.48-.07,.78,1.73,3.91,.66-.06-.38-.68-.38-.42,.65-1.19,.98-2.4,1.01-.99-1.23,.07-.86-.12Zm-47.25-79.22l-1.88-.42-1.31-.44-2.83,1.08-.73,.88,.8,1.34,.61,.22,1.79,.07,.68,.11,2.64,1.6-.73-1.47-.1-.42-.08-.81,.52-.44,1.26,.02,1.93,.38-.84-1.08-1.73-.62Zm-6.88-1.15l-2.63-1.55-.05-.67,1.42,.29,.84-.5-.02-.87-1.14-.85-1.95-.33-4.32,3.65-2.04-.08-.55,.05,.65,1.15,1.21,1.3,1.34,1.03,1.1,.38,1.46-.48,2.94-1.9,1.74-.6Zm286.33-28.91l-2.62-3.46-.1-.28-.03-.24-.12-.11-.4,.09-.82,1.46-.49,1.25v1.29l.63,1.54-1.48,.51,.26,1.01,.98,1.32,.66,1.44,1.34-1.34,.34-1.64,.6-1.34,2.16-.43-.05-.55-.86-.51Zm-289.95-70.54l1.4,1.95,.31-.74,.1-.35-.14-.23-.42-.39-.06-.66,1.12-1.58-.81-2.21-2.74-3.4-1.69,.19-1.38,.69-2.21,2.01,4.49,2.97,2.01,1.77Zm6.08,1.22l1.64,.16,1.38,.53,.96,1.79-1.26-.44,.05,.55,.92,.46,.41,.77,.16,2.04-.09,.4-.19,.09-.03,.07,1.04,.92,.43,.12,.59-2.11,1.3-1.46,1.73-.86,1.72,.1-1.05-1.17-1.16-.67-2.33-.83-2.25-1.77-.92-.35-.8,.46-.73,.14-.74-.09-.8-.24-.46-.45-.45-.09-.44,.22-.46,.47,.04,.56,1.77,.69Zm65.74,168.01l-2.68,.5-1.1-.46-.55,.04-.61,.57-.61-.25-.49-.74-.25-.9-.41-.84-1.73-1.3-.66-1.05,.15-.46,.42-2.65,.03-.61,2.75-1.33,.48-.47-.24-1.42-.39-.48-.58-.16-.85-.47-.25-.05-.74,.18-.27-.03-.08-.2,.03-.72-.06-.23-.81-1.02-.19-.17-.18-1.03-2.53-5.56-.31,.11-.26,.03-.11,.14,.09,.44-.55,.05-.06-.66-.66,.06,.29,.67,.29,1.09,.31,.66-.66,.05-.07-.33-.83,.55-2.33,2.06-1.61,.49-.63,.51-.42,.86-.05,.72,.03,.79-.13,1.07-.16,.08-.95,2.12,.06,.34-.81,.31-1.84,.17-.35,.09,.89,2.29,.24,.37,.79,.61,2.41,4.06,4,2.8,1.8,.85,2.35,2.16,1,.71,1.73,.24,3.83-.08,3.26,1.48,1.88-.17,1.86-.71,1.6-.84-2.9-4.35-.61-.58Zm238.05-108.05l-.86-1.6-.07-1.31,.71,.54-.15-1.54-.74-.68-.86-.5-.48-1.01-.17-.9-.35-.99-.49-.92-.63-.65-.68-.28-.5,.13-.31,.47-.08,.71-.66,.07-.18-.42-.28-.4-.21-.38-3.77,1.59-1.5,1.26,.77,1.3-.59,.66,.85,2.05,.34,.54,.2,.59-.34,.59-.44,.54-.16,.45,.62,.9,.78,.61,.64,.88,.25,1.69h-.6l-.3-.23-.42-.86-.08,.9-.42,1.55,.14,.63,.6,.33,2.01,.36,.62,.21,.7,1.37,.6,1.85,1,1.53,1.84,.37-.05-.6-1.07-.65-.71-1.38-1.22-3.21,.67-.21,.51-.39,.33-.58,.12-.79,.23,.32,.21,.21,.19,.24,.15,.37,.55-.05,.84-.28,1.24-.03,.94-.25-.08-.95,1.25-1.97-.43-1.8Zm149.3,19.97l-.95-.81-1.01-.58-.93-.72-.71-1.22-.38-2.11-2.6-6.66-3.05-4.59-3.54-4.21-2.31-3.79-.74-.85-1.17-.35-1.18,.05-1.16-.3-1.13-1.42-1.08-3.06-1.34-5.95-1.59-2.93-1.69-2.31-.99-.67-1.53-.33-2.6,.52-.85-.43-.2-2.01,.46-2.68,3.05-4,.83-2.3-.26-1.56-.52-.85,.02-.68,1.34-1.05,1.38-.45,1.4-.29,.85-.73,.07-1.22-.59-.11-.52-.21-.47-.29-.39-.4-1.52,1.2-2.69,.48-2.92-.2-2.19-.82-2.09-1.7-.62-.84-.4-1.09v-1.18l.12-.99-.31-.79-1.37-.58,.12,1.26-1.53-.9-2.44-3.42-1.69-.62-.38-.55-1.04-1.05-1.05-.72-.4,.45,.29,.85,.56,.54,.63,.49,.52,.67-1.76-.59-2.41-1.55-2.13-1.97-.9-1.88-.29,.21-.63,.29-.27,.21-3.18-3.74-1.02-1.8,.42-1.96-.95-.44-1.04-.7-.86-.87-.41-1-2.05-1.3-.16-.33-.34-1.03-.22-.39-4.74-3.84-1.25-1.69-.65,.06,.11,1.52,.37,1.11,1.2,2.11-4.94-4.26-1.24-.58-1.54-1.04-3.42-4.15-1.9,.31-.87-.94-2.09-1.82-.45-1.09-1.13-.38-1.66-.19h-3.07l-2.18-1.05-2.2-.39h-.58l-.8-.11-1.34-.71-.96-.09-1.76,.33-.96-.06-1.07-.36-2.48-1.32-.81-.31h-.86l-1.01,.25h-.58l-2.2-1.01-.85-.2-2.44-1.01-1.69-.12-2.39-1.17-.41-.05-2.59-1.34-2.89-.7-1.13-.52,.21-.78-.06-.6-1.09-.26-3.2,.02-1.32-.35-2.08-.93-1.24-.1-.93,.34-1.12,1.29-1.02,.48h-1.12l-1.97-.7-.99-.12-4.19,.4-.59-.18-1.71-1.02-1.19-.27-.47,.31-.63,.6-.9,.29-1.25-.59-.67,.22-3.01,2.32-.83-1.26-1.13,.58-2.1,2.29-1.02-.58-1.22-.17-1.02,.08-.42,.09-.21-.67-.48-.66-.72-.47-.91-.13h-1.18l-2.17-.27-1.22,.1-.45,.31-1.3,1.3-.54,.42-.54,.05-1.21-.67-1.38,.24-1.17,.03-.62-1.31-.45-4.79,.44-.98,1.21-.72,2.86-.89,.25,.15,.66,.17,.66-.11,.25-.69,2.3-1.08-2.13-.53-3.07,.05-3.01,.53-2,.92-1.15-.1-1.55,.38-1.57,.2-1.17-.63-.66,.06-1.6,1.5-3.36,.69-3.8-.2-2.92-1.19-3.1-.65-8.76,.12-1.97-1.51-.6,.49-.64,.15-.61-.27-.54-.74-.45,1.71,.02,.76-1.8-.36-.73-.26-.58-.36-.6,.06-.2,.54-.24,.28-.3,.2-.41,.34-.38-.65-.03-.2-.91-.29-.05-.56,.87-.59-.09-.66-.55-.8-.52-1.02-3.35,2.29-1.21,.63-.4-.13-1.26-.04-1.32,.2-.57,.61-.42,.64-1.96,1.28-.4,.74-.22,.29-.51,.16-.42,.33,.1,.87,.42,.03,.79-.28,1.19-.59-.36,1.02-2.84,4.75-1.63,1.98-.27,.21-.59,.24-.27,.26-.15,.3-.18,.68-.16,.27-1.38,1.07-2.53,1.2-1.19,1.3-.71,1.64,.17,1.22,.58,1.32,.53,1.91-.74-.95-.78-.51-1.7-.72-1.3-.16-1.6-.41-1.05-.04,.35,.93-.55,.61-.42-.35-.23-.14,.26,.74,.36,1.49,.26,.74-1.84-1.02-.41,.9,.05,1.79-.51,1.68-.84,.54h-.9l-.81-.37-.55-.55-.27-.87-.12-3.36-2.33,1.45-2.39,2.47-1.96,2.67-1.52,2.74-4.43,4.44-2.41,1.66-2.81,1.43-3.18,1.17-3.04,.62-.84,.45-2.72,1.92-1.29,.57-7.25,1.84-10.97,4.42-3.58,2.03-7.91,4.5-1.07,.39-1.18,.61-3.02,3.43-2.83,1.36-.3,.2-.77,.35-.4,.66-.24,.66-.27,.31-.84,.63-.85,1.34-1.26,2.56-.69,.94-1.09,1.1-1.25,.94-1.21,.45-3.37,.52-11.94,6.08-2.05-.1-.62,.88-.77,.64-.8,.24-.72-.28-3.09,1.45-3.17,.9-6.28,.6-8.87,1.82-1.34,.03-.9-.58-1.91-.38-1.89-.09-1.62,.71-5.1-.8-1.73,.79-.9,.11-.66-.21-.8-.76-.8-.11-.8-.3-1.11-.78-1.05-.95-.59-.76-1.85-.99-3.88-3.48-5.97-7.1-1.31-.78-.47-.4-1.94-2.45-1.05-.66-2.77-1.15-.93-.16-2.39,.12-.93-.1-.63-.29-.57-.81-.77-1.92-.79-.8-.05-.61,.69,.25,.91,.05,.7-.28,.06-.78-.4-.37-2.17-1.35-2.3-2.33-1.62-1.02-1.81,.17-.54,1.06,1.46,.87,2.98,1.1-.83,1.17-2.13-.02-2.3-.38-1.35,.1,.43,.78,1.48,1.15,1.73,1.03,1.2,.41,.88,.71,3.51,4.35,6.27,2.85,.63,3.52-.31,1.57-1.52,.9-5.41-1.92-.86,.3-.4,.62-.98-.36-.92-.66-.2-.33-1.27-.31-.77,.07-.97,.51,.35,.97-.67,1.07-1.23,.89-1.26,.41-1.46-.19-.98-.55-1.15-.37-1.95,.37-4.1,1.66-1.69,.06-.98,.18-.37-.06-.33-.29-.19-.58-.24-.29-.48-.45-1.48-1.88-.05-.73-1.18-.57-3.27-.76-1.43,.99-2.16-.04-2.23-.8-1.65-1.35,.37,.24,.26,.13,.27,.07,.41,.06,.11-5.85-.56-.89-2.21-.93-.58-1.23,1.34,.24,.51,.16-.04-.55-.74-.94-.41-1.64,.14-1.58,.92-.78h2.27l1.46,.4,2.83,1.44,.44-1.14-.37-2.42,.13-1.35-.61,.05,.05,.61-.6,.05-.49-.44-.38-.5-.3-.6-.24-.8h-.42l-.09,.13,.02,.24-.06,.29-.72-.53-.36,.26-.1,.8,.05,1.09-.32,.35-.71-.03-.68-.53-.18-1.16-.6,.05,.25,1.4-.22,.97-.64,.45-.99-.18-.66-.75-.34-1.04-.52-.87-1.2-.22,1.18,1.52-.49,.37-1.06,.22-.58,1.08-.61,.05-3.32-1.68-.54-.81-.3-1.1-.66-1.16-.86-.96-.92-.53-.5,.15-.44-.15-.15-.43,.38-.74,.13-1.01h2.23l1.11-1.05v-.97l-.8-.64-1.06-.57-.82-.77-.38-1.2,.15-1.03,2.05-4.37,.3-1.22,.09-1.54-2.19,1.76-3.48-1.53-5.65-4.79-9.05-5.99-1.17-.59,1.24,3.3-.68,.09-1.4-.6-1.37-.1-.55,1.01-.09,3.45-.48,1.18-1.16,.28-1.66-.15-1.58-.34-.9-.35-1.02-.96-1.31-2.06-.99-.94-.68,.38-.88-.24-3.94-2.81-5.29-1.63-1.62,.32-1.53,1.52-.89,1.49-.1,.85,1.23,1.8,.81,2.4,.42,.49,.59,.12,.43,.22-.09,.73-1.25,.86-4.66,1.03-1.61,.72-.64,1.31-.09,1.73,.7,7.38,1.01,10.68,1.48,15.57,2.56-1.33,.82-.07,.65,.4,.37,.65,.31,.69,.44,.51,.55,.26,2.07,.72,4.32,2.66,4.14,1.04,1.27,.7,2.61,3.65,.42,.81-1.11,2.2-2.52,1.83-8.83,4.5-.97,.82-.77,1.22,.45,.37,.74,.37,.09,1.22-.75,1.02-2.5,1.86-.66,.83v1.34l.55,1.23,.89,1.11,3.04,2.87,1.66,1.95,1.3,2.21,.93,2.65,1.05,6.18v3.15l-.6,2.69-1.77,2.58-2.22,1.34-2.45,.97-2.44,1.53-3.62,4.08-3.85,2.61-.73,.7v1.13l.88,.8,2.62,1.25,.52,.46,.96,1.19,.53,.35,.56-.02,1.04-.52,.82,.05,1.62,.69,.69,.86,.65,2.8,5.56,9.83-.1,4.03-.3,2.09,1.92,.81,.71-.83,.42-1.51,1.04-1.27-.05-.55-2.62-5.86-.94-3.68-.07-3.7,1.04-3.23,1.89-2.36,2.56-1.76,6.12-2.47,3.45-.78,3.52-.3,3.28,.4,6.42,1.95,3.72,.66,2.24-.61,.77,.26,.61-.02,1.65-.5-.25-.64-.35-.65-.41-.59-.41-.46-.05-.61,1.59-.88,.29-1.16,.04-1.12,.84-.75v.9l.19,.71,.45,.48,.78,.23,.05,.56-1.55,.72,.27,1.04,1.36,.89,1.71,.31,1.12-.41,2.41-1.52,1.4-.34-.25-.56-.3-1.25-.22-.57,1.57,.4,1.57-.23,1.51-.62,1.4-.75-.22,1.91,.75,1.09,1.4,.47h1.73l.05-.51,1.16-3.05,.45-.35,1.08-.17,2.08-.12-1.4,.48-.66,.71-.02,.92,.54,1.15-.43,.07-.11-.14v-.25l-.13-.23-.36,.52-.17,.5,.14,.45,.55,.36,.05,.6-.43,.9,.2,1.25,1.26,2.65-.4,.23-.37,.36-.44,.17,.05,.61,.91,.24,1.24,1.09,.79,.19,1.2-.33,1.44-1.02,1.19-.2,.06,.66-.6,.24-.27,.38-.09,.56-.05,.74,.78-.37,.09,.66-.65,2.14,.56-.04-.06-.61,.13,.02,.4,.16,.21,.14,1.79-5.1v-1.63l.55-.05,1.54,1.03,2.99,.63,2.89-.06,1.22-1.08,2.01,1.43,1.28,.66,.53-.31,.3-1.24,.87-1.15,1.12-.87,1.04-.43-1.26,2.54-.24,1.35,.99,.49,1.26,.05,3.77,.54,.82,.42,7.18,2.12,1.69,1.07,.56-.05,.51-.87,1.2-1.57,.47-.81-1.02-.22-.35-.73,.14-1,.41-1.04,.56-.05,.39,1.63,1,1.3,2.17,2.25,3.52,5.25-.74-.24-.2-.09-.33-.23-.6,.05-.4,.55-.58,.16-.7-.13-.79-.37,.06,.67,1.43,.63,.27,1.22,.13,1.3,1.02,.82-.12-.87,.05-.74,.41-1.42,.63,.83,1.57,3.25,2.45,2.8,.39,.95,.15,.65,.31,.46,.49,.25,.66,.05,.27-.32-.19-.65-.54-1.19-.09-1.12,.15-.1,.52,.09,1.05-.54-.24,1.11,.26,1.28-.34,.69,1.31,.97,.42,.52,.3,.77-1.61-.44-.43,.88,.05,1.49-.16,1.38,1.31-.09,.76,.35,.07,.65-.77,.75,.06,.66,.71,.55,.56-.05,.53-.51,.61-.18,.66,.1,.67,.36,.05,.61-1.12,1.67-.31,.99-.02,1.47,.51,.95,.9,.73,.55,.69-.51,.84,.05,.62,1.08,.26,2.17,1.27-.04-1.56,.95-.37,3.57,.69-.9,1.03-1.58,1.02-.73,.3,.23,1.31,2.06,.66h2.65l2-.71,.73,.35,.77,.64,.67,.84,.46,.99,2.38-.45,7.52,1.37,2.04-.2,1.15,.31,.58,1.07,.63,.04,2.99,1.26,.81,.48,.66-.05,.36-.62,.99-.97,.29-.45,.14-.8-.08-.61-.28-1.02,.02-3.88-.48-.96-1.24,.63-1.12,.74-.55,.05-.68-.7-.75-1.01,.79,.32,.52,.02,1.16-.56-1.16-1.53-.57-.5-.97-.17-.06-.66,1.24-.19,1.24-.04,.06,.66-.27,.38-.12,.33,.11,.43,.45,.68,1.77-1.55,1.79-2.07,.65-2.39-1.92-2.92,.09-.54,.21-.67,.07-.8-.29-.07-1.61-.67-1.69-1.19-.28-.68,1.14-.5-.13-.58-.29-.29-.91-.29,1.64,.21,.34,1.26,.56,1.36,2.3,.44,1.11,.09,1.18,.74,.85,.11,4-.37-.05-.61-.79-.27-.56-.45-.4-.66-.29-.93,.54-.05,1.19,1.61,1.23-1.31,1.59-3.73,.31,5.51,.84,2.31,1.9-1.31,.55-.06v1.14l-.51,.59-.88,.24-1.1,.1-.93,.27-.55,.47-.41,.46-.48,.25-.59,.68,.06,1.35,.95,1.2,2.08,.2,.06,.38-.13,.11-.24,.02-.29,.09,.58,.32,.73,.19,.86,.03,.97-.16-1.4,2.82,.17,.41,.8,.16,1.18,.49,1.06,.68,.51,.73-1.1-.17-.86,.27-.61,.62-.34,.83-.05,.84,.36,.28,.69,.13,.92,.4,4.69,3.85,.05,.6-.66,.06,.05,.61,.96,.54,1.27,.99,.95,1.16-.03,1.04-.27,.79-.02,.92-.11,.77-1.02,.73,.49,.62,.72,.55,.32,.15,3.52,3.15,.55,1.11-.69,2.83,.12,1.67,2.39,1.15,.49,1.42,.09,1.65-.2,1.21-.31,.47-.93,.85-.4,.67v.74l.28,1.9-.32,.42-.46,.33-.34,.67,.09,.62,.88,.19,.86,.06,.81,.25,.7,.35,.51,.35,1.63,2.22,1.07,.5,1.1-1.3,.6-.05,.5,.47,.47,.13,.44-.21,.41-.57,.61-.06,1.87,.33,7.08-.94,10.11-2.89,10.7-2.39,.96,.05,1.73,.35,.66-.12,.67-.59,.03-.55-.09-.62,.3-.78,.81-.67,.77-.29,.55-.4,.13-.99,.2-.45,.52-.56,.65-.48,.6-.24,2.16-.52,.2-.84-1.75-2.36,.12-2.36,2.19-1.93,6.16-2.68-.66-.5-.71,.53-.77,.42-.9,.32-1.13,.23-.06-.59,2.76-1.09,.74-.47,.61-.05,.9,.68,2.42,.33,1.12,.39,1.02-.72,5.56-.52,6.01-2.94,.71-.21,2.34-.36,1.05-.35,.62-.81,1.04-3.51-.06-1.72-1.34-2.5-4.84-7.12-9.05-9.46-5.83-4.34-9.07-5.9-1.41-2.38-1.63-3.59-2.16-3.01-3.05-.61-1.11-.63-3.49-1.16-1.34-.14-.87-.71-.59-1.7-.8-1.63-1.5-.56,.63-1.15,.02-1.04-1.09-8.46,.55-1.69,5.06-6.04,1.51-1.19,.3-.64-.18-.47v-.39l.86-.43-.4,.48,.59,.57,1.23,.66,2.47,.36,.67-.26,1.47-.88,.76-.28h.5l1.16,.3,.8,.03,4.16-.95,2.49-1.3,5.84-3.74,3.77-2.41,9.14-7.32,1.72-1.79,.15-.35,.42-.42,.7-1.74,.44-.43,.78-.25,.58-.51,1.22-1.37,.35-.19,.97-.29,.43-.24,.25-.33,.11-.68,.13-.25,4.9-2.53,.95-.18,.56-.84,1.37-.93,2.62-1.39-.08-.45-.1-.09-.19,.03-.35-.09,.45-.57,.09-.26v-.43h-2.33l-5.76-1.06-.06-.6,2.68-1.08,.86-.47,.18-.37-.14-.39,.03-.33,1.09-.34,1.05-.63,.33-.29,.45-.66,.39-.76,.29-.77,.13-.71,.22-.5,.14-.49,.03-.56-.21-.27-.43-.14-.44-.23-.24-.49-.87-5.22,.21-1.73,.62-1.36,1.05-1.37,1.37-.87,1.53,.12-.26-.44-.19-.43-.27-.29-.05-.6,.59,.03,.22,.06,.1,.14,.29,.26,.83-.46,.6,.13,.67,.36,1.01,.22-.05-.55-.58-1,1.2-.78,3.95-1.08,2.06,.54,1.19-1.04,.22-1.94-.84-2.12,.55-.05-.05-.55-.31-.39-.18-.31-.17-.51,.55-.04,.63,1.5,1.34,1.55,1.55,1.27,1.23,.71-.43-1.02-1.77-2.42,.9-.37,.12-.6-.16-.74,.1-.81,2.33-1.75,.25-.32,.27-.22,.02-.41,.14-.44,.63-.25,.66-.16,1.07-.52,1.48-.44,.82-.42,.81-.15,.82,.53,1.88-1.2h5.01l2.09-.87,.05,.6,.56-.05,2.25-.66,7.16,.56,1.44-.63,.13-1.06,.49,.19,.49,.66,.13,.38,2.19,.38,.59,.24,1.39,.16,1.13-1.16,.77-1.58,.29-1.12-.42-1.84-1.09-.66-1.17-.23-.6-.56,.09-.68,.39-.42,.63-.24,.81-.11,.83-.27,.45-.47,.24-.43,.19-.21,.47-.39,.92-1.7,.49-.51,.87-.1,.32,.43,.28,.52,.73,.2,.34-.27,1.01-1.33,.54-.51,.69-.31,1.16-.2,.54-.34-.35,.81-.75,.54-1.71,.8-1.31,1.29-.85,.12-.89-1.12-.55,.05-.39,1.54-.88,1.32-1.37,.9-1.87,.31,.06,.66h1.67l.8,.9,.28,1.52,.14,1.84-.1,.85-.29,.52-.2,.52,.2,.86,.41,.45,2.38,1.36,4.68,.57,12.11,4.9,.61,1.4,.51,1.66,.75,1.34,1.91,1.85,.92,.25,1.29-.34,1.37-.85,.47-.94-.27-1.14-.84-1.4,.98,.74,.77,.91,.9,.74,1.34,.26,.06,.6-.65,.06,.06,.6,1.5,1.08,2.11,3.57,1.82,.9,2.41-.28,3.04,3.24,1.31-1.75,1.34,.11-.08-1.27-.53-1.78v-1.43l.63-.06,.59,1.61,.27,1.79-.31,1.65-1.15,1.14,1.01,2.05,.66,.97,.82,.36,.62-.21,.61-.33,.67-.12,.77,.4,.34-.53,.28-.17,.58,.02-.16,.41-.33,1.41,5.59,.96,.18,3.1,.58,.86,1.55,.98-1.01,.57-.87-.03-.98-.19-1.32,.06,1.13,1,2.9,3.19,.76,1.47-.36,3.04,.18,1.23,.48,.97,1.08,1.12,.48,.8v-.76l.11-.65,.3-.58,.6-.56,.7,1.06,.57,1.55,.23,1.57-.37,1.12,1.02,.48,2.27,2.28,.72,.31,.77,.19,.67,.34,.43,.73,1.88-5.38-.52-1.42-1.77-1.18-1.28-4.14-2.03-4.21,.13-2.19,.54-.06,.18,1.81,.65-.07-.05-.6,.55-.05-.16,.63-.27,.63,.85,1.72,1.44,5.12,.95,1.39,1.21-.51,1.44-1.69,1.03-1.88-.03-1.15,.58-.73,1.1,2.76,.87,.9,1.39-.36,.96-2.52,.36-.52,.44-.35,.14-.54-.53-1.06,1.44,.35,.19,.82-.78,1.78-.28,.45h-.36l-.14,.11,.37,.76,.37,.31,.52,.24,.56,.35,.45,.66,.66-.27,.29-.17,.26-.22-.07-.65-.73-.89,.32-1.08,.56-1.32-.04-1.58-.7-.85-.9-.6-.51-.77,.49-1.32,.65-.07,1.92,4.62,.72,2.62,.18,2.9-.65-.16-.24-.11-.38-.27-2.4,1.52-.45,.65-.1,.64,.1,.8,.38,.65,.79,.22,1.55-.4,1.59-.83,1.19-1.18,.39-1.4,.12-1.87,.67-1.46,1.09-.87,1.37-.13,.94,.62,1.2,1.27,1.94,2.61,.54-.05,.32-.88-.21-.9-1.5-2.74-.24-.75-.24-2.9-.04-.27-.45-.04-1.25-.64-.52-.8-.29-2.21-.44-.78,1.05,.4,.34,.65,.18,.82,.52,.95,1.06,.74,.8,.11,.54,.22,.23,1.09-.22,.77-.43,.64-.18,.85,.53,1.42,.84,1.06,1.08,.95,1.14,.75,1.02,.52-1.2,1.46,.81,2.31,2.3,3.64,.57,1.96,1.18,1.59,1.64,1.12,1.97,.55,7.94,.62,1.37,.6,.95,.57,5.09,5.22,1.49-.43,3.62,3.57,2.44-.27-.67,1.32-1.39,.54-1.4-.21-.7-.92-.46-1.48-.88-1.13-1.03-.43-.89,.64-.94-.36-.62-.59-.36-.89-.22-1.31-.54-.56-2.21-.93-1.66-1.54-2.42-.61-4.47-.4,.7,1.02,1.08,.87,1.3,.59,1.38,.16,.05,.55-1.19,.12-.77-.06-.81-.27-.67-.41-.8-1.18-.95,.06-.9,.37-.4,.22-1.36-.19-1.19-.73-.97-1.07-1.97-4.05-.89-1.26-1.07-.46-1.27-.13-1.63-.48-1.52-.64-.93-.64-.29-.71-.76-3.16-.41-.35-.81,.19-.78,.49-.33,.5,.16,1.75-.07,.79-.3,.85-1.43,1.8-.23,.19-.04,.94,.37,2.4-.24,.27-.92,1.58-.1,.37-1.26,.32-.67,.09-.79-.14-.64-.31-1.1-.84-.78-.41-.26,.92-.21,.06-.66,.35,.34,.36,.22,.28,.28,.23,.53,.19,.06,.66-1.05,.79-.73,.19h-2.41l.07,.65,1.09,.53,2.87,2.71,1.1,.74,.82,.7,.59,1.07,.34,1.79-.97,3.34-2.67,3.55-3.23,2.08-2.63-1.05-.93,.95-1.4,.36-1.32-.43-1.3-2.74-.97,.69-.88,1.72-.3,1.7,.33,1.09,1.86,2.67,.26,.86-.1,1.03,.14,1.07,.98,2.74,1.42,2.6,1.84,1.88,2.4,1.89,2.15,2.18,1.09,2.73,.52,.96,3.05,3.76,.79,1.43,.16,1.14-.32,1.25-.67,1.77,.9,.17,.8,.42,.46,.69-.12,.99,1.73,.06,1.38,.84,2.12,2.22,1.15,.82,.41,.46,.42,.89,.09,.97-.24,.8-.07,.84,.6,1.11,.02-1.58,.77-.79,.96,.26,.61,1.54,.39,3.07,.29,.84,.24-1.36,.55-.05,.74,1.68,.52,.84,.59,.32,.92,.3,.52,.8,.3,.82,.32,.36,1.09,.44,1.52,1.11,2.37,2.19,.55-.05,.76-.8,.6,.26,1.23,1.5h-.42l-.13,.47,.25,.56,.73,.19,.26-.21,.13-.37,.23-.18,.54,.32,.49,.84-.06,.92-.26,.95-.1,.95,.4,.96,.78,.67,1.51,.87,4.25,4.3,2.77,2.03,2.01,.36,2.41-11.83,2.04-10.11,2.15,.25,1.91-.5,1.58-1.17,1.14-1.77,.56-2.34-.46-1.86-2.38-3.65-1.07-2.64-.79-3.7,.22-3.29,1.99-1.37,.95,.4,4.77,3.28,.95,.88v.24l-.29,.82,.03,.33,.28,.21,.77,.1,.25,.15,2.77,3.03,.79,1.09,1.52,4.29,1.04,.9,1.98-.4,2.01-2,3.59-4.43,11.51-8.91,2.33-2.6-.72-1.57-1.97-1.51-1.44-2.45,.17-1.11,2.24-3.54,1.72-5.26,1.66-2.05,2.54-1.69,2.85-1.28,2.57-.83,3.25-.3,.47-.41-.83-1.3Z"/><path class="cls-18" d="M656.28,740.57l-2.68-.6-2.87-.29-.74,.11-1.64,.68,1.39,2.19,.87,.77,1.59,.53,1.52,.07,1.51-.24,1.33-.42,1.05-.47-.04-.56-.94,.09-.74-.15-.52-.38-.89-.15-.38,.05-.88-.39,3.09-.22-.04-.62Zm228.43,30.5l-1.57-.78-2.49-3.14-1.79-.77h-1.96l-2.07,.25-2.11-.05-6.1-1.57-1.45-.94-.95-1.58-.78-3.55-.62-1.36-2.2,.87-4.13-3.3-5.65-6.45-1.38-.83-4.61-5.76-1.24-1.1-.74-1.19-.4-1.37-.19-1.64-.55-.65-2.36-.22-.84-.45-2.01,1.34-3.75-3.15-6.18-6.44-1.43-.93-18.56-20.7-7.13-10.08-6.32-12.22-5.17-11.48-.41,1.15-.22,2.08-.26,1.08-.39-.71-.2-.63,.04-.56,.37-.48-1.1,.82-.8,.85-.87,.68-1.33,.36,2.39-2.37-.07-2.9-2.02-7.01,2.74,5.55,1.42,1.49v-2.84l-1.94-4.28-2.56-3.96-1.92-1.92-.7-.03-.56,.06-.52-.07-.61,.5,.14,.45v.43l.35,3.83,1.04,3.12-.07,2.45-2.98,1.82-6.14,1.95-5.7,2.65-1.65,2.24-.31,.22-2.45-.3-.58,.24-1.16,.95-.86,.23-.83-.06-.62-.24-5.63-3.8-.52-1.49-1.02-.59-1.18,.29-.97,1.12-1.54-.25-2.09,1.56-1.15-.97-.61,.05-.96,.85-1.05-.31-1.76-1.49-1.05,.25-1.41-.1-1.38,.07-.94,.79-.51-.57-2.06-1.42-.23-.29-.38-.35-.2-.49,.34-.72,.35-.28,1.18-.72-.48-2.12-1.63-1.17-1.74-.74-.86-.82-.97-.57-4.23-1.28-.99-.81-.29-.61-1.28-1.39-.44-.62-.26-1.09-.05-.91-.26-.66-.87-.36-.72,.5-4.54,3.43-.81,.41-.98-.03-.97-.31-.82-.39-.8-.59-2.19-2.36-.39-.24-.44-.2-.47-.15-.48-.1-4.55-1.63-2.08-.51-1.9,.23-1.56-.11-3.53-2.19-1.62-.58-2.73,.85-6.25,4.76-8.73,6.65-2.02,.89-2.05-.09-14.66-4.3-16.3-4.82-12.26-3.63-9.19-2.74-2.97-1.42-2.65-2.09-2.63-1.14-2.88,1.42-2.28,3.52-1.4,3.63-1.91,3.61,.84,.29,1.13,.74,1.04,1.19,.32,1.29-1.01,1.06-1.78,.13-.97-.79-.81-.38-1.28,1.34-.57,.48-.45,.12v.21l.81,.74,.67,.41,1.54,.52,.68,.42,.79,.99,.37,1.15-.3,1.02-1.28,.57,.04,.67,.46,.48,.13,.6-.2,.53-.57,.25-.73-.11-.85-.73-.62-.24-1.79,.02-1.88,.4-.91,.71,1.07,.94,.03,.56-.62,.71-.56,.03-1.21-.99-.38-.14-.19-.27,.17-.69,.06-.81-.51-.66-1.13-.19-4.38,.54,.04,.62,.81,.08,.43,.17,.28,.32,.37,.54-2.1,.37-3.65,1.96-1.99,.63,.05,.67,3.36,.21,2.38,.87,2.13,1.07,2.68,.82,.72-.03,1.7-.28,.66,.11,.56,.59-.19,.52-.51,.27-.43-.11,.75,.72,2.58,1.86,.54-.03,1.27-.99,2.97,.28,3.02,1.12,1.44,1.49,.9,5.89-.09,3.07-1.4,1.28,.04,.67,.61-.04,.04,.57-.99,.34-.02,.25-.17,.77,.27-.18,.17-.21,.11-.17,.08-.1,.64,.58-.75,.28-.6,.52-.95,1.19,.04,.56,.43-.07,.1,.14v.26l.12,.29,3.4-3.92,1.2,.73,.52,.54,.24,.73-2.48,2.97-1.11-.03-.32-.05-.74,1.46-.44,.43-.48,.34-.26,.59,.2,1.17-.55,.04-1.37-.07-1.72,1.12-1.69,.84-1.3-.92-.61,.04-.65,1.75-.62,.66-1,.26,.04,.62,1.22-.09,.04,.62-.41,.13-.23,.14-.54,.42,.99,.88,1.45,1.61,.84,1.57-1.8,1.55-.55,1.43-.77,1.01-1.57-.51-.62,1.54-.94,1.6-1.46,1.32-.6,.93,1.23,.64,2.06,2.3,.23,.72-.45,.9-1.15,1.28,.59,1.09,.48,1.53,.48,2.52,4.05,8.26,1.22,1.63,.88,2.37,.61,.95,9.9,10.58,1.09,2.2-.53,1.72,.87,.99,.59-.08,.62-.44,1-.11,.73,.3,.49,.4,.6,.31,2.44,.22,5.15,1.26,.05-.18,.32-.31,.51-.17,.65,.25,.35,.38,.14,.26,.21,.12h.57l.99,.14,1.27,.8,.87,.14,.57-.24,1.21-.99,.85-.23,9.82,2.74,3.07,1.45,2.29,2.2,.12,.61,.02,.82,.24,.7,2.29,.77,.88,.45,.39,.4,.56,1.12,8.15,9.51,2.86,4.95,.67-.04,.96-1.48,.7-1.64,1.51-6.31,.37-.74,2.03-1.23,.29-.48,.48-.16,2.78-1.62,.2-.35-1.49-1.64-.45-.7,.55-1.24,1.49,.02,2.9,1.18,.31-.73,.34-1.69,.35-.68,2.01-1.35,.31-.39,.47-1.62,1.31-1.02,1.55-.78,1.19-.94-.04-.55-3.2,.33-1.57-.06-1.35-.5,.99-1.18,.65-.52,.71-.3-1.25-1.02-1.18-1.44-.18-1.28,1.74-.55-.04-.57-1.08-.8-2.34-1.24-1.11-.77-1.56,.81-1.71,.07-1.62-.39-3.58-1.73-1.45-.48-.62,.29-.7-.33-5.56-1.82-3.94-3.01-.04-.55,.67,.24,.77,.17,.81,.05,.77-.12-.18-.61-.33-.22-.69,.36-.55,.04-1.34-2.17-1.04-.97-2.79-.77-1.12-1.09-.26-1.23,1.11-.84-1.16-1.57-.71-2.41-.52-4.16-.74-2.15-2.69-1.7-.67-1.78,3.99,2.4,1.69,1.78-.4,1.66,.04,.57,2.4,2.18,1.48,.89,1.62,.3,6.02-.52,1.56-.64,1.24,.98,.36,.14,.42,.25-.13,.62-.46,.99,.83,.56,.51-.1,.36-.36,.43-.24,.57,.16,.98,.78,2,.82,3.89,3.16,1.54,.66-.41,.43,.86,.79,1.19,.68,.58,.1,.44,.44,2.84,2.03,2.2,.99,2.34,.62,2.55,.26,2.84-.06,.05,.61-3.09,.2-1.39,.25-1.05,.51,.05,.67,7.82-1.35,2.61,.6-.37,1.35,.47,.85,2.31,1.63-1.1,2.15-.09,1.37,1.48,.51,1.07,.71,3.98,5.08,1.49,1.28,.76,.88,.38,1.06-.2,1.31-.55,1.02-.57,.8-.49,1.56-1.41,1.63-.46,1.04,.09,.82,.29,.89,.17,.97-.27,1.05,1.39-.17,.29,.6-.06,.94,.38,.88,.99,.53,1.02,.31,.82,.55,.41,1.2,.74,1.3,3.46,1.86,1.55,1.08-.24-.64-.15-.26-.26-.35,1.25,.19,.48,.82,.43,1.03,1.11,.8,1.21,.09,1.16-.33,1.11-.44,1.05-.27,2.29,.02,12.14,2.41h2.26l2.36,.33,3.84,1.88,2.34,.23-1.25-.77-.53-.18-.79-.1-.05-.61,2.28,.59,2.47,1.86,1.45,2.24-.83,1.72,1.55,.16,.9,.78,.77,.52,1.18-.61,.38,.67,.44,.36,.5-.04,.55-.46,.55-.05,8.81,2.7,1.17,.77,7.09,2.64,7.5,6.12,2.03,.36,2.8,1.15,2.11,1.82-.03,2.33,3.6,.35,2.52,2.18,2.06,2.88,2.2,2.42,.56-.65,1.58,1.48,.5,.74,2.85,5.97-.84,.81-.56,.7-.41,.77-.31,1.02,.33,.28,.64,.3,.19,.46-1.02,.73h1.04l.49,.23,.34,.39,.59,.41,1.33,.58,.72,.45,.58,.61-1.09,.05-.84-.19-1.8-.73,.35,1.54,1.12,.75,1.21,.53,.62,.87-.34,1.04-.95,.78-2.11,1.25-1.13,1.6-.29,1.55,.41,.82,1-.56,.95-1.2,.62-.58,.95-.17,1.95,.07,.05,.55-2.14,.73-2.34,1.52-1.2,1.7,1.23,1.33-.53,.66-1.9,3.47-.56,.67-.33-.52-.45-.22-.94,.45-1.32,.94-.58,.78-2.37,4.38,.51,2.75,.58,.31,1.87,.59,.4,.06,.56,.78,8.33,6.55,2.39,2.63,1.29,1.13,1.34,.5,1.5-.12,5.4-1.12,1.84,.12,5.32,1.8-.1-1.27,.79,.6,.73,.4,1.78,.63-1.23-.04-.34-.12-.42-.28-.56,.04,1.56,1.1,3.2,1.22,3.33,.77,1.99-.24,.8-2.3-.05-3.28-.8-3.08-1.49-1.72-.05-.61,.49-.65,.1-.92-.24-2.2-1.04,.76-1.2-.87-1.28-1.32-1.28-.63-1.34-.06-3.42-.73-1.22-.51-.77-.78-2.06-2.72-.53-1.39-3.5-4.43-.55,.05v.04l-.62,.57,.29-1.81,1.17-.55,2.97,.21,1.18-.33,.32-.58,.05-.64,.39-.51,.89-.07,.63,.37,.47,.03,.43-1.09,1.53,.38,1.91,.24,1.31,.6-.25,1.49,.61-.09h.6l-.39,1.92,.94,1.28,2.94,1.42,1.21-.77,1.29,.54,1.14,1.18,.75,1.14,1.36-.38,1.87,.05,1.61-.2,.59-1.15,.6-.04,.74,1,1.19,1.05,1.37,.85,1.26,.41,.05,.66-2.56,1.27-.4-.16-.2-1.2-.33-.68-.97-1.38-.61,.05-.13,.51-.12,.32-.25,.49,2.06,3.33,.72,.67,1.31,.38,2.58-.36,1.07,.25-1.32,1-1.08,.41-.6,.52,.16,1.32,.58,.96,3.2,3.38,.68,1.37-.49,1.42-.87,1.27-.43,.95-.45,.29-2.34,3.4,3.27,2.7,11.72,7.08,2.34,2.06,6.94,9.84,.34,1.08-.29,1.4-.54,1.56-.02,1.38,1.3,.84,.3-2.09,.1-4.03-5.56-9.83-.65-2.8-.69-.86-1.62-.69-.82-.05-1.04,.52-.56,.02-.53-.35-.96-1.19-.52-.46-2.62-1.25-.88-.8v-1.13l.74-.7,3.85-2.61,3.62-4.08,2.44-1.53,2.45-.97,2.22-1.34,1.77-2.58,.61-2.69v-3.15l-1.05-6.18-.93-2.65-1.3-2.21-1.66-1.95-3.04-2.87-.89-1.11-.54-1.23v-1.34l.65-.83,2.5-1.86,.75-1.02-.09-1.22-.74-.37-.45-.37,.77-1.22,.97-.82,8.83-4.5,2.52-1.83,1.11-2.2-.42-.81-2.61-3.65-1.27-.7-4.14-1.04-4.32-2.66-2.07-.72-.55-.26-.44-.51-.31-.69-.37-.65-.65-.4-.82,.07-2.56,1.33-1.48-15.57-1.01-10.68-.7-7.38,.09-1.73,.64-1.31,1.61-.72,4.66-1.03,1.25-.86,.09-.73-.43-.22-.59-.12-.42-.49-.81-2.4-1.23-1.8,.1-.85,.89-1.49,1.53-1.52,1.62-.32,5.29,1.63,3.94,2.81,.88,.24,.68-.38,.99,.94,1.31,2.06,1.02,.96,.9,.35,1.58,.34,1.66,.15,1.16-.28,.48-1.18,.09-3.45,.55-1.01,1.37,.1,1.4,.6,.68-.09-1.24-3.3Z"/><path class="cls-17" d="M812.89,352.11l.19,.04,.03-.2-.19-.1-.04,.25Zm1.4-2.18v.21l.24-.1-.24-.1Zm-1.34-14.02l-.03,.02-.02-.07-.16,.09,.09,.13h.02l.04,.04,.1-.06-.04-.16Zm-.32,16.78l.18-.3-.27,.22,.09,.07Zm1.8-2.23h.11l-.08-.13-.03,.13Zm.38-.03l.13-.05-.17-.15,.04,.2Zm-2.74,1.82l.22,.19,.08-.03-.03-.23-.27,.08Zm-.67,.63l-.02-.06-.17,.09,.1,.13h0l.04,.04,.1-.06-.04-.15-.03,.02Zm.23-.45h.08l-.13-.33,.05,.33Zm.37-.09v-.07l-.18,.09,.1,.13h0l.04,.04,.11-.06-.04-.15-.04,.02Zm4.32,5.67l-.12,.29,.17,.03-.05-.32Zm-4.1-6.11l.03,.08,.12-.05-.07-.28-.09,.26Zm5.44-20.86v-.07l-.17,.09,.09,.13h0l.04,.04,.11-.06-.04-.16-.04,.02Zm2.45,22.53l.2-.09-.18-.21-.02,.29Zm.16-.82l-.09-.12-.09,.18,.12,.04,.05-.1Zm-.45-.22h.17l.02-.16-.2,.08v.08Zm.95,1l.03-.22-.17,.13,.14,.1Zm-.24,3.6l.22,.07v-.08l-.22,.02Zm-9.17-4.89l-.18,.12,.09,.09,.09-.21Zm5,6.65l.15-.03-.12-.12-.02,.15Zm1.02-29.2l-.02-.06-.17,.09,.1,.13h0l.04,.04,.1-.06-.04-.15-.03,.02Zm1.12,22.28l.16-.23-.29,.24h.13Zm0,3.2v-.06l-.18,.09,.1,.13h0l.04,.04,.1-.06-.04-.15-.03,.02Zm-.65-.67l.1,.11h.08l-.05-.15-.12,.05Zm-231.91,241.74l-.68-.66-2,.77-1.05,.14-.91-.66-2.3,2.05-.17,.89,.17,.64,.51,.62,.88,.83-.54,.11-1.23,.56,8.5-.81-.59-2.91-.58-1.57Zm244.09-260.66l-.21-.18,.12,.27,.09-.09Zm-3.41,2.44l-.28,.08,.04,.09,.24-.17Zm3.19-1.71l.04,.05,.1-.06-.03-.15-.04,.02v-.06l-.17,.09,.1,.13h0Zm-.62-.35l.04,.05,.11-.06-.04-.15-.03,.02-.02-.06-.17,.09,.1,.13h0Zm-2.03,6.32l-.97-.63,.07,1.03,.9-.4Zm-1.4-3l.04-.09-.26-.03,.12,.17,.1-.04Zm11.67-10.29l.04,.05,.1-.06-.03-.16-.04,.02-.02-.06-.16,.09,.09,.13h.01Zm-3.87-5.43l-.5,.51,.63,.54-.13-1.05Zm17.45,5.08l.05-.08-.28-.14,.23,.23Zm-.27-1.12l.04,.05,.11-.06-.04-.15-.04,.02v-.06l-.18,.09,.1,.12h0Zm-.29,1.18l.04,.05,.08-.05-.08,.25,.2-.03-.1-.23h0l-.04-.16-.03,.02-.02-.06-.16,.09,.09,.13h.02Zm-24.94,10.21h-.18l.19,.19-.02-.19Zm-12.79,13.23l-.03-.21-.14,.11,.09,.1h.08Zm-2.76-.68l-.02,.17,.07,.13,.17-.1,.09-.22-.06-.18-.24,.2Zm-193.52,269.09l-.3-.87-.36-.5-1.03-.12-1.36-.15-1.16-.36-1.05-.18-1.03,.42-1.32-1.02-.38-1.3-.05-1.51-.36-1.69-.59-.83-.95-.67-1.15-.46-.54-.24-.7-.63-1.05,.55-3.75,.27-1.77,.88-1.05,1.58-1.24,3.59-.95,1.18,3.56,1.82,1.49,.38,1.75,.02,2.73-.85,1.52-.22,2.19,1.11,2.01,4.89,2.02,.99,.86,.05,.95,.4,.69,.06,.31-.21,1.08-.92,.37-.22,1.17-.44,.9-1.01,.26-1.3-.77-1.34-.93-1.16Zm179.99-327.7l-1.19,.31-2.21,1.19-3.84,.19-.35,.09-1.08-.34-.66-.4,.04-.47,.99-.57-3.84-.16-1.48,.19-1.25,.94-.52-1.15-.94-.5-1.14-.37-1.13-.79-.73,1.59-1.26,1.57-1.68,1.16-2.02,.37-.82-.39-1.16-1.55-.48-.41-1.15-.12-.87,.15-.26,.47,.64,.82-.42,.62-.11,.56,.04,1.35-.9-.73-.46,.41-.04,1.04,.34,1.18-.51-.21-1.3-.29,.21,.26,.27,.62,.19,.3-1.23,.45-2.05,1.85-2.07,.93-.36,.99-.11,1.21-.3,1.11-.65,.04-.79-.89-1.62-.37-1.93,.02-1.69,.34-1.57,.87-.27,1.01,.99,2.5-.65,.04-.37-.74-.66-.36-.9-.07-1.09,.14,.27,1.37-1.76,.81-4.81,.59,.69,1,.45,.41,.7,.41-1.6,.11-1.68,.66-1.49,.95-1,1.01-.54-.61-.31-.2-.35-.08-.64-.22,.48,.81,.13,.37-1.12-.23-1.49-1.4-1.08-.52-.3,2.06,.03,.82,.49,.7-8.54,.98-1.5-.09-.21-.68-.46-.22-1.46,.14-.92-.07-.34-.3-.25-.4-2.06-1.14-.63,.08-.9,.85,1.13,2.03,.65,.78,.81,.69,.04,.67-.57,.41-.37-.02-.42-.19-.74-.08-.78,.22-.42,.4-.32,.45-.5,.33-2.08,.74-1.27,.18-1.08-.37-2.18-2.08-.7-.52-.81-.39-1.23-.35-1.09,.14-.41,1.08,.7,4.16-.32,1.99-1.73,1.05h-.97l-2.13-.36-1.34-.04-.69-.43-.76-2.28-.9-.81-1.04,1.75-1.07,2.32-1.48,2.06-3.17,1.33-2.18,1.39-.94,.34-1.35-.32-.95-.72-.95-.45-1.29,.48,.16-1.76,.29-.65-6.35,.18-1.99-.31-3.45-1.25-1.68-.08-1.55,1.05-1.48-2.98-.99-1.44-1.84-1.1v-1.19l-.28-1.06-1.74-.12,.03-.18,.63-.91,.26-.27-1.4-2.04-2-1.31-2.29-.55-2.28,.23-5.14,1.24-1.38,.91-3.77,4.07-1.5,1.2-1.47,1.12-1.13,1.18-.7,1.44-.27,3.33-.25,.55-.44,.23-1.34,.45,.51,.84,2.56,1.61-1.81,1.92-.48,.72,2.25-.13-.55,1.54-2.93,3.28-1.79,.97-1.55-1.02-1.47-1.45-1.61-.32-.63,1.31-.24,2.5,.08,4.53-.28,.6-1.89,2.25-.07,.57,.27,1.36-.06,.57-2.28,1.97,1.46,.84,1.63,1.33,1.23,1.72,.19,2.03-.92,1.54-1.73,1.18-2.14,.84-2.14,.5-3.3,.19-.9,.24-2.02,1.15-.8,.25-.45,.53-.32,.62-.58,.78-.21,.67-.22,.3-.37,.09-.95-.09-.37,.09-.8,.85-.93,1.37-.76,1.45-.51,2.32-.63,1.74-.87,1.78-.94,1.31-2.16,1.9-1.44,.95-3.1,1.04-.44,1.21-.12,1.44-.74,1.27-1.61,.63-2.17,.51-1.88,.74-.76,1.29-.81,.93-3.01,1.1,.34,.92-.26,.11h-.24l-.13,.12,.06,.42-.54,.02-.76-.18-1.69,1.63-1.09,.59-1.55-.02-.92-.16-.4,.51v1.98l-.72,2.74-.27,1.75,.37,.75,1.34,.34,.55,1.01-.11,1.4-.65,1.48-.75,.78-.23-.08-1.24-1.24-1.79-.05-2.05,.18-1.98-.57-1.48-1.62-.96-1.79-1.11-1.5-1.97-.75-1.2,.14-.77,.37-.8,.21-1.24-.35-.62-.51-2.03-2.41-6.43-4.15-.37-2.37,.84-1.98-.03-.99-6.65,1.34-1.17,.69-.94,.94-.42,.81-.3,.88-.57,1.17-.97,1.12-1.03,.61-1.02,.46-.88,.65-2.79,4.87-5.43,6.46-1.27,2.27-.55,2.69-.44,1.38-.96,1.21-1.28,.71-1.6,.47-4.51,.53-.62-.06-.85-.23-.54-.34-1.46-1.35-1.27,.24-1.15,.69-1.26,.47-1.58-.36-2.99-1.45-3.46,.38-7.1,1.72-3.86-.29-1.84,.25-1.94,1.1-.98,.75-.41,.38-.12,.56-.15,1.26-.02,6.38,.2,.8,.37,.45,1.17,.8,.37,.57,.13,1.43-.41,2.91,.12,1.53,3.39,10.65-.08,1.42-.99,2.54-.07,1.3,.38,.88,.54,.24,.61,.12,.59,.49,.7,1.11,.22,.54,.66,2.55-.13,1.4-.62,1.22-1.16,1.18-1.22,.92-.83,.27-.84-.22-5.2-2.24-1.53-.05-1.39,.48-1.13,.86-4.05,3.85-.67,.92-.56,1.23-.51,2.57-.14,.25,.19,.52,.74,1.41,.16,.22-.51,4.78,.25,.56,.51,.2,.37,.31-.2,.89-.42,.49-1.27,.72-.48,.42-1.91,3.34-.95,1.13-2.19,1.54-1.8,1-.41,1.49h-1.05l-2.1-1.16-1.31-.07-20.13,2.3-.59,.45-4.17,2.33-.83,1.48,1.04,.77,2.33,.14,4.59-.35,.04,.67-9.08,1.01-3.81-.62-3.04-2.74-.13-.57,.12-1.37-.12-.59-.3-.24-1.16-.63-.4-.28-1.71-2.07-.59-.29-2.34-1.81-.43-.25-.45-.41-1.03-.26-1.2-.09-.99,.04,.27-.54,.16-1.95-.55,.03-.28,3.48-1.78,2.1-2.48,1.71-2.39,2.31-1.53,3.22,.15,2.65,1.41,2.17,2.26,1.81,10.71,5.73,2.06,1.81,1.36,.94,.91,.07-.09-1.01-1.3-1.08-2.43-1.43-.03-.56,1.81,.38,2.06,.98,1.55,1.15,.26,.92,.03,.56,.81,.48,.43,.13,.03,.56-1.1-.5-.37-.24-.41-.41,1.26,2.31,10.32,10.77,.25-.46,.64-.89,.23-.5,.56,1.55,.45,.91,.77,.73,5.76,4,1.12,.41,1.8,1.53,2.47,2.8,1.51,1.19-1.07-3.3,.55-.03,2.19,3.68,.79,.54,1.25,.3,1.19,.86,2.33,2.3-1.95-.27-2.08-.72-1.79-1.06-1.09-1.3,.34,2.08,6.26,2.43,2.87,2.76,5.15,2.62,1.21,1.33,18.76,10.1,2.31,1.79,.96,1.31,3.58,8.31,3.67,5.6,2.22,2.47,2.27,1.58,1.09,.99,.51,1.23,.36,1.33,1.68,2.74,1.49,1.89,2.47,2.23,.92,.42,1.01,.76,2.69,5.21,1.84,2.03,11.1,7.47,1.17,2.79,1.26,1.3,1.44,.94,8.39,3.09,3.5,3,2.83,1.06,1,2.63,.4,.7,1.34,1.07,4.01,1.97,3.23,3.02,2.45,1.08,3.2,3.42,1.45,1.21,3.14,.66,.31,.37,1.41,.88,.43,.17,.83,.51,10.13,10,1.77,2.31,1.04,3.19,.8,1.56,1.3,.6,1.74,.16,4.55,1.56,1.91-3.61,1.4-3.63,2.28-3.52,2.88-1.42,2.63,1.14,2.65,2.09,2.97,1.42,9.19,2.74,12.26,3.63,16.3,4.82,14.66,4.3,2.05,.09,2.02-.89,8.73-6.65,6.25-4.76,2.73-.85,1.62,.58,3.53,2.19,1.56,.11,1.9-.23,2.08,.51,4.55,1.63,.48,.1,.47,.15,.44,.2,.39,.24,2.19,2.36,.8,.59,.82,.39,.97,.31,.98,.03,.81-.41,4.54-3.43,.72-.5,.87,.36,.26,.66,.05,.91,.26,1.09,.44,.62,1.28,1.39,.29,.61,.99,.81,4.23,1.28,.97,.57,.86,.82,1.74,.74,1.63,1.17,.48,2.12-1.18,.72-.35,.28-.34,.72,.2,.49,.38,.35,.23,.29,2.06,1.42,.51,.57,.94-.79,1.38-.07,1.41,.1,1.05-.25,1.76,1.49,1.05,.31,.96-.85,.61-.05,1.15,.97,2.09-1.56,1.54,.25,.97-1.12,1.18-.29,1.02,.59,.52,1.49,5.63,3.8,.62,.24,.83,.06,.86-.23,1.16-.95,.58-.24,2.45,.3,.31-.22,1.65-2.24,5.7-2.65,6.14-1.95,2.98-1.82,.07-2.45-1.04-3.12-.36-3.83v-.43l-.13-.45,.61-.5,.52,.07,.56-.06,.7,.03-1.5-.65-1.91-.24-1.27,.27,.4,.93-1.52,.41-1.6-3.52-1.68-.88-.8-.65-2.35-3.2-1.02-2.16-2.94-3.89-2.24-4.51-3.55-11.51-.65-9.04,.34-1.57,.71-1.43,2.55-3.75,.54-.04,1.9,.17,.95-3.24,.55-4.23,.7-2.84,.65-.71,.72-.4,.85-.19,1.05-.1,.78-.35,.78-1.36,.68-.35,.09-.21,1.19-.49,1.23-.34,.19,.24,.65-.71,.3-.57,.06-.7-.03-1.15-.44-3.14-5.23-15.98-.9-.67-1.46,.16-.76,.41-.42,.94-.47,1.77,.16,.69,.42,.55-.07,.41-1.28,.24-.9-.05-.88-.26-.68-.42-.87-1.65-1.29-1.3-1.5-1.18-1.21-.7,.32-.79,.68-.87,.82-.7,.73-.32,.48-.37,1.48-2.22,.32-.27,.44-.19,.48-.29,.43-.59,.06-.6-.25-.55-.33-.48-.19-.48,.14-.66,.66-1.69,.12-.82-.15-1.17-.28-1.09-.42-.93-.57-.65-2.21-.73-1.12-.58,.45-.33,3.7,.83,1.57-.17,.38-1.74,.04-1.44,1.2-2.03,.22-1.52-.33-1.16-.67-.89-1.59-1.44-.65,.05-1.05,1.29-1.46-.73-.24-1.31,2.66-.47,1.69,.66,1.66,1.39,1.28,1.66,.55,1.48-.55,2.1-1.23,.97-.68,1.01,1.09,2.18,2.38,2.58,.74,1.48-.24,1.86,.63-.29,.58-.4-.8-1.88-1.45-11.37,1.21-10.71,3.52-8.48-.42-.65-1.74-.13-.74,.53-.45,1.18-1.08,4.67-.35,.85-.22-.55,.03-1.02,.33-1.77,.04-.89-.56-1.35-2.71,.78-1.68-.69-.77-1.58,.17-1.72,.49-1.85,.21-1.92-.88-3.94-.75-.79-.6-.14-.71,.06-1.07-.13h-.75l-.33,.21-.11-.09-.32-4.65,.58-1.22,1.55-.63,3.76-.67,2.73-1.38,4.39-4.22,2.64-1.79-1.01-1.34-.37-.4,.37-.7,.15-.63-.05-1.51-.2-.92-.36-.33-.42-.21-.41-.59-.17-.61-.26-1.5v-.31l-.22-.17-1.99-.9-.79-1.52-.18-1.81,.66-1.7,1.73-1.17,2.22-.33,2.38,.41,1.78,1.3,.47,2.37-.23,.64-.37,.47-.34,.33-.14,.19,.2,4.99-.22,1.21-.7,.9,.05,.67,1.35,2.62-.46,4.07-1.96,2.93-3.17-.77-.54,.04-.17,.33-.05,.06h-.1l-.3,.2,.56,2.2,.26,5.85,2.03,1.57,.66,1.2,.42,1.39v1.04l-.48,.62-1.72,1.41-.62,.67,1.81,.83,2.02-.46,2.13-.94,2.12-.59,2.81-.31,1.74-.71,.81-1.51,.03-2.74-.73-2.18-2.69-3.25-1.04-2.77-1.45-2.47-.35-.84-.36-5.2,1.31-23.71-6.82-28.86-.57-1.07,.61-.59-.7-1.19-.31-2.13,.18-11.53,1.17-5.99,1.52-4.54-.1-1.71,.22-2.15-.41-4.35,1.38-10.3,2.6-11.45,1.54-8.4,1.02-2.91,1.59-2.58,3.94-3.16,.54-1.13,.34-1.49,2.87-3.98,6.45-12.08,1.97-5.76,.23-3.07-.7-3.46-5-11.91-1-4.2-.92-1.6-.22-.49-4.4-15.35-.82-.72-.58,.67,.18,2.02-.79-1.15-.97-.81-1.02-.23-.94,.61,.75,.25,1.65,.88,.67,.51-1.22,1.73-1.34-.33-1.32-1.13-1.18-.62-.64-.77-1.18-3.6-1.24-.87-.26,.4-.79,.94,.77-2.17,3.51-5.16,1.6-1.7,.98-.71,1.37-.61,1.26,.21,.65,1.75,.35,1.77,1.09,2.24,.17,1.68-.72-.81-.88-.26-.97,.19-1,.55,.04,.55,.8,.43,.27-.09,.64-.45,.03,.59-.04,.44-.14,.42-.27,.52-.04-.66-.68,.91-.21,.44-.17,.55,2.9-1.38,.99-.86,.63-1.15,.16-.89,.03-1.91,.17-.88,.4-.66,1.04-1.15,.2-.43,.23-1.25,.69-1.56,.97-1.34,1.07-.61,.58-1.05,.71-1.93,.97-1.11,1.37,1.42,.73-.89,1.54-.83,.58-.96-1.2,.25-2.93,.02Zm-240.4,264.34l-.46,1.85-.72,1.27-2.7,1.19-13.4,1.15-1.32-.25-.27,.04-.19-.04-.31-.36-.14-.47v-.63l.12-.57,.24-.25,1.23-.49,.86-1.16,.43-1.6-.06-1.83-1.48-2.93-2.58-.87-2.87,.7-2.35,1.79-.94,1.25-.8,.85-1.05,.08-2.95-1.84-8.07-2.84-2.68-1.31-1.72-2.1-.52-3.59-.04-1.83,.11-.67,.37-.62,.58-.39,.58,.04,.47,.4,.22,.74,.73,.82,1.66,.52,2,.14,1.74-.25,1.98-1.53,1.21-2.13,1.42-1.96,2.65-.96,1.31-.26,1.96-.95,1.5-.27,1.62-.64,1.02-1.11,.97-.79,1.46,.34,.53-.45,.6-.14,.64,.12,.64,.34,.86,4.81-.24,.76,.34,.56,2.67,2.39,.81,.53,1.02,1.3,1.99,6.55,.31,2.44,1.87-1.94,2.16-2.78,2.35-1.76,2.45,1.1,.67,1.71,.05,2.01-.57,6.78Zm124.47,93.35l-.72,.91-3.62,3.07-2.82,.29-.49,.25-.44,.37-2.23,1.14-.85,.27-1.84-.23-1.5-1.61-1.96-.26h-1.48l-16.17-2.57-1.43,.05-1.45,.38-1.44,.18-2.12-.82h-.99l-1.91,.22-.77-.33-1.89-1.8-.95-.7-3.35-.92-3.09-.5-3.7-.05-8.02-2.28-1.31-.83-1.14-1-1.12-.78-2.52-1.31-1.39-.5-1.53-.3-2.94-.12-11.53-10.11-1.77-2.66-3-9.05-.72-1.44-3.02-4.49-1.56-1.2,.08,1.29-.74-.58-.48-.7-.24-.82,.02-.95,.44,.21,.87,.11,.54,.18-1.46-5.22-.77-1.42,.43-.47,.05-.42-.21-.45-.38-.55-.62,.04v1.12l.18,.93,.67,1.65-1.33-.87-3.18-2.93-.66-1.16,.22-.84,.56-.93,.66-.77,1.38-.83-.06-1.02-.7-1.61-.22-4.17-.73-2.19-1.64-.87-1.06-.82,.68-1.63,1.23-.74,.62,1.87,.6-.04-1.05-2.62-.89-.73-1.64-.19-.65-.69-.22-1.66,.05-1.85,.17-1.26,.84-2.88,2.48-5.79,1.55-2.15,2.42,.59,2.34-.71,1.89-1.41,1.69-.99,.05,.17,1.45,.97,6.05,2.83,2.12,.62,.74,.45,.35,.98,.43,.5,.94,.1,1.01-.19,.66-.32,.04,.61,.55-.03,1.95-1.55,2.95,1.98,4.26,4.56,.67,.53,1.87,2.54,1.13,2.31,4.52,4.01,1.85-2.04,3.81,.53,4.05,1.71,2.51,1.48,.8,1.08,.69,1.41,.86,1.2,1.33,.45,1.05,.1,.74,.42,1.33,1.4,.73,.35,1.95,.21,.69,.17,3.78,5.06,3.51,3.69,.22,.33,.26,.63,.2,.27,.29,.17,.7,.17,.26,.13,1.58,1.35,.71,.83,.85,2.3,1.1,.98,2.33,1.55,3.8,4.09,2.1,1.12,3.2,4.02,.77,.37,.58,.06,.53,.12,.62,.58,.35,.68,.25,.9,.24,1.73,.57,1.8,1.09,.96,1.25,.82,1,1.37-.18,.35-.52,.31-.27,.45,.55,.76,1.04-.3,.86-.04,.86,.48,2.68,2.34,.92,1.21,.7,2.02,.48,7.03,.43,1.89,1.28,2.85v1.65Zm129.83-298.79l.17-.04-.14-.2-.03,.24Zm.38-8.09l-.02-.06-.16,.09,.1,.13h0l.04,.04,.1-.06-.04-.15-.03,.02Zm13.47,.76l-.22-.12,.08,.31,.14-.19Zm.63-6.69l-.17-.06-.06,.12,.03,.05,.2-.11Zm-12.16,4.51l-.03,.13,.1-.02-.07-.11Zm7.96,10.85l.22,.07v-.08l-.22,.02Zm-8.57-6.85v.28l.12-.09-.12-.19Zm-1.18-2.19h.13l-.1-.17-.03,.17Zm12.43,11.16l.3-.02-.14-.33-.15,.35Zm18.41-16.82l-.1,.12h.11v-.12Zm-2.53,1.23l.11-.03,.02-.19-.13,.07v.14Zm1.45-12.88h.14l.08-.2-.21,.02v.18Zm1.02,12.16l.03,.05h.1l-.06-.17-.07,.11Zm.07-18.08l.45,.26,.08-.09-.22-.25-.31,.08Zm-1.15,17.93l.1-.14h-.24l.15,.14Zm-1-.5l.1,.06,.08-.09,.02-.19h-.19v.22Zm-.25-31.47l-.08,.24,.18,.09v-.16l-.1-.16Zm1.09,31.45l-.03,.02-.02-.06-.17,.09,.1,.13h.01l.04,.04,.1-.06-.04-.15Zm2.08-16.51l-.02-.06-.17,.09,.1,.13h0l.04,.05,.1-.06-.04-.16-.03,.02Zm-2.29,17.95l.1-.13-.16-.06,.05,.18Zm-.19-1.21l.02-.08-.09-.02,.06,.11Zm1.52,.06l.03-.18-.14,.06,.12,.11Zm10.71-11.08l-.02-.06-.16,.09,.09,.13h.02l.04,.05,.1-.06-.04-.15-.03,.02Zm-9.4-2.24h.08l.07-.18-.14-.02v.2Zm9.05,1.99l.15-.03-.18-.24,.03,.27Zm2.18,29.48l.12,.41,.3-.32-.42-.09Zm-.28-4.06h.14l-.09-.16-.06,.16Zm-.52-.21v.08h.09l.08-.09-.1-.08-.07,.09Zm-1.93-23.78l.25-.08-.29-.21,.04,.3Zm-6.02-5.92l-.02-.07-.17,.09,.1,.13h0l.04,.04,.1-.06-.04-.16-.03,.02Zm-1.32,6.47l.56,.7,.35,.25-.61-1.68-.29,.73Zm6,18.93l-.5,.7,.82,.16-.32-.86Zm.24,1.5l.28,.62,.77-1.37-.64,.14-.41,.61Zm-18.19,13.12l-.02-.06-.17,.09,.1,.13h.02l.04,.05,.1-.06-.04-.15h-.03Zm-1.98-26.35h.06l.09-.21h-.23l.08,.21Zm-.28,195.26l-.08-.33-.27-.65-.38,.25-.33,.77,.27,.34,.67,.26,.47,.43-.03-.98-.32-.1Zm-1.69-177.96l.21-.1-.25,.03,.04,.07Zm-6.98,3.05l.14-.02-.02-.24-.12,.27Zm9.12-20.92h.1l-.08-.2-.03,.2Zm-2.82,18.3h.11l-.02-.14-.1,.14Zm11.46,10.67l.24,.09,.04-.13-.29-.14v.19Zm-14.86-19.49l.16-.15-.22-.24,.07,.39Zm.39-6.57l.04,.05,.1-.06-.03-.16-.04,.02-.02-.06-.16,.09,.09,.13h0Zm2.84,15.18l.12,.04v-.11l-.12-.05v.12Zm-4.14-15.74l.05,.28,.2-.17-.26-.11Zm2.01,204.08l-.72,1.62,.31,1.98,2.33-2.97,.31-.62-1.05-.73-1.17,.72Zm-.62-197.42l.04,.05,.1-.06-.03-.15-.04,.02-.02-.06-.16,.09,.1,.13h.01Zm7.42,18.52l.05-.09-.16-.12,.11,.21Zm.56-16.59h.03l-.37-.02,.34,.02Zm6.58,17.49l-.28,.12,.26,.05,.02-.17Zm-1.88,1.8l.13,.04v-.16l-.13,.12Zm-.94,.23l-.02-.06-.16,.09,.1,.13h0l.04,.04,.1-.06-.04-.16-.03,.02Zm2.25,.46l.2-.11-.05-.09-.15,.2Zm.59-23.23l-.38-1.43-.81-.68-1.14,.07-1.37,.79-.58,.89-.23,1.04-.5,1.03-1.34,.87,.05,.35-.1,.22-.18,.09,4.62,.09,1.53-.83,.42-2.52Zm-5.76,20.64l-.02-.06-.16,.09,.1,.13h0l.04,.04,.1-.06-.04-.16-.03,.02Zm.21,.04l.11,.11v-.11h-.11Zm.14,.38l-.02-.07-.17,.09,.1,.12h0l.04,.05,.1-.06-.04-.16-.03,.02Zm.39,.79l.26,.06v-.11l-.12-.12-.14,.18Z"/><polygon class="cls-16" points="258.5 371.37 263.31 371.98 266.1 373.19 270.65 374 272.95 375.51 277.08 376.59 277.89 375.8 279.08 373.3 279.76 372.56 280.53 372.32 281.06 372.4 281.5 372.79 282.04 373.45 282.51 374.27 282.73 375.17 282.68 376.09 282.36 377 283.4 377.83 286.43 378.08 287.87 378.74 288.48 379.84 288.92 382.61 289.35 383.41 291.65 385.04 292.5 385.99 293.35 387.3 293.72 388.43 293.9 389.58 294.22 390.53 295.02 391.07 295.87 390.85 296.9 390.21 298.12 389.63 299.5 389.6 301.74 390.93 303.68 393.19 305.11 395.85 305.78 398.39 307.33 398.1 311.22 398.25 312.25 397.8 313.14 397.2 313.92 397.1 314.59 398.11 314.57 399.64 314.1 401.16 314.09 402.44 315.51 403.29 317.43 403.48 317.84 403.61 318.5 404.13 318.96 404.72 319.19 405.47 319.17 406.1 319.71 405.88 321.95 405.45 324.2 405.51 330.99 407.39 334.9 407.53 335.77 407.86 336.59 408.6 336.53 408.89 336.51 409.11 336.4 409.23 336.01 409.19 336.6 410.37 336.58 411.42 336.32 412.54 336.19 413.88 336.47 414.73 337.52 417.07 337.64 418.52 336.9 419.83 339.26 419.62 340.88 418.56 342.47 417.81 346 416.88 346.85 416.9 348.28 417.4 348.93 417.44 349.03 417.17 349 416.64 349.04 416.07 349.31 415.74 349.89 415.68 350.6 415.77 351.31 415.95 351.89 416.17 352.45 415.01 353.39 414.62 354.46 414.5 355.41 414.13 356.09 413.44 356.69 412.26 357.24 411.6 358.28 411.1 359.07 411.2 359.63 411.05 360.01 409.79 359.84 409.55 359.02 408.86 358.82 408.54 358.67 406.76 358.69 406.44 359.55 406.08 360.88 406.17 363.25 406.6 364.66 406.58 369.24 405.84 371.58 405.88 372.62 406.67 374.06 409.98 375.4 411.45 377.09 412.87 378.61 414.52 379.44 416.73 383.38 414.56 384.68 414.15 385.39 414.26 386.72 415.04 387.33 415.2 387.73 414.97 388.83 414.05 389.5 413.79 390.39 413.8 392.13 414.09 392.98 414 393.81 413.36 394.5 412.4 395.35 411.63 396.68 411.52 397.54 412.13 398.5 414.47 399.27 415.51 399.74 415.77 400.99 416.19 401.54 416.47 405.58 419.64 407.16 420.19 406.42 421.54 404.82 425.72 404.45 427.21 405.08 428.68 404.69 429.66 403.84 430.55 403.12 431.69 402.87 433.3 403.1 436.65 402.96 438.31 401.07 443.5 400.67 446.02 401.68 448.05 402.61 448.33 404.45 447.63 405.76 448.07 406.48 448.83 406.99 449.89 407.2 451.09 407.04 452.25 405.59 454.05 398.77 457.54 398.06 457.17 397.59 456.44 396.82 454.54 394.53 458.95 393.99 461.52 395.67 462.57 396.74 462.92 399.8 465.59 401.53 466.65 401.69 467.17 401.74 468.26 401.1 470.22 399.4 471.68 392.96 475.28 391.25 476.78 391 478.25 393.1 479.56 390 480.42 377.75 480.14 374.85 479.7 374.25 479.73 372.79 480.39 365.16 481.37 356.88 480.47 354.77 481.26 353.62 480.92 352.32 480.69 352.3 480.12 354.3 479.92 354.38 478.51 353.23 476.83 351.56 475.76 351.94 476.46 353.07 477.88 353.51 478.77 350.29 478.81 348.73 479.04 347.42 479.66 348.29 479.99 348.98 479.86 349.8 479.59 351.06 479.5 351.08 480.18 349.05 481.13 346.77 481.15 344.94 480.13 344.3 477.93 345.19 478.28 345.54 478.5 346.7 477.21 346.68 476.65 345.14 476.02 343.36 473.76 342.23 473.11 342.58 474.4 343.12 475.46 343.43 476.41 343.06 477.36 341.74 476.68 337.94 475.9 336.29 475.11 334.71 472.56 334.01 472.16 332.97 472.12 330.02 471.64 328.71 471.7 325.13 472.52 320.11 472.86 319.03 473.39 319.65 473.85 320.32 474.17 320.97 474.24 321.55 473.96 324.08 474.44 331.18 473.38 331.98 473.49 333.15 474.05 333.8 474.6 334.96 475.91 335.73 476.43 335.76 477.1 334.09 476.89 332.86 476.71 330.2 476.04 330.22 476.66 337.56 477.84 341.42 478.91 343.19 480.52 342.62 481.62 341.01 481.42 339.21 480.57 338 479.74 336.66 479.13 313.53 475.83 310.72 474.67 288.25 465.29 277.44 459.23 271.29 456.79 264.7 455.48 261.66 455.59 259.33 455.12 244.79 454.94 238.33 453.35 224.23 452.52 221.32 453.08 220.3 452.57 219.5 448.7 218.72 447.27 217.72 446.15 216.68 445.29 213.93 443.61 208.15 440.95 203.01 437.75 194.88 434.08 193.36 429.83 193.27 428.39 193.45 426.91 193.88 425.45 194.55 424.11 195.58 422.99 197.99 421.61 199.06 420.71 199.84 419.4 200.39 418.05 201.11 416.75 202.4 415.55 210.77 409.32 212.61 407.37 213.54 406.72 217.43 405.11 218.74 404.99 220.36 405.35 222.73 407.07 224.05 407.56 225.33 406.82 225.35 406.31 224.66 404.86 224.56 404.16 224.79 403.41 228.38 396.61 230.09 394.61 232.28 392.82 234.58 391.68 244.04 389.11 244.6 388.53 244.54 387.1 244.24 386.75 243.1 386.22 242.7 385.86 242.51 385.26 242.31 383.88 242.18 383.46 241.64 382.5 241.37 382.16 240.84 381.69 240.22 381.44 238.36 381.26 237.77 379.98 238.27 379.2 239.14 378.54 239.67 377.63 239.38 376.58 238.71 375.7 238.3 374.69 238.83 373.23 240.06 372.26 241.37 372.33 242.36 373.28 242.67 374.95 243.85 374.05 245.96 371.34 247.51 370.63 248.92 370.76 249.94 371.27 250.95 371.6 252.34 371.27 254.29 369.13 255.18 368.75 255.35 370.51 255.78 369.8 255.87 369.59 258.5 371.37"/><path class="cls-16" d="M504.32,222.86l.43,.29,.41-.52-.36-.74-.16,.52-.32,.45Zm217.49-140.15v-.6l-.62,.02,.03,.45,.59,.12Zm128.39,190.04l-.02-.06-.16,.09,.1,.13h.01l.04,.04,.1-.06-.03-.15-.04,.02Zm-3.3,4.72v-.06l-.17,.09,.09,.13h0l.04,.04,.11-.06-.04-.15-.04,.02Zm-7.83,4.53l-.02-.06-.17,.09,.1,.13h0l.04,.04,.1-.06-.04-.15-.03,.02Zm10.35,.68l-.02-.06-.16,.09,.09,.13h.02l.04,.04,.1-.06-.04-.15-.03,.02Zm-343.32-61.71l.03,.28,.4,.35,.24,.36,.34-.33-.05-.77-.48-.25-.48,.37Zm-91.55,246.36l-1.12,.2-1.41,.54,.36,.47,.58,.98,.36,.46-.61,.03,.03,.56,.39,.27,.38,.14,1.08,.12,1.95-.44,.87-1.33,.1-1.41-.31-.64-2.63,.05ZM719,82.32h.72l.81-.23-.58-.23-.62-.16-.64-.1-.66-.03,.39,.51,.58,.25Zm-166.53,95.14l1.53-1.2,1.75-.54,.91-.43,.56-1.71,1.62-.74,.56-.66v-.63l-.87-.25-3.19,.26-1.11,.58-1.3,1.25-1.03,1.43-1.41,2.91-.86,1.31,.05,1.22,2.78-2.82Zm-88.18,36.17l1.23-.21,2.3-1.05,1.34-.39h1.63l-.25-1.02,.69-1.51-.56-.54h-1.02l-1.16,.37-1.24,.24-1.32-.42-4.65,2.65-.23,1.4,1.37,.51,1.86-.03Zm-43.52,246.05l-1.3,.09-2.36,.62-.89-.22-1.1-.36-.77,.55-1.07,1.74-.14,1.58,1.95,1.05,4.15,1.15,1.27-1.34-1.22-3.51,1.51-.78-.02-.56Zm72.41-265.36l1.97-2.03,1.23-.84,1.59-.63,3.19-.93,1.49-.69,3.69-2.72,5.71-3.21,1.36-.6,.78-.09,1.49,.18,.77-.06,.52-.26,1.16-.85,.58-.31,1.53-.32,3.4-.12,1.6-.28,1.39-.57-.72-.09-3.27,.2-4.65-.87-1.56,.08-6.83,1.85-2.11,1.03-5.37,3.48-4.61,2.1-3.64,2.08-2.54,2.6,.67,2.75,1.17-.87Zm293.68,92.81l-2.51-3.24-1.74-3.47-1.76-5.63-1.12-1.61-4.67-2.98-11.89-3.66-9.63-4.26-.95-.26-1.06-.55-1.29-1.09-1.39-.65-1.38,.78-.41,1.67,1.38,.7,1.84,.46,.96,.95,.8,.52,3.82,1.14,1.41,.1-.28,.9-.18,.35,.58,.58,1.47-.75,1.3,.2,2.67,1.37,1.55-.92,1.13,.95,.74,1.66,.37,1.24,.42,.88,.52,.49,.51,.37,.4,.53,.45,.93,.05,.3-3.78,1.64-.65,.48-.48,.59-.7,1.35-.44,.53-1.64,.81-1.12-.54-.69-1.53-.31-2.16-.64,.04-.32,.59-.14,.54,.13,.58,.48,.72-.47,.43-.56,.3-.5-.12-.26-.8,.06-.95,.27-.46,.36-.31,.36-.49,.46-1.34,.42-.84,.5-.4h.75l.9,.11,.77,.26,.34,.42,.55,1.49,1.02,.33,.97-.63,.37-1.37-.17-2.68-.21-.64-.31-.37-.08-.35,.48-.57-.04-.55-1.46,.39-5.66-.74-.65-.17h-.56l-.56,.4-.08,.73,.3,2-.35,.45-3.06,.59-1.76,.64-1.3,.86-1.3,2.68-.7,.46-.88-1.69-.64,.04,.09,1.18-.4,.66-.65,.08-.68-.6-.25-.87v-3.33l-.8-2.57-.93,.17-1.15,.95-1.44-.24-.03-.55,.48-.24,.67-.67,.55-.42-.82-1.06-.94-.94-1.06-.65-2.5-.37-1.5-.56-1.23-.8-.56-.92-1.35-1.74-7.91-2.93-1.89,.81-.82,.5-.72,.72,1.05,.7,2.17,2.78,1.12,.62,6.74,1.94h.94l.81,.14,.37,.42,.33,.58,.67,.57,3.79,1.76,1.16,1-1.26,1.03-1.88,.89-1.99,.64-1.56,.28-1.83-.29-1.48-.92-1.14-1.32-.81-1.48-.03-.55,.93-.54,.55-.2,.84-.02-.03-.61-4.2,.78-1.68-.17-1.28-1.4,.64-1.47-.49-1.35-1.1-1.13-1.21-.86,.97,2.57-.76,.88-1.87-.33-2.3-1.05-1.56-1.47-1.61-2.36-.8-2.21,.87-1.05,1.8-.96-.63-1.98-1.54-2.27-1.34-2.85-.84-.44-.79,.31-.64,2.51-1.68,.91-.2,1.38-.59,.03,.12-1.08,.23-1.01-.06-.74-1.62-.47-.59-.66-.79-1.99,1.04,.07,1.5,.26,1.03,.02,1.45-.58,1.12-.29,.99,.1,1.02,1.01,2.88,4.87,.58-.04,.17-.32,.09-.1,.09-.07,.21-.21-1.17-1.22-1.1-1.57-.64-1.5,.18-.98,.64-.16h1.02l.94,.08,.42,.18-.16,.59-.45,.58-1.03,1.04,2.45,.71,.56,.34,1.16-.89,.58-.81,.78-.61,1.76-.33,1.13,.46,1.27,.96,1.2,.61,.92-.52,.58-.04,3.04,3.03,.81,1.06-.41,.16-.35,.29-.39,.17,1.07,.93,1.16,.19,2.62-.13,.83,.32,1.7,1.06,2.49,.69,3.43,2.38,1.56,.5,1.26-.24,.55-.49-.1-.69-.64-.83-.79-.36-3.08-.33-1.61-.59-1.65-.84-6.07-4.87-5.11-3.58-9.32-8.01-10.5-7.39-5.23-5.28-2.8-1.27-.78-1.23-.73-.7-1.12-.28-11.76-.27-13.8-1.98h-1.07l-.59,.66,1.14,.49,13.28,1.8,1.76,1.13-4.2,.23-1.93,.8,.37,1.68-4.47,.49-1.86-.36-.85-1.82-.52-.57-.91,1.11-.68,1.56,.19,.76-1.74,.21-.67-.29-.9-.95-.73-1.37-.48-1.82,.13-1.62,1.53-1.04-.75-.56-1.88-.87-3.03-.44-14.62-5.3-10.4-2.47-6,.52-7.45,5.45-2.52,1.14-2.98,.74-13.62,1.28-10.9,1.51-3.61-.23-3.22-.59-5.66-1.86-1.28-.24-1.33-.53-1.44-1.03-1.19-.5-.56,1.07-.19,.18-.26,.17-.16,.29,.08,.6-.64,.03-.28-.97-.04-1.21-.27-1.02-.99-.39-1.41-.23-2.2-1.19-1.23-.24-4.83-.4-2.45-.65-1.47-.99-.94,.53-1.88,.43-.66,.5-7.3-1.68-2.24,.29-.37,1.01,2.66,.55,5.52,.53,1.46,1.74-.67,2.2-1.74,2.12-3.25,2.61-.86,.49-1.08,.36-12.37,1.03-2.98,.87-2.94,1.34-.94,.85-2.04,2.47-8.02,5.5-1.42,.73-1.7,.35-2.12-.03-1.38-.3-2.25-1.31-2.71-.97-2.89,.04-16.91,2.21-3.7-.15-.44-.29-1.07-.56-1.09-.33-.47,.43-.34,.18-1.4,1.18-.23,.28-1.53,.32-5.27,1.81-3.31,.48-3.12-.14-9.35-1.74-8.11-.56-7.95-2.44-9.09-1.71-1.72,.25-1.28,.84-.45,1.55-.44,.39h-2.27l-.84,.09-.4,.44-.84,1.5-.46,.53-2.78,.65-2.68-1.03-8.43-7.09-.51-.61-.77-.59,.55-1.42,1.58-2.34-2.95,1.96-.86,1.06,.92,.83,.02,.56-1.48-.08-3.96-2.19-1.48-.46-1.56-.14-1.23,.43-.45,1.29-1.55,.5-7.49,.77-2.54,.96-1.4,1.08-1.44,.49-3.69,.21-.3,.29,.39,.62,.81,.61,.98,.25,.51,.39-.16,.9-.59,1.24-4.98,3.26-3.45-.35-.86,.32,.51,1.4-2.09,1.45-4.88,5.58-2.27,1.1-2.16-.6-4.06-2.69-.58-.22-1.02,.42-.25,.82,.11,.98-.54,1.22-.57-.65-1.48,.69-1.26,.75-1.37,.56-1.84,.1-.48,.68-2.49,4.64-3.94,4.12-8.62,7.24h0l-7.47,6.19-7.44,6.15-14.81,12.23-10.85,8.95-3.02,1.55-8.85,3.26-2.66,1.45-1.74,1.52-1,1.67-1.27,4.23,1.77,1.55,.07,2.39-1.01,2.61-1.46,2.21-2.13,1.96-.66,1.08-.03,1.71,.46,1.25,.81,1.15,1.85,2.09,.87,1.34,1.79,3.96,1,1.21,.83,.69,.56,.8,.21,1.54-.2,.72-.91,1.05-.3,.58,.52,4.56v1.61l-.36,1.52-1.01,1.02-1.02,.11-2.25-.69-1.09-.16-1.5,.24-.66,.47-.41,.72-.77,1.02-2.69,2.47-1.19,1.37-.83,1.61-.7,.8-1.95,.56-.89,.62-.54,1.2-.11,1.44,.28,2.82,4.81,.61,2.79,1.21,4.55,.81,2.3,1.51,4.13,1.08,.81-.79,1.19-2.5,.68-.74,.77-.24,.52,.08,.45,.39,.53,.66,.47,.82,.22,.9-.05,.92-.32,.91,1.04,.84,3.03,.25,1.44,.66,.6,1.1,.45,2.77,.43,.8,2.3,1.63,.85,.95,.84,1.31,.37,1.12,.18,1.16,.32,.95,.8,.54,.85-.22,1.03-.65,1.22-.58,1.38-.02,2.24,1.32,1.94,2.26,1.43,2.66,.67,2.54,1.55-.29,3.89,.15,1.04-.45,.89-.59,.77-.11,.67,1.01-.02,1.53-.48,1.52v1.28l1.41,.85,1.91,.19,.41,.13,.66,.52,.47,.59,.23,.75-.02,.63,.54-.22,2.24-.43,2.26,.06,6.79,1.88,3.9,.14,.88,.33,.82,.74-.06,.29-.02,.22-.12,.12-.39-.04,.59,1.18-.02,1.05-.26,1.12-.13,1.34,.28,.85,1.05,2.34,.12,1.45-.74,1.31,2.36-.21,1.62-1.06,1.58-.75,3.53-.93,.85,.02,1.43,.5,.66,.04,.09-.27-.02-.53,.04-.57,.27-.33,.58-.06,.71,.09,.71,.18,.58,.22,.56-1.16,.94-.39,1.07-.12,.95-.37,.68-.69,.6-1.18,.55-.66,1.04-.5,.79,.1,.56-.15,.37-1.26-.17-.24-.82-.69-.2-.32-.15-1.78,.02-.31,.86-.36,1.33,.09,2.38,.43,1.4-.02,4.59-.74,2.34,.04,1.05,.8,1.44,3.3,1.34,1.47,1.69,1.42,1.51,1.65,.83,2.21,3.94-2.17,1.3-.42,.7,.11,1.34,.79,.61,.16,.4-.23,1.1-.92,.67-.26,.89,.02,1.74,.29,.84-.1,.83-.64,.7-.95,.85-.77,1.33-.12,.86,.62,.96,2.34,.76,1.04,.47,.26,1.26,.42,.54,.27,4.04,3.17,1.58,.56-.74,1.35-1.6,4.17-.37,1.49,.63,1.48-.39,.98-.85,.88-.72,1.14-.25,1.61,.23,3.35-.13,1.66-1.89,5.19-.4,2.52,1.02,2.03,.93,.28,1.84-.7,1.3,.44,.72,.76,.51,1.06,.21,1.19-.16,1.17-1.45,1.8-6.81,3.48,1.34,.44,.61,.11h.86l.33,.27,.02,.62,.18,.61,1.71,.49,2.13,1.17,1.59,.23,2.47-.79,2.32-1.87,1.19-2.46-.93-2.53,.82-1.06,1.19-1.09,1.09-.28,.54,1.34-.22,2.56,.33,.97,1.23,.42-.88,2.3-.12,.89,.6-.02,1.09-1.17,1.56,.06,1.76,.54,1.69,.28,.02,.56-1.27,.06,.03,.63,.86,.32,.79-.06,1.36-.4,3.08-.09,.56-.09,.82-.77-.09-.49-.33-.65,.11-1.22,.4-.9,.44-.5,1.45-1.17,.88,.82,.7,.11,1.77-.41,.81,.13,.63,.4,1.35,1.13-.09,.63v.53l.18,.75-2.78,1.24-1.38,.41-1.21-.21-.62,.61-1.65,2.59-.76,.72-1.44,.75-.73,.52-.72,.89-.13,.75,.34,.71,.66,.79,.44,.1,.59-.16,.51-.06,.24,.37,.12,.06,.61,1.42,1.84,2.17,1.86,3.06,1.38,3.51,.41,3.47,.55-.02,1.62-.58,2.91,.17,5.2,1.11-.89,.31-2.68,.54-.56,.25-.09,1.45,.16,.47,.61,.87,1.23,1.25,1.37,.71,1.79,.26,2.44-.03,.03,.56-1.19,.51-.92,.7-.59,.91-.22,1.17-.83,.64,20.13-2.3,1.31,.07,2.1,1.15h1.05l.41-1.48,1.8-1,2.19-1.54,.95-1.13,1.91-3.34,.48-.42,1.27-.72,.42-.49,.2-.89-.37-.31-.51-.2-.25-.56,.51-4.78-.16-.22-.74-1.41-.19-.52,.14-.25,.51-2.57,.56-1.23,.67-.92,4.05-3.85,1.13-.86,1.39-.48,1.53,.05,5.2,2.24,.84,.22,.83-.27,1.22-.92,1.16-1.18,.62-1.22,.13-1.4-.66-2.55-.22-.54-.7-1.11-.59-.49-.61-.12-.54-.24-.38-.88,.07-1.3,.99-2.54,.08-1.42-3.39-10.65-.12-1.53,.41-2.91-.13-1.43-.37-.57-1.17-.8-.37-.45-.2-.8,.02-6.38,.15-1.26,.12-.56,.41-.38,.98-.75,1.94-1.1,1.84-.25,3.86,.29,7.1-1.72,3.46-.38,2.99,1.45,1.58,.36,1.26-.47,1.15-.69,1.27-.24,1.46,1.35,.54,.34,.85,.23,.62,.06,4.51-.53,1.6-.47,1.28-.71,.96-1.21,.44-1.38,.55-2.69,1.27-2.27,5.43-6.46,2.79-4.87,.88-.65,1.02-.46,1.03-.61,.97-1.12,.57-1.17,.3-.88,.42-.81,.94-.94,1.17-.69,6.65-1.34,.03,.99-.84,1.98,.37,2.37,6.43,4.15,2.03,2.41,.62,.51,1.24,.35,.8-.21,.77-.37,1.2-.14,1.97,.75,1.11,1.5,.96,1.79,1.48,1.62,1.98,.57,2.05-.18,1.79,.05,1.24,1.24,.23,.08,.75-.78,.65-1.48,.11-1.4-.55-1.01-1.34-.34-.37-.75,.27-1.75,.72-2.74v-1.98l.4-.51,.92,.16,1.55,.02,1.09-.59,1.69-1.63,.76,.18,.54-.02-.06-.42,.13-.11h.24l.26-.12-.34-.92,3.01-1.1,.81-.93,.76-1.29,1.88-.74,2.17-.51,1.61-.63,.74-1.27,.12-1.44,.44-1.21,3.1-1.04,1.44-.95,2.16-1.9,.94-1.31,.87-1.78,.63-1.74,.51-2.32,.76-1.45,.93-1.37,.8-.85,.37-.09,.95,.09,.37-.09,.22-.3,.21-.67,.58-.78,.32-.62,.45-.53,.8-.25,2.02-1.15,.9-.24,3.3-.19,2.14-.5,2.14-.84,1.73-1.18,.92-1.54-.19-2.03-1.23-1.72-1.63-1.33-1.46-.84,2.28-1.97,.06-.57-.27-1.36,.07-.57,1.89-2.25,.28-.6-.08-4.53,.24-2.5,.63-1.31,1.61,.32,1.47,1.45,1.55,1.02,1.79-.97,2.93-3.28,.55-1.54-2.25,.13,.48-.72,1.81-1.92-2.56-1.61-.51-.84,1.34-.45,.44-.23,.25-.55,.27-3.33,.7-1.44,1.13-1.18,1.47-1.12,1.5-1.2,3.77-4.07,1.38-.91,5.14-1.24,2.28-.23,2.29,.55,2,1.31,1.4,2.04-.26,.27-.63,.91-.03,.18,1.74,.12,.29,1.06v1.19l1.83,1.1,.99,1.44,1.48,2.98,1.55-1.05,1.68,.08,3.45,1.25,1.99,.31,6.35-.18-.29,.65-.16,1.76,1.29-.48,.95,.45,.95,.72,1.35,.32,.94-.34,2.18-1.39,3.17-1.33,1.48-2.06,1.07-2.32,1.04-1.75,.9,.81,.76,2.28,.69,.43,1.34,.04,2.13,.35h.97l1.73-1.03,.32-1.99-.7-4.16,.41-1.08,1.09-.14,1.23,.35,.81,.39,.7,.52,2.18,2.08,1.08,.37,1.27-.18,2.08-.74,.5-.33,.32-.45,.42-.4,.78-.22,.74,.08,.42,.19,.37,.02,.57-.41-.04-.67-.81-.69-.65-.78-1.13-2.03,.9-.85,.63-.08,2.06,1.14,.25,.4,.34,.3,.92,.07,1.46-.14,.46,.22,.21,.68,1.5,.09,8.54-.98-.49-.7-.03-.82,.3-2.06,1.08,.52,1.49,1.4,1.12,.23-.13-.37-.48-.81,.64,.22,.35,.08,.31,.2,.54,.61,1-1.01,1.49-.95,1.68-.66,1.6-.11-.7-.41-.45-.41-.69-1,4.81-.59,1.76-.81-.27-1.37,1.09-.14,.9,.07,.66,.36,.37,.74,.65-.04-.99-2.5,.27-1.01,1.57-.87,1.69-.34,1.93-.02,1.62,.37,.79,.89,.65-.04,.3-1.11,.11-1.21,.36-.99,2.07-.93,2.05-1.85,1.23-.45-.19-.3-.27-.62-.21-.26,1.3,.29,.51,.21-.34-1.18,.04-1.04,.46-.41,.9,.73-.04-1.35,.11-.56,.42-.62-.64-.82,.26-.47,.87-.15,1.15,.12,.48,.41,1.16,1.55,.82,.39,2.02-.37,1.68-1.16,1.26-1.57,.73-1.59,1.13,.79,1.14,.37,.94,.5,.52,1.15,1.25-.94,1.48-.19,3.84,.16-.99,.57-.04,.47,.66,.4,1.08,.34,.35-.09,3.84-.19,2.21-1.19,1.19-.31,2.93-.02,1.2-.25-10.95-3.54-2.76-1.94Zm-9.27-85.6l-.19-.25,.05,.29,.14-.04Zm.44,.29l-.35-.32,.22,.43,.13-.11Zm3.88,6.19l-.15-.1-.07,.13,.13,.04,.09-.07Zm1.69,2.48l-.13,.15,.08,.06,.05-.21Zm-.52,.72l-.06,.12h.08l-.02-.12Zm.3-.03l-.02,.14h.05l-.04-.14Zm.63,.2l-.06-.19-.06,.18,.03,.08,.1-.07Zm.16,.83l.06-.21-.15,.02,.05,.13,.03,.05Zm-3.6,4.7l-.32-.21,.3,.24,.02-.03Zm.07,.14l-.05-.08-.03,.08h.09Zm.99,1.72l-.17-.02,.12,.24,.05-.22Zm60.78,48.97h.09l-.25-.38,.16,.38Zm-6.01,1.46l-.16,.41,.17,.15,.11-.21-.12-.35Zm8.51,.32l.05-.38-.37,.07,.32,.31Zm1.27,2.15l.17,.08,.1-.04-.04-.38-.23,.33Zm-4.41,1.01l.06-.36-.27,.25,.21,.12Zm7.17,.01l.26-.22h-.4l.14,.22Zm1.8,1.04l.03-.06-.22-.18,.19,.24Zm.31,1.1v.31h.18l-.18-.31Zm-14.52,1.52l.33-.33-.44,.15,.11,.18Zm9.28,1.79l.13,.14,.07-.09-.05-.26-.14,.21Zm-63.39-69.84l.04,.05,.1-.06-.04-.16-.03,.02v-.06l-.18,.09,.09,.13h.02Zm1.99,3.54l.04,.05,.1-.06-.04-.16-.03,.02-.02-.06-.17,.09,.1,.13h0Zm-3.75,5.57h.01l.04,.04,.03-.02,.12,.11,.02-.18-.07,.02-.03-.14-.04,.02v-.06l-.17,.09,.09,.13Z"/><polyline class="cls-16" points="268.18 62.91 267.81 83.93 267.46 104.97 267.12 126.01 266.79 147.05 266.48 168.11 266.19 189.18 265.91 210.25 265.65 231.33 265.59 236.87 266.35 238.03 266.54 237.74 267.36 237.3 268.38 236.93 269.17 236.86 270.76 236.16 277.48 236.29 279.97 235.79 282.78 235.69 290.58 237.47 293.94 236.1 295.17 236.62 298.21 239.02 301.23 238.18 305.12 238.93 308.15 240.59 308.54 242.48 310.54 242.74 319.54 248.02 318.59 252.13 318.79 252.72 321.16 252.65 322.1 252.26 322.35 251.48 322.22 250.81 322.02 250.72 321.98 250.34 321.67 250.03 321.38 249.62 321.37 248.94 321.81 248.79 322.62 248.86 323.4 248.7 323.73 247.89 324.03 246.42 324.76 245.4 325.56 244.6 326.05 243.79 326.11 242.4 325.38 240.28 325.24 238.87 325.9 238.86 325.89 239.8 325.93 240.09 326.48 240.07 327.49 239.36 330.06 239.77 331.29 239.25 329.2 237.43 328.05 236.61 326.42 235.93 325.71 235.04 325.1 234.03 324.47 233.28 320.64 231.28 319.52 229.97 320.74 228.45 322.1 229.19 324.61 230.2 325.64 230.77 328.27 233.37 330.13 234.37 334.83 238.05 343.98 241.98 347.02 244.55 347.97 244.94 351.93 248.2 355.02 249.4 354 249.82 353.75 250.64 353.86 251.62 353.32 252.84 352.75 252.19 351.26 252.88 350 253.63 348.63 254.2 346.79 254.29 346.31 254.97 343.82 259.61 339.88 263.73 331.26 270.97 331.26 270.98 323.79 277.16 316.35 283.31 301.54 295.54 290.7 304.49 287.67 306.04 278.82 309.3 276.16 310.75 274.41 312.27 273.41 313.94 272.14 318.17 273.91 319.72 273.98 322.11 272.97 324.72 271.51 326.93 269.38 328.89 268.72 329.97 268.69 331.68 269.15 332.93 269.95 334.08 271.8 336.16 272.67 337.51 274.46 341.47 275.47 342.68 276.3 343.36 276.85 344.16 277.06 345.7 276.86 346.42 275.95 347.46 275.66 348.04 276.18 352.61 276.18 354.22 275.82 355.73 274.81 356.75 273.8 356.87 271.55 356.17 270.46 356.01 268.96 356.26 268.3 356.73 267.9 357.45 267.13 358.47 264.43 360.94 263.24 362.31 262.41 363.92 261.71 364.72 259.76 365.28 258.87 365.9 258.33 367.1 258.22 368.55 258.5 371.37 255.87 369.59 255.78 369.8 255.35 370.51 255.18 368.75 254.29 369.13 252.34 371.27 250.95 371.6 249.94 371.27 248.92 370.77 247.51 370.63 245.96 371.34 243.85 374.05 242.67 374.95 242.36 373.28 241.37 372.33 240.06 372.26 238.83 373.23 238.3 374.69 238.71 375.7 239.38 376.58 239.67 377.63 239.14 378.54 238.27 379.2 237.77 379.98 238.36 381.26 240.22 381.44 240.84 381.69 241.37 382.16 241.64 382.5 242.18 383.46 242.31 383.88 242.51 385.26 242.7 385.86 243.1 386.22 244.24 386.75 244.54 387.1 244.6 388.53 244.04 389.11 234.58 391.68 232.28 392.82 230.09 394.61 228.38 396.6 224.79 403.41 224.56 404.16 224.67 404.86 225.35 406.31 225.33 406.82 224.05 407.56 222.73 407.07 220.36 405.35 218.74 404.99 217.43 405.11 213.54 406.72 212.61 407.38 210.77 409.32 202.4 415.55 201.11 416.75 200.39 418.05 199.84 419.4 199.06 420.71 197.99 421.61 195.58 422.99 194.55 424.11 193.88 425.45 193.45 426.91 193.27 428.39 193.36 429.83 194.89 434.08 191.75 433.49 167.81 423.53 158.2 420.59 153.5 419.67 151.14 419.51 146.08 418.57 129.22 419.12 106.21 421.05 99.15 420.44 85.31 417.1 64.29 409.21 59.19 405.91 56.56 405.03 53.06 401.79 31.95 389 19.09 377.78 1.27 365.31 3 364.99 4.59 363.02 6.48 357.56 8.35 353.98 8.68 352.57 8.57 350.83 6.93 346.32 6.86 345.66 6.96 344.32 6.9 343.6 6.04 341.34 5.83 340.58 5.73 338.64 6.16 337.53 7.99 335.34 8.97 332.57 8.64 326.85 8.9 323.82 9.95 322.75 11.06 322.42 12.21 322.27 13.38 321.75 14.28 320.68 15.99 316.59 4.26 301.7 3.57 300.22 3.52 298.5 4.09 296.89 5.71 294.03 9.98 286.5 16.01 275.87 22.91 263.68 29.81 251.5 35.82 240.89 40.07 233.38 41.68 230.53 43.65 227.05 44.7 225.69 46.12 224.96 50.13 224.91 62.34 224.76 74.53 224.6 86.72 224.43 98.9 224.25 111.07 224.07 123.24 223.86 135.39 223.64 147.54 223.41 155.44 223.26 157.16 223.03 158.74 222.42 159.08 221.93 159.65 220.62 159.89 219.86 159.39 220.08 159.17 220.15 159.02 220.23 158.7 220.56 158.05 220.57 157.67 219.02 159.77 217.21 158.62 216.15 158.61 215.58 160.54 214.75 159.94 213.84 157.35 212.44 156.99 210.72 157.59 209.46 158.66 208.62 159.68 208.1 158.49 207.65 157.61 206.97 157.45 206.07 158.43 204.96 158.82 205.34 159.1 205.47 160.24 205.61 159.9 205.13 159.34 204.13 159 203.65 159.41 203.69 159.51 203.56 159.51 203.33 159.59 203.07 160.12 203.42 160.86 203.62 161.39 203.38 161.38 202.42 160.84 202.65 159.56 202.19 158.65 201.56 159.26 201.21 160.87 200.66 162.15 199.39 162.64 197.92 161.89 196.76 161.29 196.77 161.3 197.45 160.7 197.46 160.9 196.17 161.73 195.68 162.93 195.75 164.28 196.1 163.23 194.41 163.11 193.89 163.07 192.7 162.87 191.4 162.37 191.28 161.6 191.65 160.6 191.81 160.08 191.58 159.42 191.16 158.52 190.78 155.74 190.47 155.51 189.95 155.61 189.17 155.14 188.17 154.61 187.68 153.76 187.1 152.78 186.84 150.69 187.89 150.13 187.08 149.69 185.15 148.84 185.16 146.57 185.87 146.11 186.11 145.58 185.83 144.35 185.6 142.93 185.57 141.85 185.9 142.3 185.02 143.07 184.35 143.67 183.66 143.6 182.7 142.58 182.1 141.23 182.03 140.46 181.7 141.16 180.3 140.83 178.84 141.38 177.29 141.64 175.99 140.44 175.28 140.19 175.89 139.9 176.2 139.45 176.36 138.71 176.5 138.71 175.93 139.83 173.79 138.58 170.53 132.53 162.05 131.25 161.05 128.08 159.52 126.77 158.46 127.06 157.37 127.05 156.76 125.84 156.09 125.03 156.79 124 156.8 117.93 155 116.3 154.07 113.72 151.52 111.89 150.66 113.28 149.13 113.06 148.42 111.86 148.23 110.34 148.24 110.19 148.62 110.52 149.45 110.62 150.29 109.76 150.68 109.3 150.43 108.18 149.25 107.67 148.84 104.3 147.67 103.24 146.76 102.83 144.87 102.33 143.91 99.2 140.21 98.85 139.41 98.38 137.67 97.91 137.11 96.98 136.94 94.87 137.19 93.99 136.83 90.84 133.45 90.02 132.2 89.64 131.28 89.17 129.67 88.8 129.03 87.98 128.57 86.19 128.11 85.84 127.53 85.65 126.12 85.14 124.48 84.37 123.04 83.41 122.23 81.01 122.12 78.66 122.51 76.87 122.22 76.15 120.05 74.8 119.33 72.08 118.78 70.03 117.86 70.4 116.43 71.05 116.3 109.5 116.27 109.18 66.18 109.88 65.4 111.67 64.88 115.43 64.86 134.58 64.71 153.72 64.54 172.83 64.34 191.94 64.11 211.02 63.85 230.09 63.57 249.15 63.25 268.18 62.91"/><path class="cls-16" d="M365.38,41.09l-.16,1.59,.67-1.45-.5-.13Zm-1.57,16.61l.7-.33-.95-.13-1.34-.07,.55,.73,1.03-.2Zm1.39,12.14l-.44,1.45-.02,1.48,.5-1.3-.05-1.63Zm-2.34,46.72l-.6-.35-.36,.78,.02,.77,.2-.03-.02-.19,.47-.38,.28-.6Zm49.33-.13l.35,.1,.16-.18-.4-.25-.1,.33Zm-44.63,16.82l.24,.51,.22,.05-.24-.95-.22,.39Zm-2.02,2.82l.17,.13,1.07-.48-.7-.11-.54,.46Zm-2.65,9.3l.2,.62,.39-.85-.53,.25-.06-.02Zm-.34-.37l.22,.33,.12,.04-.49-1.55,.16,1.18Zm-.94,4.97l.31,.43,.09,.26h.19l-.31-1.25-.28,.56Zm27.23,8.09l.74-.29,.47-.9-.81,.53-.4,.67Zm-32.32,5.62l.1,.34,.07,.39,.25,.27-.12-1.23-.3,.23Zm-9.53,14.25l-.39,.72,.2,.06,.29-.16,.93-.14-.27-.47-.76-.03Zm21.49,6.97l.28-.05-.14-.29-.14,.34Zm-12.23,20.02l.03-.09-.11-.24,.09,.32Zm-5.6,10.25l.23,.23,.02-.06-.02-.29-.23,.12Zm-5.96-4.48v-.06l-.18,.09,.09,.13h.02l.03,.05,.11-.06-.03-.16-.04,.02Zm9.58-127.13l-.18-.71-.41,.48-.51,1.06,.06,.68,.48-.4,.37-.75,.18-.35Zm-1.12,1.56h-.19l.13,.52,.14,.67,.05,.44,.1-.15,.19-.06,.37-.36,.02-.47-.3-.55-.51-.03Zm60.42,6.81l-.92-.12-.71,.64,.03,.52,1.29,.53,.42-.24,.27-.62-.37-.72Zm-50.52,51.47l.09,1.08,.13,.45,.37-1.11v-1.15l-.59,.73Zm3.54-76.45l-.31-1.54,.09-1.62,.34-.85-.43,.07-.41,.84-.05,1.05-.14,.84,.44,.38,.07,.61-.34,.51-.39-.15-.31,.88,.18,.48,1.27-1.5Zm39.76,49.96l-.06,1.41,.32-1,.91-1.13,.04-.56-.66-.4-.54,1.67Zm-38.74,8.89l-1.46,.18-.48,1.41,.59-.42,.94-.07,.36,.03,.2-.71-.14-.42Zm-55.39,82.26l-.02-.33-.62,.8-.04,.45-.4,.22,.25,.33,.39,.34,.3-.44,.16-.34,.44-.42-.62-.43,.16-.18Zm44.6-120.24l-.16-.26-.68-.41-.53,.09,.19,.78,.38,.51,.57,.53,.23-1.24Zm6.68,11.18l.11,.59,.62,.88,.63-.7-.74-1.26-.63,.5Zm-.21,9.16l-.47-.96-.27,.17-.24,.9v1.71l.23,.69,.1-.09,.49-.87,.16-1.56Zm14.7-81.46l.28-.91,.04-.46-.06-.36-.31-.15-.23-.02-.3-.05-.03,.15,.15,.38-.04,.19-.28-.21-.32,.55-.2,1.54,.51,.41,.79-1.07Zm-6.27,9.09l.3,.05,.7-.55,.47-.94-.09-.96-.21-.36-.14,.13-.15,.34-.15,.5-.44,.41-.44,.26-.14,.32,.15,.36,.13,.46Zm-1.39,1.4l.68-.63,.16-.94-.27-.25-.48,.23-.26,.02-.42,.3-.6,.9,.27,.56,.92-.19Zm-8.44,54.55l.18,.74,.59,.05,.34-.82v-.55l.23-.42,.16-.89-.85-1.16-1.64-1.18-1.3-.47-.57,.4v.53l.27,.24,.3,.44,.51,.61,.76,.33,.69-.12,.12,.4,.17,1.87Zm1.59-14.49l-1.21-.97,1.24,4.96,.83,2.11,.45,.86,.59-.02-.99-4.77-.91-2.17Zm21.14,20.23l-1.05,.99,.99,.9,.37,2.26,.09,5.46,.18-.47,.21-.36,.32-.26,.48-.17,.04,.31v.93l.59-.02-.08-2.13,.12-.89,.38-.68-1.59-4.28-1.05-1.57Zm-22.76-26.6l.72-2.95-.99,.48-4.81,3.49-1.79,.88-.45,.55-.12,.27,.02,.43,2.8-.33,2.67-.97,1.97-1.85Zm24.47,13.7l-1.23-.26h-1.04l-.8,2.47-.02,.57,.65,.06,.79-.48,.93-.88,.76,1.12-.1,1.9-.63,1.79-.8,.81-1.08-.12-1.3-.5-.88,.1-1.71,1.89-1.47,1.15-1.08,1.06-.66,1.44-.28,4.33-.7,3.2-.15,1.91-.11,.33-.03,.31-.1,.31-.31,.31,1.27,1.2,.04-1.28,.37-1.14,.41-.92,.2-.66,.42-4.04,.55-2.21,.97-1.12,1.06-.88,.84-1.49,1.77,1.28,1.22-.85,.83-1.56,1.09-1.57,1.69-3.56,.31-1.38-.58-1.78-1.09-.86Zm-10.35-43.28l-.54,.02-.1,.8-.18,.54-.77,1.2-.67-1.27-.02-.61,.72-.38,.48-.49,.31-.68,.18-.95,.59,.25,.6,.39,.79-1.64,1.63-4.89,.6-1.03,1.12-1.08,.09-2-.9-1.21-1.85,1.31-1.37-.54-.82,.82-1.15,4.77-.03,.88-.16,.71-.4,.43-.39,.34-.18,.4-1.43,5.66-.29,2.81,1.36-.11-.38,2.33-1.08,1.6-3.07,2.34-.28,.04h-.9l.02,.61,3.69-1.12,2.62-2.7,1.58-3.63,.58-3.9Zm-25.63,45.63l-.84-.73-.68-1.35-3.12-1.49-1.08-1.07-.44-2.15,.34-1.94,.87-1.68,2.17-2.73,.65-1.53,1.91-7.5,.85-7.51-.58-2.31,3.39-7.14,1.45-1.04,3.02-8.35,.24-1.41,1.15-2.18,.24-1.42,.47-8.27-.96-10.62-.3-.48-.83,.17-.87,.41-.69,.51-.62,1.09-.74,.33-.62-.2v-.97l.37-.4,1.94-.89,1.67-1.36,.45-.84,.13-1.27-.45-.33-1.01,.17-2.95,.98-2.55,1.87-1.82,.32-1.14-.32-2.52-1.17-1.93-.22-1.41,.3-1.34,.67-2.8,2.12-1.41,1.67-.75,.56-.66,.06-.26-.4,.45-.8,1.91-2.54,.77-1.41,.45-1.32-4.08,1.95-1.22-.04-1.02-1.38,.6-1.31,6.54-4.96,1.63-2.24-1.52-1.32v-.33l-.56-.08-5.32,.17-.65,.2-.5,.29-.5,.1-.66-.38-.84-.78-.45-.15-.58,.17-.92,.49-1.7,.66-.76,.12-.89-.23-.8-.42-.87-.08-2.62,2.13-.64,.68-.42,.98-.41,2.74-.73,2.18-.29,2.29-.27,1.04-1.03,1.71-2.59,3.13-.8,1.47-.29,1.54-.12,1.43-.3,1.37-.84,1.38-1.01,.81-2.49,1.26-2.41,1.87,.32,.25,.33,1.25-.27,1.02-2.07,3.65-.22,.9-.22,2.04-.25,.98-.81,1.35-1.02,.8-1.16,.71-1.26,1.1-.39,.82-1.16,3.56-.79,.97-4.34,3.41-.37,.66-.35,2-.5,.74-.77,.24-3.51-1.96-1.13-.83-1.24-2.51-.82-.17-.98,.23-1.03-.09-1.48-1.09-1.32-1.42-1.45-1.26-1.86-.61-7.13,2.75-1.8,2.67-.57,3.59,.23,7.87-.37,21.02-.35,21.04-.34,21.04-.33,21.05-.31,21.05-.29,21.07-.28,21.07-.26,21.08-.06,5.54,.76,1.16,.19-.3,.82-.44,1.02-.37,.79-.07,1.59-.71,6.72,.13,2.49-.5,2.81-.1,7.81,1.78,3.35-1.37,.26-2.13-1.94-3.72,.24-2.26,.95-1.27,1.43-1.24,1.49-.96,2.26-.73,.22-.78-.09-1,.18-1.01,.38-.57,.41-.48,.95-.85,.83-.51,.74-.32,.52-.47,.33-1.58,.41-.71,.5-.59,.44-.25,1.52-.33,1.21-.88,.79-1.4,.27-1.89-.29-3.5,.33-1.43,1.22-.62,1.16-.19,.62-.39,.4-.44,.5-.35,2.93-.5,.63-.22,.23-.62-.09-1.59,.11-.32,.3-.11,.73-.16,.74,.05,.35,.5,.58,1.15,1.23,.71,1.22-.32,.55-1.98,.59-.02,.11,3.76,.37-1.45,.18-.36,.39-.23,1.05-.27,.37-.23,.23-.06,.72,.1,.24-.07,.05-.27-.14-.76,.05-.26,.23-.44,.32-1.2,.25-.49,2.2-3.07,.67-.41,.33-.45,1.03-2.74,.34-.46,.1-.23,.17-.2,.55-.38v.15l.3,.14,.46-.02,.48-.31-.05-.44,.09-2.16,.16-.5,1.61-.8,1.68-3.63,1.6-1.27-.59-1.12,.13-1.08,.62-.93,.91-.65-.02-.56-.91,.06-.47-.09-.23-.37-.22-.78,.82,.32,.53,.06,.46-.14,.57-.31-1.23-.54-.58-.08,1.83-2.26,2.17-5.98,2.26-1.24-.52,.92-1.42,1.59-2.42,10.33,.31,1.4,.59-.07,.59-.82,.34-.84-.66-2.26,.26-1.6,.44-1.14,.88-3.72,.84-1.17,.74-.81,.52-1,.6-6.42-.12-.88-.44-1.41-.13-1.07,.17-.95,.4-.63,.42-.46,.18-.44,.16-.82,.43-.56,1.08-.91,.36-.08,1.16,.12,.32-.1,.06-.52-.24-.4-.3-.23h-.16l-.38-1.55-1.77-2.62-.44-1.64,.38-1.46,.95-1.6,1.14-1.4,.92-.9,.85-.33h.77l.54-.25,.17-1.05-.56-2.18-.3-2.84-.48-1.95-.77-1.73-1.09-1.33-1.87-.57-.84-.44-.37-1.11-.52-2.07-.11-.97-.39-1.71-.66-1.89,.2-3.55,.04-1.89,.59-9.17,3.26-12.03,.18-1.41,.98-.83,2.23,.27,2.23-.04,.99-1.78-.83-.72-3.64-.54Z"/><polygon class="cls-23" points="775.74 727.51 775.74 756.51 760.12 723.05 775.74 727.51"/><polygon class="cls-22" points="775.74 727.51 775.74 756.51 791.35 723.05 775.74 727.51"/><circle class="cls-23" cx="775.74" cy="682.9" r="49.82" transform="translate(-206.07 360.16) rotate(-23.16)"/><g class="cls-15"><rect class="cls-11" x="711.42" y="642.74" width="133.85" height="80.31"/><rect class="cls-1" x="711.42" y="656.13" width="133.85" height="53.54"/><rect class="cls-9" x="711.42" y="669.51" width="133.85" height="26.77"/></g><g><text class="cls-2" transform="translate(955.29 870.7)"><tspan x="0" y="0">P</tspan></text><text class="cls-2" transform="translate(970.32 870.7)"><tspan x="0" y="0">A</tspan></text><text class="cls-2" transform="translate(988.28 870.7)"><tspan x="0" y="0">N</tspan></text><text class="cls-2" transform="translate(1006.56 870.7)"><tspan x="0" y="0">A</tspan></text><text class="cls-2" transform="translate(1024.52 870.7)"><tspan x="0" y="0">M</tspan></text><text class="cls-2" transform="translate(1045.36 870.7)"><tspan x="0" y="0">A</tspan></text></g><g><text class="cls-3" transform="translate(715.88 777.81)"><tspan x="0" y="0">C</tspan></text><text class="cls-3" transform="translate(729.14 777.81)"><tspan x="0" y="0">O</tspan></text><text class="cls-3" transform="translate(744.52 777.81)"><tspan x="0" y="0">S</tspan></text><text class="cls-3" transform="translate(757.15 777.81)"><tspan x="0" y="0">T</tspan></text><text class="cls-3" transform="translate(767.96 777.81)"><tspan x="0" y="0">A</tspan></text><text class="cls-3" transform="translate(782.76 777.81)"><tspan x="0" y="0"> </tspan></text><text class="cls-3" transform="translate(788.38 777.81)"><tspan x="0" y="0">R</tspan></text><text class="cls-3" transform="translate(802.39 777.81)"><tspan x="0" y="0">I</tspan></text><text class="cls-3" transform="translate(809.48 777.81)"><tspan x="0" y="0">C</tspan></text><text class="cls-3" transform="translate(822.82 777.81)"><tspan x="0" y="0">A</tspan></text></g><g><text class="cls-8" transform="translate(617.51 520.16)"><tspan x="0" y="0">N</tspan></text><text class="cls-8" transform="translate(633.94 520.16)"><tspan x="0" y="0">I</tspan></text><text class="cls-8" transform="translate(641.7 520.16)"><tspan x="0" y="0">C</tspan></text><text class="cls-8" transform="translate(656.28 520.16)"><tspan class="cls-21" x="0" y="0">A</tspan><tspan x="13.2" y="0">R</tspan></text><text class="cls-8" transform="translate(687.73 520.16)"><tspan x="0" y="0">A</tspan></text><text class="cls-8" transform="translate(703.51 520.16)"><tspan x="0" y="0">G</tspan></text><text class="cls-8" transform="translate(719.14 520.16)"><tspan x="0" y="0">U</tspan></text><text class="cls-8" transform="translate(734.7 520.16)"><tspan x="0" y="0">A</tspan></text></g><g><text class="cls-6" transform="translate(425.13 364.24)"><tspan x="0" y="0">H</tspan></text><text class="cls-6" transform="translate(448.12 364.24)"><tspan x="0" y="0">O</tspan></text><text class="cls-6" transform="translate(471.64 364.24)"><tspan x="0" y="0">N</tspan></text><text class="cls-6" transform="translate(494.64 364.24)"><tspan class="cls-13" x="0" y="0">D</tspan><tspan x="19.91" y="0">U</tspan></text><text class="cls-6" transform="translate(539.47 364.24)"><tspan x="0" y="0">R</tspan></text><text class="cls-6" transform="translate(560.85 364.24)"><tspan x="0" y="0">A</tspan></text><text class="cls-6" transform="translate(583.38 364.24)"><tspan x="0" y="0">S</tspan></text></g><g><text class="cls-5" transform="translate(243.68 445.04)"><tspan x="0" y="0">E</tspan></text><text class="cls-5" transform="translate(254.11 445.04)"><tspan class="cls-14" x="0" y="0">L</tspan><tspan x="7.7" y="0"> </tspan></text><text class="cls-5" transform="translate(267.46 445.04)"><tspan x="0" y="0">S</tspan></text><text class="cls-5" transform="translate(277.45 445.04)"><tspan x="0" y="0">A</tspan></text><text class="cls-5" transform="translate(289.17 445.04)"><tspan x="0" y="0">L</tspan></text><text class="cls-5" transform="translate(298.07 445.04)"><tspan x="0" y="0">V</tspan></text><text class="cls-5" transform="translate(308.51 445.04)"><tspan x="0" y="0">A</tspan></text><text class="cls-5" transform="translate(320.23 445.04)"><tspan x="0" y="0">D</tspan></text><text class="cls-5" transform="translate(331.74 445.04)"><tspan x="0" y="0">O</tspan></text><text class="cls-5" transform="translate(343.94 445.04)"><tspan x="0" y="0">R</tspan></text></g><g><text class="cls-7" transform="translate(63.19 351.73)"><tspan x="0" y="0">G</tspan></text><text class="cls-7" transform="translate(81.71 351.73)"><tspan x="0" y="0">U</tspan></text><text class="cls-7" transform="translate(100.13 351.73)"><tspan x="0" y="0">A</tspan></text><text class="cls-7" transform="translate(117.62 351.73)"><tspan x="0" y="0">T</tspan></text><text class="cls-7" transform="translate(133.23 351.73)"><tspan x="0" y="0">E</tspan></text><text class="cls-7" transform="translate(150.25 351.73)"><tspan class="cls-20" x="0" y="0">M</tspan><tspan class="cls-10" x="19.83" y="0">A</tspan></text><text class="cls-7" transform="translate(191.54 351.73)"><tspan x="0" y="0">L</tspan></text><text class="cls-7" transform="translate(206.1 351.73)"><tspan x="0" y="0">A</tspan></text></g><g><text class="cls-4" transform="translate(276 175.29)"><tspan x="0" y="0">B</tspan></text><text class="cls-4" transform="translate(286.81 175.29)"><tspan class="cls-12" x="0" y="0">E</tspan><tspan x="7.85" y="0">L</tspan></text><text class="cls-4" transform="translate(305.86 175.29)"><tspan x="0" y="0">I</tspan></text><text class="cls-4" transform="translate(311.4 175.29)"><tspan x="0" y="0">Z</tspan></text><text class="cls-4" transform="translate(321.7 175.29)"><tspan x="0" y="0">E</tspan></text></g></svg>