<?xml version="1.0" encoding="UTF-8"?><svg id="Layer_1" xmlns="http://www.w3.org/2000/svg" xmlns:xlink="http://www.w3.org/1999/xlink" viewBox="0 0 1400 980"><defs><style>.cls-1{letter-spacing:.1em;}.cls-2,.cls-3,.cls-4,.cls-5,.cls-6,.cls-7,.cls-8,.cls-9,.cls-10,.cls-11{fill:#fff;}.cls-12{letter-spacing:.1em;}.cls-13{letter-spacing:.1em;}.cls-3{font-size:23.3px;}.cls-3,.cls-4,.cls-5,.cls-6,.cls-7,.cls-8,.cls-10,.cls-11{font-family:Montserrat-Bold, 'Montserrat Bold';}.cls-14{letter-spacing:0em;}.cls-15{letter-spacing:.1em;}.cls-4{font-size:11.91px;}.cls-5{font-size:19.71px;}.cls-16{fill:#ffcc0a;}.cls-16,.cls-17{stroke:#1d1d1b;stroke-miterlimit:10;}.cls-18{letter-spacing:.1em;}.cls-6{font-size:18.51px;}.cls-19{letter-spacing:.1em;}.cls-20{letter-spacing:.1em;}.cls-7{font-size:41.28px;}.cls-21{letter-spacing:0em;}.cls-8{font-size:12.09px;}.cls-22{letter-spacing:.1em;}.cls-23{letter-spacing:.1em;}.cls-9{font-family:MyriadPro-Regular, 'Myriad Pro';font-size:16px;}.cls-24{letter-spacing:.1em;}.cls-25,.cls-17{fill:#777474;}.cls-26{letter-spacing:.1em;}.cls-27{clip-path:url(#clippath);}.cls-10{font-size:15.24px;}.cls-28{fill:none;}.cls-29{letter-spacing:.1em;}.cls-30{fill:#2670b7;}.cls-31{letter-spacing:0em;}.cls-11{font-size:16.64px;}.cls-32{letter-spacing:.1em;}.cls-33{fill:#acacac;}.cls-34{fill:#d2d2d2;}</style><clipPath id="clippath"><path class="cls-28" d="M577.85,282.05c0,19.88-16.12,36-36,36s-36-16.12-36-36,16.12-36,36-36,36,16.12,36,36"/></clipPath></defs><polyline class="cls-2" points="1400 980 0 980 0 0 1400 0 1400 980"/><path class="cls-17" d="M906.79,858.56l-.23-.49-.92,.13-.81,.59-.66,.96-.45,1.09-.14,.98,1.15-.21,.84-.37,1.41-.77-.19-1.04v-.87Zm253.41-43.77l1.18,.59,.25-.76,.03-.79-.13-.78-.29-.75-.83,.6-.58-.42-.49-.67-.54-.2-.94,1.09,.83,1.13,1.52,.97Zm-239.58,39.71l-.08-.06-.08,.21,.16-.15Zm88.9,38.68l-1.04-.24-2.35,.78-1.34,.64-1.03,.66-.61,.82-.43,.93-.75,.8-2.82,.7-.94,.48-.75,.69-.7,.87-.64,1.1,.5-.02,2.12-.96,.19,.09,.59,.16,.76,.11,.67-.06,.44-.32,.99-1.41,2.12-1.34,.36-.5,.22-.55,.37-.47,.79-.25,.73-.04,.53,.08,.47,.2,.54,.35,.72,.24,.6-.18,.82-.5,.87-.4,.55-.81,.78-1.78-2.26,.2-1.08-.04Zm-54.72,28.13h-.64l-.75,.34,.02-.33-.1-.14-.21-.04h-.3l-.32,.5,.05,.23,.38,.43-.07,.7,1.55,3.5,.6-.05-.34-.61-.34-.37,.58-1.07,.88-2.16,.9-.88-1.1,.07-.77-.11Zm-42.36-71.02l-1.69-.37-1.17-.4-2.54,.97-.66,.79,.71,1.2,.55,.2,1.61,.06,.61,.1,2.37,1.43-.65-1.31-.09-.38-.07-.73,.47-.4h1.13l1.73,.35-.75-.97-1.55-.55Zm-6.17-1.03l-2.36-1.39-.05-.6,1.27,.26,.76-.45-.02-.78-1.02-.76-1.75-.3-3.87,3.27-1.83-.07-.49,.04,.58,1.03,1.09,1.16,1.2,.92,.99,.34,1.31-.43,2.64-1.7,1.56-.54Zm256.7-25.92l-2.35-3.1-.09-.25-.03-.21-.11-.1-.36,.08-.73,1.31-.44,1.12v1.15l.57,1.38-1.33,.45,.24,.9,.88,1.18,.6,1.29,1.21-1.2,.3-1.47,.54-1.2,1.93-.39-.05-.49-.77-.46Zm-259.94-63.24l1.25,1.75,.28-.67,.09-.31-.13-.2-.38-.35-.05-.59,1.01-1.42-.73-1.98-2.46-3.05-1.51,.17-1.23,.62-1.98,1.8,4.03,2.66,1.81,1.58Zm5.45,1.09l1.47,.15,1.23,.48,.86,1.61-1.13-.4,.04,.49,.82,.41,.37,.69,.15,1.83-.08,.36-.17,.08-.03,.06,.93,.83,.38,.11,.53-1.89,1.16-1.3,1.56-.77,1.55,.09-.94-1.05-1.04-.6-2.09-.74-2.02-1.59-.82-.31-.71,.41-.65,.13-.66-.08-.72-.22-.41-.41-.4-.08-.4,.19-.41,.42,.04,.5,1.59,.62Zm58.93,150.63l-2.4,.45-.99-.41-.49,.04-.54,.51-.55-.22-.44-.67-.22-.81-.37-.76-1.55-1.16-.59-.95,.14-.41,.38-2.38,.03-.55,2.46-1.19,.43-.42-.22-1.28-.35-.43-.52-.15-.76-.42-.22-.04-.66,.16-.24-.02-.07-.18,.03-.65-.06-.21-.73-.92-.17-.15-.16-.92-2.27-4.99-.28,.1-.23,.03-.1,.13,.08,.39-.5,.05-.06-.59-.59,.06,.26,.6,.26,.98,.27,.59-.59,.05-.06-.3-.74,.5-2.09,1.85-1.45,.44-.57,.45-.38,.77-.05,.65,.03,.71-.12,.96-.14,.07-.86,1.9,.06,.31-.73,.28-1.65,.16-.31,.08,.8,2.05,.21,.33,.71,.54,2.16,3.64,3.59,2.51,1.62,.76,2.11,1.94,.9,.63,1.55,.22,3.43-.07,2.92,1.32,1.69-.15,1.67-.64,1.44-.75-2.6-3.9-.54-.52Zm213.42-96.87l-.77-1.43-.06-1.17,.64,.48-.13-1.38-.67-.61-.77-.45-.43-.91-.16-.81-.32-.89-.44-.82-.57-.58-.61-.25-.45,.12-.27,.42-.07,.64-.59,.06-.16-.38-.25-.36-.19-.34-3.38,1.42-1.34,1.13,.69,1.16-.53,.6,.76,1.84,.31,.48,.18,.53-.3,.53-.39,.48-.14,.41,.55,.81,.7,.54,.57,.79,.22,1.52h-.54l-.27-.2-.37-.77-.07,.81-.37,1.39,.12,.57,.54,.29,1.8,.32,.55,.19,.63,1.23,.54,1.66,.89,1.37,1.65,.33-.05-.54-.96-.58-.64-1.24-1.09-2.88,.6-.19,.45-.35,.29-.52,.1-.71,.2,.29,.19,.19,.17,.21,.13,.33,.49-.05,.75-.25,1.11-.02,.84-.23-.07-.86,1.12-1.76-.39-1.62Zm133.85,17.9l-.85-.73-.91-.52-.83-.65-.64-1.09-.34-1.89-2.33-5.97-2.73-4.12-3.18-3.78-2.07-3.4-.67-.76-1.05-.32-1.06,.05-1.04-.27-1.01-1.27-.97-2.74-1.2-5.34-1.43-2.63-1.52-2.07-.89-.6-1.37-.3-2.33,.46-.76-.39-.18-1.8,.41-2.41,2.74-3.59,.74-2.06-.23-1.4-.46-.76,.02-.61,1.2-.94,1.24-.41,1.25-.26,.76-.66,.06-1.1-.53-.09-.47-.19-.42-.26-.35-.36-1.36,1.08-2.42,.43-2.62-.18-1.96-.74-1.88-1.52-.55-.75-.36-.98v-1.06l.11-.89-.28-.7-1.23-.52,.11,1.13-1.37-.81-2.18-3.06-1.52-.56-.34-.49-.94-.94-.94-.64-.36,.41,.26,.76,.5,.49,.57,.44,.47,.6-1.58-.53-2.16-1.39-1.91-1.77-.81-1.69-.26,.19-.57,.26-.24,.19-2.85-3.36-.92-1.61,.38-1.76-.86-.4-.93-.62-.77-.78-.37-.9-1.84-1.17-.14-.29-.31-.92-.2-.35-4.25-3.44-1.12-1.51-.58,.06,.1,1.36,.33,1,1.08,1.89-4.43-3.82-1.11-.52-1.38-.94-3.06-3.72-1.7,.28-.78-.84-1.87-1.63-.41-.98-1.02-.34-1.49-.17h-2.76l-1.95-.94-1.97-.35h-.52l-.71-.09-1.21-.63-.86-.08-1.58,.29-.86-.06-.96-.33-2.22-1.18-.73-.28h-.77l-.91,.23h-.52l-1.97-.9-.76-.18-2.19-.91-1.52-.11-2.14-1.05-.37-.04-2.32-1.2-2.59-.62-1.02-.47,.19-.7-.06-.54-.98-.24-2.87,.02-1.18-.31-1.86-.83-1.11-.09-.83,.31-1.01,1.16-.92,.43h-1l-1.76-.62-.89-.11-3.75,.36-.53-.16-1.53-.91-1.07-.25-.42,.28-.57,.54-.8,.26-1.12-.53-.6,.19-2.7,2.08-.75-1.13-1.02,.52-1.88,2.05-.91-.52-1.09-.15-.91,.07-.38,.08-.19-.6-.43-.59-.64-.42-.81-.12h-1.06l-1.95-.25-1.09,.09-.41,.28-1.16,1.17-.48,.38-.48,.04-1.08-.6-1.24,.22-1.05,.03-.56-1.17-.41-4.29,.4-.88,1.09-.64,2.56-.8,.22,.14,.59,.15,.6-.09,.22-.62,2.06-.97-1.91-.48-2.75,.05-2.7,.48-1.79,.82-1.03-.09-1.39,.34-1.4,.18-1.05-.56-.59,.06-1.43,1.34-3.01,.62-3.41-.18-2.62-1.07-2.78-.58-7.85,.11-1.77-1.35-.54,.44-.57,.13-.54-.24-.48-.67-.41,1.53,.02,.69-1.61-.32-.66-.23-.52-.32-.54,.05-.18,.49-.21,.25-.27,.18-.36,.31-.34-.58-.03-.18-.82-.26-.05-.5,.78-.53-.08-.6-.49-.71-.47-.91-3,2.05-1.09,.56-.36-.12-1.13-.03-1.18,.18-.51,.54-.37,.57-1.76,1.15-.36,.66-.2,.26-.46,.14-.37,.3,.09,.78,.38,.03,.7-.25,1.06-.53-.32,.92-2.54,4.26-1.46,1.78-.24,.19-.53,.21-.25,.23-.13,.27-.16,.61-.15,.25-1.24,.96-2.27,1.08-1.07,1.17-.64,1.47,.16,1.09,.52,1.18,.48,1.71-.67-.86-.7-.46-1.52-.65-1.17-.14-1.44-.37-.94-.03,.32,.84-.49,.54-.38-.32-.21-.13,.23,.66,.32,1.33,.23,.66-1.65-.91-.36,.81,.04,1.6-.46,1.51-.76,.48h-.81l-.73-.33-.49-.49-.24-.78-.11-3.01-2.09,1.3-2.14,2.22-1.76,2.39-1.36,2.46-3.97,3.98-2.16,1.49-2.52,1.28-2.85,1.05-2.72,.56-.75,.41-2.44,1.72-1.15,.51-6.5,1.65-9.84,3.97-3.21,1.82-7.09,4.04-.96,.35-1.06,.54-2.71,3.08-2.54,1.22-.27,.18-.69,.31-.35,.6-.21,.59-.25,.28-.76,.56-.76,1.2-1.13,2.3-.62,.85-.97,.99-1.12,.84-1.09,.41-3.02,.47-10.71,5.45-1.84-.09-.55,.79-.69,.57-.71,.22-.64-.25-2.77,1.3-2.84,.81-5.63,.54-7.95,1.63-1.2,.03-.81-.52-1.71-.34-1.69-.08-1.45,.63-4.57-.72-1.55,.7-.8,.1-.59-.19-.72-.68-.71-.09-.72-.27-1-.7-.94-.85-.53-.69-1.66-.88-3.48-3.12-5.35-6.37-1.18-.7-.42-.36-1.74-2.2-.94-.59-2.49-1.03-.83-.15-2.14,.11-.83-.09-.57-.26-.51-.73-.69-1.72-.71-.72-.05-.54,.62,.22,.82,.04,.62-.25,.06-.7-.36-.33-1.94-1.21-2.07-2.09-1.46-.91-1.63,.15-.48,.95,1.31,.78,2.67,.99-.75,1.05h-1.91l-2.06-.35-1.21,.09,.38,.7,1.33,1.03,1.55,.92,1.07,.37,.79,.63,3.14,3.9,5.62,2.55,.56,3.15-.27,1.4-1.36,.81-4.85-1.72-.77,.27-.36,.56-.88-.32-.82-.59-.18-.29-1.14-.28-.69,.06-.87,.45,.31,.87-.6,.96-1.1,.8-1.13,.37-1.3-.17-.88-.49-1.03-.33-1.75,.33-3.68,1.49-1.51,.05-.88,.16-.33-.06-.3-.26-.17-.52-.22-.26-.43-.41-1.33-1.68-.04-.65-1.06-.51-2.93-.68-1.28,.88-1.93-.03-2-.71-1.48-1.21,.34,.22,.23,.12,.25,.06,.37,.05,.1-5.24-.51-.8-1.98-.84-.52-1.1,1.2,.21,.45,.14-.04-.5-.66-.85-.37-1.47,.13-1.41,.83-.7h2.04l1.31,.36,2.53,1.29,.39-1.02-.33-2.17,.11-1.21-.55,.05,.05,.55-.54,.04-.44-.39-.34-.45-.27-.54-.22-.72h-.38l-.08,.12,.02,.21-.06,.26-.64-.48-.32,.23-.09,.72,.05,.98-.29,.31-.64-.02-.61-.47-.16-1.04-.54,.04,.22,1.26-.2,.87-.57,.4-.88-.16-.59-.67-.31-.93-.47-.78-1.08-.2,1.06,1.36-.44,.33-.95,.2-.52,.97-.54,.05-2.98-1.5-.48-.72-.27-.99-.59-1.04-.77-.86-.83-.47-.45,.13-.4-.13-.13-.38,.34-.66,.11-.91h2l1-.95v-.87l-.72-.57-.95-.51-.73-.69-.34-1.07,.13-.93,1.84-3.92,.27-1.09,.08-1.38-1.96,1.57-3.12-1.37-5.07-4.3-8.12-5.37-1.05-.53,1.11,2.96-.61,.08-1.26-.54-1.23-.09-.49,.9-.08,3.1-.43,1.06-1.04,.25-1.49-.13-1.42-.3-.81-.31-.92-.86-1.17-1.85-.89-.84-.61,.34-.79-.22-3.54-2.52-4.74-1.46-1.45,.29-1.37,1.37-.8,1.33-.09,.76,1.1,1.62,.73,2.15,.38,.44,.53,.11,.38,.2-.08,.66-1.12,.77-4.18,.93-1.44,.64-.57,1.17-.08,1.55,.63,6.62,.9,9.57,1.33,13.95,2.3-1.19,.73-.06,.58,.36,.34,.58,.28,.61,.39,.46,.49,.24,1.85,.65,3.87,2.38,3.71,.93,1.14,.62,2.34,3.27,.38,.73-.99,1.97-2.26,1.64-7.92,4.03-.87,.74-.69,1.1,.41,.33,.67,.33,.08,1.09-.67,.92-2.24,1.67-.59,.74v1.2l.49,1.1,.8,.99,2.73,2.57,1.49,1.75,1.16,1.98,.83,2.38,.94,5.54v2.83l-.54,2.42-1.59,2.31-1.99,1.2-2.19,.87-2.19,1.37-3.24,3.65-3.45,2.34-.65,.62v1.01l.79,.72,2.35,1.12,.46,.41,.86,1.07,.48,.31h.51l.93-.48,.73,.04,1.46,.62,.62,.77,.58,2.51,4.98,8.81-.09,3.61-.27,1.87,1.72,.73,.64-.74,.37-1.36,.93-1.14-.04-.5-2.35-5.26-.85-3.3-.06-3.31,.94-2.9,1.69-2.12,2.3-1.57,5.49-2.22,3.09-.7,3.16-.27,2.94,.35,5.75,1.75,3.33,.59,2.01-.54,.69,.24,.54-.02,1.48-.45-.22-.57-.32-.58-.36-.53-.37-.41-.05-.54,1.43-.79,.26-1.04,.04-1,.76-.67v.81l.17,.64,.41,.43,.7,.21,.04,.5-1.39,.65,.25,.93,1.22,.8,1.53,.28,1-.37,2.16-1.36,1.25-.31-.22-.51-.27-1.12-.19-.51,1.41,.36,1.41-.2,1.35-.55,1.25-.67-.2,1.71,.67,.98,1.25,.42h1.55l.04-.46,1.04-2.73,.4-.31,.97-.16,1.87-.11-1.25,.43-.59,.63-.02,.83,.48,1.03-.39,.06-.1-.13v-.23l-.11-.2-.32,.47-.16,.45,.13,.4,.5,.32,.04,.54-.39,.81,.18,1.12,1.13,2.38-.35,.21-.33,.33-.4,.16,.05,.55,.81,.22,1.11,.98,.7,.17,1.08-.29,1.29-.92,1.06-.18,.05,.59-.54,.22-.24,.34-.08,.5-.04,.66,.7-.33,.08,.59-.58,1.92,.5-.04-.05-.55,.11,.02,.36,.15,.19,.12,1.6-4.57v-1.46l.5-.04,1.38,.92,2.68,.57,2.59-.06,1.09-.96,1.8,1.28,1.15,.59,.48-.28,.27-1.11,.78-1.03,1.01-.78,.93-.39-1.13,2.27-.21,1.21,.89,.44,1.13,.04,3.38,.49,.74,.37,6.44,1.9,1.52,.96,.5-.04,.46-.78,1.08-1.41,.42-.73-.92-.2-.32-.65,.13-.89,.37-.93,.5-.04,.35,1.46,.9,1.16,1.94,2.01,3.16,4.71-.67-.21-.18-.08-.29-.21-.54,.05-.36,.5-.52,.15-.63-.12-.71-.33,.06,.6,1.28,.56,.25,1.1,.12,1.16,.91,.73-.11-.78,.04-.66,.36-1.27,.57,.75,1.41,2.91,2.19,2.51,.35,.85,.13,.58,.28,.41,.44,.23,.59,.04,.24-.28-.17-.58-.48-1.06-.08-1.01,.13-.09,.47,.08,.94-.48-.22,1,.23,1.15-.31,.62,1.18,.87,.37,.47,.27,.69-1.44-.39-.38,.79,.05,1.34-.14,1.24,1.17-.08,.68,.31,.06,.58-.69,.67,.06,.59,.64,.49,.5-.04,.48-.45,.55-.16,.59,.09,.6,.32,.05,.54-1.01,1.5-.28,.89v1.31l.45,.85,.81,.65,.49,.62-.45,.75,.05,.55,.97,.24,1.95,1.14-.04-1.4,.85-.33,3.2,.61-.81,.93-1.42,.91-.65,.27,.21,1.17,1.84,.59h2.38l1.79-.64,.66,.31,.69,.57,.6,.75,.41,.89,2.14-.41,6.74,1.23,1.83-.18,1.03,.28,.52,.95,.57,.04,2.68,1.13,.73,.43,.59-.05,.32-.55,.89-.87,.26-.41,.13-.72-.07-.54-.25-.91,.02-3.48-.43-.86-1.11,.57-1.01,.67-.49,.05-.61-.62-.67-.9,.71,.28h.47l1.04-.49-1.04-1.37-.51-.44-.87-.16-.06-.59,1.11-.17,1.11-.03,.06,.6-.24,.34-.11,.29,.1,.38,.41,.61,1.58-1.39,1.6-1.85,.58-2.15-1.72-2.62,.08-.48,.19-.6,.06-.72-.26-.06-1.44-.6-1.51-1.06-.25-.61,1.02-.45-.11-.52-.26-.26-.82-.26,1.47,.19,.31,1.13,.5,1.22,2.06,.4,.99,.08,1.06,.66,.76,.1,3.59-.33-.05-.55-.71-.25-.5-.4-.36-.59-.26-.84,.49-.04,1.07,1.44,1.11-1.18,1.42-3.34,.27,4.94,.75,2.07,1.7-1.17,.49-.05v1.02l-.46,.53-.79,.22-.99,.09-.83,.24-.49,.42-.36,.41-.43,.22-.53,.61,.06,1.21,.86,1.07,1.87,.18,.06,.34-.12,.1h-.22l-.26,.09,.52,.29,.66,.17,.77,.03,.87-.14-1.25,2.53,.16,.37,.71,.14,1.06,.44,.95,.61,.46,.65-.99-.16-.77,.25-.54,.55-.3,.74-.04,.75,.32,.25,.62,.12,.83,.36,4.2,3.45,.05,.54-.59,.06,.05,.54,.86,.48,1.14,.88,.85,1.04-.03,.93-.25,.71v.82l-.11,.69-.91,.65,.44,.55,.65,.5,.29,.14,3.15,2.82,.49,.99-.61,2.54,.11,1.5,2.14,1.03,.44,1.27,.08,1.48-.18,1.08-.27,.42-.84,.76-.36,.6v.66l.25,1.71-.29,.38-.41,.29-.31,.6,.08,.55,.79,.17,.77,.05,.72,.23,.62,.32,.45,.32,1.46,1.99,.95,.44,.99-1.17,.54-.05,.45,.42,.42,.12,.39-.19,.36-.51,.54-.05,1.68,.29,6.35-.84,9.07-2.59,9.59-2.14,.86,.05,1.55,.32,.59-.11,.6-.53,.03-.49-.08-.55,.27-.7,.73-.6,.69-.26,.49-.36,.12-.89,.18-.4,.47-.5,.59-.43,.54-.21,1.94-.46,.18-.75-1.57-2.12,.1-2.12,1.96-1.73,5.53-2.4-.59-.45-.64,.48-.69,.38-.8,.28-1.02,.2-.05-.53,2.47-.98,.67-.42,.54-.05,.81,.61,2.17,.29,1.01,.35,.92-.65,4.99-.47,5.38-2.63,.64-.19,2.1-.32,.95-.32,.55-.73,.93-3.15-.06-1.54-1.2-2.24-4.34-6.38-8.11-8.48-5.22-3.89-8.13-5.29-1.27-2.14-1.46-3.21-1.94-2.7-2.74-.55-.99-.57-3.13-1.04-1.2-.13-.78-.64-.53-1.52-.71-1.46-1.34-.5,.57-1.03v-.93l-.97-7.58,.49-1.51,4.53-5.42,1.35-1.07,.27-.57-.16-.42v-.35l.77-.39-.36,.43,.53,.51,1.11,.59,2.21,.33,.6-.24,1.32-.79,.68-.25h.45l1.04,.27,.71,.03,3.73-.85,2.23-1.16,5.24-3.35,3.38-2.16,8.19-6.56,1.54-1.6,.13-.32,.38-.37,.62-1.56,.39-.38,.7-.22,.52-.45,1.09-1.23,.31-.17,.87-.26,.38-.21,.22-.29,.1-.61,.12-.23,4.4-2.26,.86-.16,.5-.75,1.23-.83,2.35-1.24-.07-.41-.09-.08-.17,.03-.31-.08,.41-.51,.08-.24v-.39h-2.09l-5.16-.95-.05-.54,2.4-.97,.77-.42,.16-.33-.13-.35,.03-.29,.97-.31,.94-.56,.3-.26,.41-.59,.35-.68,.26-.69,.12-.63,.2-.45,.13-.44,.03-.5-.19-.24-.39-.13-.39-.2-.22-.44-.78-4.68,.19-1.56,.55-1.22,.95-1.23,1.23-.78,1.37,.11-.23-.39-.17-.39-.24-.26-.05-.54,.53,.03,.19,.05,.09,.12,.26,.23,.74-.41,.54,.12,.6,.32,.9,.2-.04-.49-.52-.89,1.07-.7,3.54-.97,1.84,.49,1.07-.94,.2-1.74-.75-1.9,.49-.05-.05-.49-.28-.35-.16-.28-.15-.46,.49-.04,.57,1.34,1.21,1.39,1.39,1.14,1.11,.63-.38-.91-1.59-2.17,.81-.33,.11-.54-.14-.67,.09-.73,2.09-1.57,.22-.29,.24-.2v-.37l.14-.4,.57-.22,.59-.14,.95-.46,1.33-.4,.73-.37,.73-.13,.73,.48,1.69-1.08h4.49l1.87-.78,.05,.54,.5-.05,2.02-.6,6.42,.5,1.29-.57,.11-.95,.44,.17,.44,.59,.11,.34,1.96,.34,.53,.22,1.25,.14,1.01-1.04,.69-1.42,.26-1.01-.38-1.65-.98-.59-1.05-.2-.54-.5,.08-.61,.35-.38,.57-.21,.73-.1,.74-.24,.41-.42,.22-.39,.17-.19,.42-.35,.82-1.52,.44-.46,.78-.09,.29,.39,.25,.47,.66,.18,.3-.24,.9-1.19,.48-.45,.61-.28,1.04-.18,.48-.3-.32,.73-.67,.48-1.53,.72-1.17,1.15-.76,.11-.79-1-.49,.05-.35,1.38-.79,1.18-1.23,.81-1.67,.28,.06,.59h1.5l.71,.81,.25,1.36,.13,1.65-.09,.76-.26,.47-.18,.47,.18,.77,.37,.4,2.14,1.22,4.2,.51,10.86,4.39,.55,1.26,.46,1.49,.67,1.2,1.72,1.66,.83,.22,1.16-.3,1.23-.76,.42-.84-.24-1.02-.76-1.26,.88,.67,.69,.81,.8,.67,1.2,.23,.06,.54-.59,.05,.06,.54,1.34,.97,1.9,3.2,1.63,.81,2.16-.25,2.73,2.91,1.18-1.57,1.21,.1-.07-1.14-.47-1.6v-1.28l.57-.06,.53,1.44,.24,1.61-.28,1.48-1.03,1.02,.9,1.84,.59,.87,.73,.33,.55-.19,.54-.29,.6-.11,.69,.36,.3-.47,.25-.15h.52l-.14,.38-.29,1.26,5.01,.86,.16,2.78,.52,.77,1.39,.88-.9,.51-.78-.03-.88-.17-1.18,.06,1.01,.89,2.6,2.86,.68,1.31-.32,2.72,.16,1.11,.43,.87,.97,1.01,.43,.72v-.68l.1-.58,.27-.52,.54-.5,.63,.95,.51,1.39,.2,1.41-.33,1.01,.92,.43,2.04,2.04,.64,.28,.69,.17,.6,.3,.38,.65,1.68-4.83-.47-1.27-1.59-1.06-1.15-3.72-1.82-3.78,.11-1.96,.48-.05,.16,1.62,.58-.06-.05-.54,.49-.05-.14,.57-.25,.56,.76,1.54,1.29,4.59,.86,1.25,1.08-.45,1.29-1.51,.93-1.69-.03-1.03,.52-.65,.99,2.48,.78,.81,1.25-.32,.86-2.26,.32-.47,.39-.32,.13-.48-.48-.95,1.29,.32,.17,.73-.7,1.6-.25,.41h-.32l-.12,.1,.33,.68,.33,.28,.47,.22,.5,.31,.41,.59,.59-.25,.26-.16,.23-.2-.06-.58-.65-.8,.29-.97,.51-1.18-.04-1.42-.62-.76-.81-.54-.46-.69,.44-1.18,.59-.06,1.72,4.14,.65,2.35,.16,2.6-.58-.14-.22-.1-.34-.24-2.16,1.36-.41,.58-.09,.57,.09,.72,.34,.58,.71,.2,1.39-.36,1.42-.75,1.07-1.06,.35-1.26,.11-1.68,.6-1.3,.98-.78,1.23-.12,.84,.56,1.08,1.14,1.74,2.34,.48-.05,.29-.79-.19-.81-1.34-2.46-.21-.67-.21-2.6-.04-.24-.41-.04-1.12-.57-.47-.72-.26-1.98-.4-.7,.94,.36,.31,.59,.16,.74,.47,.85,.95,.66,.72,.1,.48,.19,.21,.98-.19,.69-.39,.57-.16,.76,.48,1.27,.76,.95,.97,.85,1.02,.67,.91,.47-1.08,1.3,.72,2.07,2.06,3.26,.51,1.76,1.06,1.43,1.47,1,1.76,.5,7.12,.55,1.22,.54,.86,.51,4.56,4.68,1.34-.38,3.25,3.2,2.19-.25-.6,1.18-1.25,.48-1.25-.19-.63-.82-.41-1.32-.79-1.01-.93-.39-.8,.57-.84-.32-.55-.53-.33-.8-.2-1.17-.48-.5-1.98-.83-1.49-1.38-2.17-.55-4-.36,.62,.92,.97,.78,1.16,.53,1.23,.14,.05,.49-1.07,.11-.69-.06-.73-.24-.6-.37-.72-1.06-.85,.05-.81,.33-.36,.2-1.22-.17-1.07-.65-.87-.96-1.77-3.63-.8-1.13-.95-.41-1.14-.12-1.46-.43-1.37-.57-.83-.57-.26-.63-.69-2.83-.37-.31-.73,.17-.7,.44-.29,.45,.14,1.57-.06,.71-.27,.76-1.29,1.62-.2,.17-.04,.84,.34,2.15-.22,.25-.83,1.42-.09,.33-1.13,.29-.6,.08-.71-.13-.57-.28-.99-.75-.7-.37-.23,.82-.19,.05-.59,.32,.31,.32,.19,.25,.25,.21,.48,.17,.06,.59-.94,.71-.66,.17h-2.16l.06,.58,.97,.48,2.57,2.43,.98,.67,.74,.63,.53,.95,.31,1.6-.87,2.99-2.4,3.18-2.9,1.87-2.35-.95-.83,.85-1.25,.32-1.18-.39-1.17-2.46-.87,.62-.79,1.54-.27,1.53,.29,.98,1.67,2.39,.23,.77-.09,.92,.13,.96,.88,2.46,1.28,2.33,1.65,1.69,2.15,1.7,1.93,1.95,.98,2.45,.47,.86,2.73,3.37,.71,1.28,.15,1.02-.28,1.12-.6,1.59,.81,.16,.72,.38,.41,.62-.1,.89,1.55,.06,1.24,.75,1.9,1.99,1.03,.73,.37,.41,.38,.8,.08,.87-.21,.71-.06,.75,.54,1,.02-1.42,.69-.71,.86,.23,.54,1.38,.35,2.75,.26,.75,.22-1.22,.49-.05,.67,1.51,.47,.75,.53,.29,.82,.27,.46,.72,.27,.73,.29,.32,.98,.39,1.37,.99,2.12,1.97,.49-.05,.68-.72,.54,.23,1.1,1.34h-.38l-.11,.42,.22,.5,.65,.17,.23-.19,.12-.33,.21-.16,.48,.29,.44,.75-.06,.83-.23,.85-.09,.85,.36,.86,.7,.6,1.35,.78,3.81,3.86,2.48,1.82,1.8,.32,2.16-10.61,1.83-9.06,1.93,.22,1.71-.45,1.42-1.05,1.02-1.58,.5-2.1-.41-1.67-2.13-3.27-.96-2.37-.71-3.32,.19-2.95,1.78-1.23,.86,.36,4.28,2.94,.85,.79v.21l-.26,.73,.03,.29,.25,.19,.69,.09,.22,.14,2.49,2.71,.71,.98,1.36,3.85,.93,.81,1.77-.36,1.81-1.79,3.21-3.97,10.32-7.98,2.09-2.33-.65-1.4-1.77-1.36-1.29-2.2,.16-1,2.01-3.17,1.54-4.72,1.49-1.84,2.28-1.51,2.55-1.15,2.31-.74,2.92-.27,.42-.37-.74-1.17Z"/><path class="cls-17" d="M671.82,716.97l-2.41-.54-2.58-.26-.67,.1-1.47,.61,1.25,1.96,.78,.69,1.42,.48,1.36,.06,1.35-.21,1.2-.38,.95-.42-.03-.5-.84,.08-.66-.13-.47-.34-.8-.13-.34,.04-.79-.35,2.77-.19-.04-.55Zm204.79,27.35l-1.41-.7-2.23-2.82-1.6-.69h-1.76l-1.86,.22-1.9-.04-5.47-1.4-1.3-.84-.85-1.42-.7-3.19-.55-1.22-1.97,.78-3.7-2.95-5.06-5.78-1.24-.74-4.13-5.17-1.11-.99-.67-1.07-.36-1.23-.17-1.47-.49-.58-2.12-.19-.76-.41-1.8,1.2-3.36-2.82-5.54-5.77-1.28-.84-16.64-18.56-6.39-9.04-5.67-10.96-4.63-10.29-.37,1.03-.2,1.86-.23,.97-.35-.64-.18-.57,.04-.5,.33-.43-.98,.73-.72,.76-.78,.61-1.19,.32,2.14-2.12-.06-2.6-1.81-6.29,2.46,4.97,1.27,1.34v-2.54l-1.74-3.84-2.3-3.55-1.72-1.72-.63-.03-.51,.05-.47-.06-.55,.45,.13,.41v.38l.32,3.43,.94,2.8-.06,2.19-2.67,1.63-5.51,1.75-5.11,2.38-1.48,2.01-.28,.2-2.2-.27-.52,.22-1.04,.85-.77,.2-.74-.06-.55-.22-5.05-3.41-.46-1.34-.92-.53-1.06,.26-.87,1.01-1.38-.22-1.87,1.4-1.03-.87-.55,.04-.86,.76-.94-.28-1.58-1.33-.94,.22-1.27-.09-1.23,.06-.84,.7-.46-.51-1.84-1.27-.2-.26-.34-.32-.18-.44,.31-.64,.31-.25,1.06-.65-.43-1.9-1.46-1.05-1.56-.67-.77-.73-.87-.51-3.79-1.15-.89-.72-.26-.54-1.15-1.25-.39-.55-.23-.98-.04-.81-.23-.6-.78-.32-.64,.44-4.07,3.08-.73,.37-.88-.03-.87-.28-.74-.35-.72-.53-1.96-2.12-.35-.22-.4-.18-.42-.13-.43-.09-4.08-1.46-1.87-.45-1.7,.21-1.4-.09-3.16-1.96-1.45-.52-2.44,.76-5.6,4.27-7.82,5.96-1.81,.8-1.84-.08-13.15-3.85-14.62-4.32-10.99-3.25-8.24-2.45-2.66-1.27-2.37-1.88-2.35-1.02-2.58,1.27-2.04,3.16-1.25,3.25-1.72,3.23,.76,.26,1.02,.67,.94,1.06,.29,1.16-.9,.95-1.6,.12-.87-.7-.73-.34-1.15,1.21-.51,.43-.4,.11v.19l.73,.67,.6,.36,1.38,.47,.61,.38,.71,.89,.33,1.03-.27,.91-1.15,.51,.04,.6,.41,.43,.12,.54-.18,.48-.51,.22-.66-.1-.76-.66-.56-.22-1.61,.02-1.69,.36-.82,.64,.96,.84,.03,.5-.55,.64-.5,.03-1.08-.89-.34-.12-.17-.24,.15-.62,.06-.73-.45-.6-1.02-.17-3.93,.48,.03,.55,.73,.07,.38,.15,.25,.29,.34,.48-1.88,.34-3.27,1.76-1.78,.56,.04,.6,3.02,.19,2.13,.78,1.91,.96,2.4,.74,.65-.03,1.53-.25,.59,.1,.5,.53-.17,.46-.46,.25-.38-.1,.67,.65,2.32,1.67,.48-.03,1.14-.89,2.67,.25,2.71,1,1.29,1.34,.8,5.28-.08,2.75-1.25,1.14,.03,.6,.54-.04,.04,.51-.89,.31-.02,.23-.15,.69,.24-.16,.15-.19,.1-.16,.07-.09,.57,.52-.67,.25-.54,.47-.86,1.07,.04,.5,.38-.06,.09,.13v.24l.11,.26,3.05-3.52,1.08,.65,.46,.48,.22,.66-2.23,2.66-.99-.03-.29-.05-.66,1.31-.4,.39-.43,.31-.24,.53,.18,1.05-.5,.03-1.23-.06-1.54,1.01-1.52,.75-1.17-.83-.55,.03-.58,1.57-.55,.6-.9,.23,.03,.56,1.09-.08,.04,.55-.36,.12-.21,.13-.48,.38,.89,.79,1.3,1.44,.76,1.41-1.61,1.39-.49,1.28-.69,.91-1.41-.45-.56,1.38-.84,1.43-1.31,1.18-.54,.83,1.11,.57,1.85,2.06,.21,.65-.41,.81-1.03,1.14,.53,.98,.43,1.37,.43,2.26,3.63,7.41,1.09,1.46,.79,2.13,.55,.86,8.87,9.48,.98,1.97-.47,1.54,.78,.89,.53-.07,.56-.4,.9-.1,.66,.27,.44,.35,.54,.28,2.19,.19,4.62,1.13,.05-.16,.29-.28,.45-.16,.58,.23,.32,.34,.13,.24,.19,.11h.51l.89,.12,1.14,.72,.78,.13,.51-.22,1.08-.89,.76-.21,8.81,2.46,2.75,1.3,2.05,1.97,.11,.55v.73l.23,.62,2.06,.69,.79,.41,.35,.36,.51,1,7.3,8.53,2.56,4.44,.6-.04,.86-1.32,.62-1.47,1.35-5.66,.34-.67,1.82-1.1,.26-.43,.43-.14,2.49-1.45,.18-.32-1.34-1.47-.41-.63,.5-1.11h1.34l2.6,1.07,.28-.65,.3-1.51,.32-.61,1.8-1.21,.27-.35,.42-1.45,1.17-.92,1.39-.7,1.07-.84-.04-.5-2.86,.29-1.41-.06-1.21-.45,.89-1.06,.58-.47,.63-.27-1.12-.92-1.06-1.29-.16-1.14,1.56-.5-.03-.51-.97-.72-2.1-1.11-.99-.69-1.4,.73-1.53,.07-1.45-.35-3.21-1.56-1.3-.43-.56,.26-.63-.3-4.98-1.63-3.53-2.7-.03-.5,.6,.22,.69,.16,.73,.05,.69-.11-.16-.54-.3-.2-.62,.32-.49,.03-1.2-1.95-.93-.87-2.5-.69-1.01-.98-.23-1.11,.99-.75-1.04-1.41-.64-2.16-.47-3.73-.67-1.92-2.41-1.53-.6-1.59,3.58,2.16,1.51,1.6-.36,1.49,.03,.51,2.15,1.95,1.33,.8,1.46,.27,5.4-.46,1.4-.57,1.11,.88,.32,.13,.38,.22-.12,.56-.41,.89,.74,.5,.45-.09,.32-.33,.38-.21,.51,.14,.88,.7,1.79,.74,3.49,2.83,1.38,.6-.36,.39,.77,.71,1.06,.61,.52,.09,.39,.4,2.55,1.82,1.97,.89,2.1,.56,2.29,.23,2.55-.06,.04,.54-2.77,.18-1.24,.22-.94,.45,.04,.6,7.01-1.21,2.34,.54-.33,1.21,.42,.76,2.07,1.46-.99,1.93-.08,1.23,1.33,.45,.96,.64,3.57,4.55,1.34,1.15,.68,.79,.34,.95-.18,1.17-.49,.92-.51,.72-.44,1.4-1.27,1.46-.41,.93,.08,.74,.26,.79,.15,.87-.25,.94,1.25-.16,.26,.54-.05,.84,.34,.79,.89,.47,.92,.28,.73,.49,.37,1.08,.66,1.17,3.1,1.67,1.39,.97-.22-.57-.13-.23-.23-.31,1.12,.17,.43,.73,.39,.92,.99,.71,1.09,.08,1.04-.29,.99-.4,.95-.24h2.05l10.89,2.17h2.03l2.12,.29,3.44,1.69,2.1,.2-1.12-.69-.48-.16-.71-.09-.04-.54,2.05,.53,2.22,1.67,1.3,2-.74,1.54,1.39,.14,.81,.7,.69,.46,1.06-.54,.34,.6,.4,.32,.45-.04,.49-.41,.49-.04,7.9,2.42,1.05,.69,6.35,2.37,6.72,5.48,1.82,.32,2.51,1.03,1.89,1.63-.03,2.09,3.23,.31,2.26,1.95,1.85,2.58,1.97,2.17,.5-.58,1.42,1.33,.45,.67,2.56,5.36-.75,.73-.51,.63-.37,.69-.28,.91,.29,.25,.57,.27,.17,.41-.92,.65h.94l.44,.21,.31,.35,.53,.36,1.19,.52,.64,.4,.52,.54-.98,.05-.76-.17-1.61-.66,.32,1.38,1,.67,1.09,.48,.55,.78-.31,.93-.86,.7-1.9,1.12-1.02,1.43-.26,1.39,.37,.73,.9-.5,.85-1.07,.55-.52,.85-.15,1.75,.06,.04,.49-1.92,.66-2.1,1.36-1.08,1.52,1.1,1.19-.48,.59-1.7,3.11-.5,.6-.29-.46-.41-.2-.84,.41-1.18,.84-.52,.7-2.13,3.93,.45,2.47,.52,.28,1.68,.53,.36,.05,.51,.7,7.47,5.87,2.14,2.36,1.16,1.01,1.2,.45,1.35-.11,4.84-1.01,1.65,.11,4.77,1.62-.09-1.14,.71,.54,.66,.36,1.6,.56-1.1-.03-.3-.11-.38-.25-.5,.03,1.4,.98,2.86,1.1,2.99,.69,1.78-.22,.72-2.06-.04-2.94-.71-2.76-1.34-1.54-.04-.54,.44-.58,.09-.83-.21-1.97-.93,.69-1.08-.78-1.15-1.19-1.15-.56-1.2-.05-3.06-.66-1.09-.45-.69-.7-1.85-2.44-.48-1.24-3.14-3.97-.49,.04v.03l-.56,.51,.26-1.62,1.05-.49,2.67,.19,1.06-.29,.29-.52,.05-.57,.35-.45,.8-.07,.57,.33,.42,.03,.39-.98,1.37,.34,1.71,.21,1.18,.54-.22,1.34,.55-.08h.54l-.35,1.72,.84,1.14,2.64,1.27,1.08-.69,1.16,.48,1.02,1.05,.67,1.02,1.22-.34,1.67,.05,1.44-.18,.53-1.03,.54-.04,.66,.89,1.07,.94,1.23,.76,1.13,.37,.05,.59-2.3,1.14-.36-.14-.18-1.07-.29-.61-.87-1.23-.55,.04-.12,.46-.11,.29-.22,.44,1.84,2.99,.65,.6,1.17,.34,2.31-.32,.96,.23-1.18,.89-.96,.37-.54,.47,.14,1.18,.52,.86,2.87,3.03,.61,1.23-.44,1.27-.78,1.14-.39,.86-.41,.26-2.1,3.05,2.93,2.42,10.51,6.35,2.1,1.85,6.23,8.83,.3,.96-.26,1.26-.48,1.4-.02,1.24,1.16,.75,.27-1.87,.09-3.61-4.98-8.81-.58-2.51-.62-.77-1.46-.62-.73-.04-.93,.46h-.51l-.48-.3-.86-1.07-.46-.41-2.35-1.12-.79-.72v-1.01l.66-.62,3.45-2.34,3.24-3.65,2.19-1.37,2.19-.87,1.99-1.2,1.59-2.31,.54-2.42v-2.83l-.95-5.54-.83-2.38-1.16-1.98-1.49-1.75-2.73-2.57-.8-.99-.48-1.1v-1.2l.58-.74,2.24-1.67,.67-.92-.08-1.09-.67-.33-.41-.33,.69-1.1,.87-.74,7.92-4.03,2.26-1.64,.99-1.97-.38-.73-2.34-3.27-1.14-.62-3.71-.93-3.87-2.38-1.85-.65-.49-.24-.39-.46-.28-.61-.34-.58-.58-.36-.73,.06-2.3,1.19-1.33-13.95-.9-9.57-.63-6.62,.08-1.55,.57-1.17,1.44-.64,4.18-.93,1.12-.77,.08-.66-.38-.2-.53-.11-.38-.44-.73-2.15-1.1-1.62,.09-.76,.8-1.33,1.37-1.37,1.45-.29,4.74,1.46,3.54,2.52,.79,.22,.61-.34,.89,.84,1.17,1.85,.92,.86,.81,.31,1.42,.3,1.49,.13,1.04-.25,.43-1.06,.08-3.1,.49-.9,1.23,.09,1.26,.54,.61-.08-1.11-2.96Z"/><path class="cls-17" d="M812.22,368.71l.17,.04,.03-.18-.17-.09-.03,.23Zm1.25-1.95v.18l.21-.09-.21-.09Zm-1.21-12.57l-.03,.02v-.06l-.16,.08,.08,.11h.01l.04,.04,.09-.06-.03-.14Zm-.29,15.04l.16-.27-.24,.2,.08,.07Zm1.61-2h.1l-.07-.12-.03,.12Zm.34-.02l.12-.05-.16-.13,.04,.18Zm-2.45,1.63l.2,.17,.07-.03-.03-.21-.24,.07Zm-.6,.56v-.06l-.16,.08,.09,.11h0l.03,.04,.09-.06-.04-.14-.03,.02Zm.21-.4h.07l-.11-.3,.04,.3Zm.34-.08v-.06l-.16,.08,.09,.11h0l.03,.04,.1-.06-.03-.14-.03,.02Zm3.87,5.09l-.11,.26,.15,.02-.04-.29Zm-3.68-5.47l.03,.07,.11-.05-.06-.25-.08,.23Zm4.88-18.7v-.06l-.16,.08,.08,.12h0l.03,.04,.1-.06-.03-.14-.03,.02Zm2.19,20.2l.18-.08-.16-.18-.02,.26Zm.14-.74l-.08-.11-.08,.16,.11,.03,.04-.09Zm-.4-.2h.15l.02-.14-.18,.07v.07Zm.85,.89l.03-.2-.15,.11,.13,.09Zm-.22,3.23l.2,.06v-.07h-.2Zm-8.22-4.37l-.16,.11,.08,.08,.08-.19Zm4.48,5.96l.13-.03-.11-.1-.02,.13Zm.91-26.18v-.06l-.16,.08,.09,.11h0l.03,.04,.09-.06-.03-.14-.03,.02Zm1,19.97l.14-.21-.26,.22h.12Zm0,2.87v-.06l-.16,.08,.09,.11h0l.04,.04,.09-.06-.03-.14-.03,.02Zm-.58-.6l.09,.1h.07l-.04-.14-.11,.04Zm-207.91,216.73l-.61-.59-1.79,.69-.94,.13-.81-.59-2.06,1.84-.15,.8,.15,.57,.46,.56,.79,.75-.48,.1-1.11,.51,7.62-.72-.53-2.61-.52-1.41Zm218.84-233.68l-.19-.16,.11,.24,.08-.08Zm-3.06,2.18l-.25,.07,.04,.08,.21-.15Zm2.86-1.53l.03,.04,.09-.06-.03-.14-.03,.02v-.06l-.16,.08,.09,.11h0Zm-.55-.31l.04,.04,.09-.06-.03-.14-.03,.02v-.06l-.16,.08,.09,.12h0Zm-1.82,5.67l-.87-.56,.06,.92,.8-.36Zm-1.25-2.69l.03-.08-.23-.03,.11,.15,.09-.04Zm10.46-9.23l.03,.04,.09-.06-.03-.14-.03,.02v-.06l-.15,.08,.08,.11h0Zm-3.47-4.87l-.45,.46,.57,.49-.12-.94Zm15.64,4.55l.04-.07-.25-.13,.21,.2Zm-.24-1l.04,.04,.09-.06-.03-.14-.04,.02v-.06l-.16,.08,.09,.11h0Zm-.26,1.05l.03,.04,.07-.04-.07,.22,.18-.02-.09-.21h0l-.04-.14-.03,.02-.02-.06-.15,.08,.08,.12h.02Zm-22.36,9.16h-.16l.17,.17v-.17Zm-11.48,11.86l-.03-.18-.13,.1,.08,.09h.07Zm-2.47-.61l-.02,.16,.06,.12,.15-.09,.08-.19-.06-.16-.21,.18Zm-173.49,241.24l-.27-.78-.32-.45-.92-.11-1.22-.13-1.04-.32-.94-.16-.92,.38-1.18-.92-.34-1.17-.05-1.36-.32-1.51-.53-.74-.85-.6-1.03-.41-.48-.22-.63-.56-.94,.49-3.37,.25-1.58,.79-.94,1.42-1.11,3.22-.85,1.06,3.19,1.64,1.34,.34,1.57,.02,2.45-.76,1.36-.2,1.96,.99,1.8,4.39,1.81,.89,.77,.05,.85,.36,.61,.06,.27-.19,.97-.83,.33-.19,1.05-.4,.81-.9,.23-1.17-.69-1.2-.83-1.04Zm161.37-293.79l-1.07,.27-1.98,1.07-3.44,.17-.32,.08-.96-.31-.6-.36,.03-.42,.89-.51-3.44-.14-1.32,.17-1.12,.84-.47-1.03-.84-.45-1.02-.33-1.01-.71-.65,1.43-1.13,1.41-1.5,1.04-1.81,.33-.74-.35-1.04-1.39-.43-.37-1.03-.11-.78,.14-.24,.42,.57,.74-.38,.56-.1,.5,.04,1.21-.81-.66-.41,.37-.04,.93,.31,1.05-.46-.18-1.17-.26,.19,.23,.24,.55,.17,.27-1.1,.4-1.84,1.66-1.85,.83-.32,.89-.1,1.08-.27,.99-.58,.04-.71-.8-1.46-.33-1.73,.02-1.52,.31-1.41,.78-.25,.91,.88,2.24-.58,.04-.34-.66-.6-.32-.8-.06-.98,.12,.24,1.23-1.58,.73-4.31,.53,.61,.9,.41,.37,.63,.37-1.43,.1-1.5,.59-1.34,.86-.9,.91-.48-.54-.28-.18-.32-.07-.57-.2,.43,.72,.12,.33-1.01-.21-1.34-1.26-.96-.47-.27,1.85,.03,.74,.44,.63-7.65,.88-1.35-.08-.19-.61-.41-.19-1.31,.12-.83-.06-.31-.27-.22-.36-1.85-1.02-.57,.07-.81,.76,1.01,1.82,.58,.7,.72,.62,.03,.6-.51,.37-.33-.02-.38-.17-.66-.07-.7,.19-.38,.36-.29,.4-.45,.3-1.86,.67-1.14,.16-.97-.33-1.95-1.87-.63-.47-.73-.35-1.1-.31-.97,.13-.37,.97,.62,3.73-.29,1.78-1.55,.94h-.87l-1.91-.32-1.2-.04-.62-.39-.68-2.05-.81-.73-.94,1.57-.96,2.08-1.33,1.85-2.84,1.19-1.95,1.24-.85,.3-1.21-.29-.86-.65-.86-.4-1.15,.43,.14-1.58,.26-.58-5.69,.16-1.78-.28-3.09-1.12-1.5-.08-1.39,.95-1.33-2.67-.89-1.29-1.65-.99v-1.07l-.25-.95-1.56-.11,.03-.16,.57-.82,.23-.24-1.25-1.83-1.79-1.18-2.06-.49-2.05,.2-4.61,1.11-1.24,.81-3.38,3.65-1.34,1.07-1.32,1-1.02,1.06-.62,1.29-.24,2.99-.22,.49-.39,.21-1.2,.4,.46,.76,2.3,1.45-1.63,1.72-.43,.64,2.02-.11-.5,1.38-2.63,2.94-1.6,.87-1.39-.91-1.32-1.3-1.44-.28-.56,1.17-.22,2.24,.07,4.06-.25,.53-1.69,2.02-.06,.51,.25,1.22-.06,.51-2.05,1.76,1.3,.76,1.46,1.19,1.1,1.54,.17,1.82-.82,1.38-1.55,1.06-1.92,.76-1.92,.45-2.96,.17-.81,.22-1.81,1.03-.72,.22-.41,.48-.29,.55-.52,.7-.19,.6-.2,.27-.33,.08-.85-.08-.33,.08-.72,.76-.83,1.23-.68,1.3-.45,2.08-.56,1.56-.78,1.6-.84,1.18-1.94,1.7-1.29,.85-2.78,.93-.39,1.09-.1,1.29-.67,1.14-1.44,.57-1.95,.46-1.68,.67-.69,1.16-.72,.83-2.7,.99,.3,.83-.23,.1h-.22l-.12,.1,.06,.38-.48,.02-.68-.16-1.52,1.46-.97,.53-1.39-.02-.83-.14-.36,.45v1.77l-.64,2.46-.24,1.57,.34,.68,1.2,.3,.5,.91-.1,1.25-.58,1.33-.67,.7-.2-.07-1.11-1.11-1.6-.05-1.83,.16-1.77-.51-1.33-1.45-.86-1.6-1-1.34-1.76-.67-1.07,.13-.69,.33-.71,.19-1.11-.32-.55-.46-1.82-2.16-5.76-3.72-.34-2.12,.76-1.77-.03-.89-5.96,1.2-1.05,.62-.84,.84-.38,.72-.27,.79-.51,1.05-.87,1.01-.92,.55-.91,.41-.79,.59-2.5,4.37-4.87,5.79-1.14,2.03-.49,2.42-.39,1.24-.86,1.08-1.15,.63-1.43,.42-4.05,.47-.55-.05-.76-.2-.48-.31-1.31-1.21-1.14,.22-1.03,.61-1.13,.42-1.41-.32-2.68-1.3-3.1,.34-6.37,1.55-3.46-.26-1.65,.22-1.74,.99-.88,.67-.36,.34-.11,.51-.13,1.13v5.72l.17,.72,.33,.4,1.05,.71,.33,.51,.12,1.29-.36,2.61,.11,1.37,3.04,9.55-.07,1.27-.89,2.27-.06,1.17,.34,.79,.48,.22,.55,.1,.53,.44,.62,.99,.2,.48,.59,2.28-.11,1.25-.55,1.09-1.04,1.06-1.09,.82-.74,.24-.75-.2-4.66-2.01-1.37-.05-1.25,.43-1.02,.77-3.64,3.45-.6,.83-.5,1.11-.46,2.3-.13,.22,.17,.46,.67,1.27,.14,.19-.46,4.29,.22,.5,.45,.18,.33,.28-.18,.8-.38,.44-1.14,.64-.43,.37-1.71,2.99-.85,1.01-1.96,1.38-1.61,.89-.36,1.34h-.94l-1.88-1.04-1.18-.06-18.05,2.06-.53,.41-3.74,2.09-.74,1.33,.93,.69,2.09,.13,4.12-.31,.03,.6-8.14,.9-3.42-.56-2.72-2.46-.12-.51,.11-1.23-.1-.53-.27-.22-1.04-.56-.36-.25-1.53-1.86-.53-.26-2.09-1.62-.38-.22-.4-.37-.92-.23-1.08-.08-.89,.03,.24-.49,.14-1.75-.49,.03-.25,3.12-1.6,1.88-2.23,1.53-2.14,2.07-1.37,2.88,.13,2.38,1.26,1.95,2.02,1.62,9.6,5.13,1.85,1.62,1.22,.84,.82,.07-.08-.9-1.16-.97-2.18-1.28-.03-.5,1.62,.34,1.85,.88,1.39,1.03,.24,.82,.03,.5,.73,.43,.39,.12,.03,.5-.98-.45-.33-.21-.37-.37,1.13,2.07,9.25,9.66,.22-.41,.57-.8,.2-.44,.5,1.39,.41,.82,.69,.65,5.16,3.59,1,.37,1.61,1.37,2.21,2.51,1.35,1.07-.96-2.95,.49-.02,1.97,3.3,.71,.48,1.12,.27,1.06,.77,2.09,2.07-1.75-.24-1.86-.64-1.6-.95-.98-1.16,.3,1.86,5.61,2.18,2.57,2.48,4.61,2.35,1.08,1.19,16.82,9.06,2.07,1.6,.86,1.17,3.21,7.45,3.29,5.02,1.99,2.21,2.04,1.41,.97,.89,.46,1.1,.32,1.19,1.51,2.46,1.34,1.7,2.21,2,.83,.38,.9,.68,2.41,4.67,1.65,1.82,9.95,6.7,1.05,2.5,1.13,1.17,1.29,.84,7.52,2.77,3.14,2.69,2.53,.95,.9,2.36,.36,.63,1.21,.96,3.59,1.76,2.89,2.7,2.19,.97,2.87,3.07,1.3,1.09,2.81,.59,.28,.33,1.27,.79,.39,.15,.74,.45,9.08,8.97,1.59,2.07,.93,2.86,.72,1.4,1.16,.54,1.56,.14,4.08,1.4,1.72-3.23,1.25-3.25,2.04-3.16,2.58-1.27,2.35,1.02,2.37,1.88,2.66,1.27,8.24,2.45,10.99,3.25,14.62,4.32,13.15,3.85,1.84,.08,1.81-.8,7.82-5.96,5.6-4.27,2.44-.76,1.45,.52,3.16,1.96,1.4,.09,1.7-.21,1.87,.45,4.08,1.46,.43,.09,.42,.13,.4,.18,.35,.22,1.96,2.12,.72,.53,.74,.35,.87,.28,.88,.03,.73-.37,4.07-3.08,.64-.44,.78,.32,.23,.6,.04,.81,.23,.98,.39,.55,1.15,1.25,.26,.54,.89,.72,3.79,1.15,.87,.51,.77,.73,1.56,.67,1.46,1.05,.43,1.9-1.06,.65-.31,.25-.31,.64,.18,.44,.34,.32,.2,.26,1.84,1.27,.46,.51,.84-.7,1.23-.06,1.27,.09,.94-.22,1.58,1.33,.94,.28,.86-.76,.55-.04,1.03,.87,1.87-1.4,1.38,.22,.87-1.01,1.06-.26,.92,.53,.46,1.34,5.05,3.41,.55,.22,.74,.06,.77-.2,1.04-.85,.52-.22,2.2,.27,.28-.2,1.48-2.01,5.11-2.38,5.51-1.75,2.67-1.63,.06-2.19-.94-2.8-.32-3.43v-.38l-.12-.41,.55-.45,.47,.06,.51-.05,.63,.03-1.34-.58-1.71-.22-1.14,.24,.36,.83-1.37,.36-1.44-3.16-1.5-.79-.71-.58-2.11-2.87-.91-1.94-2.64-3.48-2.01-4.05-3.18-10.32-.58-8.1,.31-1.41,.64-1.28,2.29-3.37,.48-.04,1.7,.15,.86-2.91,.5-3.79,.63-2.54,.58-.64,.64-.36,.76-.17,.94-.09,.7-.31,.7-1.22,.61-.31,.08-.19,1.06-.44,1.1-.3,.17,.22,.59-.64,.27-.51,.06-.63-.03-1.03-.4-2.81-4.69-14.33-.81-.6-1.31,.14-.68,.37-.38,.84-.42,1.59,.15,.62,.37,.5-.06,.37-1.15,.22-.8-.04-.79-.23-.61-.38-.78-1.48-1.15-1.17-1.35-1.05-1.09-.62,.29-.71,.61-.78,.73-.63,.66-.29,.43-.33,1.32-1.99,.28-.25,.39-.17,.43-.26,.38-.53,.06-.54-.22-.49-.29-.43-.17-.43,.12-.6,.6-1.52,.11-.74-.13-1.05-.25-.98-.38-.83-.51-.59-1.98-.65-1-.52,.4-.29,3.32,.75,1.41-.15,.34-1.56,.03-1.29,1.07-1.82,.19-1.36-.3-1.04-.6-.8-1.43-1.29-.58,.04-.94,1.16-1.31-.65-.21-1.18,2.38-.42,1.52,.59,1.49,1.25,1.15,1.49,.49,1.33-.49,1.88-1.1,.87-.61,.91,.97,1.96,2.13,2.31,.66,1.32-.21,1.67,.57-.26,.52-.36-.72-1.69-1.3-10.2,1.09-9.6,3.16-7.6-.38-.58-1.56-.12-.66,.48-.41,1.05-.97,4.19-.31,.76-.2-.49,.03-.92,.29-1.59,.04-.8-.51-1.21-2.43,.7-1.51-.61-.69-1.41,.16-1.54,.44-1.66,.19-1.72-.79-3.53-.67-.71-.54-.13-.64,.06-.95-.12h-.67l-.3,.19-.1-.08-.29-4.17,.52-1.09,1.39-.56,3.37-.6,2.45-1.24,3.94-3.79,2.37-1.61-.9-1.21-.33-.36,.33-.63,.13-.56-.05-1.35-.18-.82-.32-.29-.38-.19-.37-.53-.15-.55-.23-1.34v-.28l-.2-.16-1.79-.8-.7-1.36-.16-1.63,.6-1.52,1.56-1.05,1.99-.3,2.14,.37,1.6,1.17,.42,2.12-.21,.57-.34,.42-.31,.29-.13,.17,.18,4.47-.2,1.09-.62,.81,.04,.6,1.21,2.35-.41,3.65-1.76,2.63-2.84-.69-.48,.03-.15,.29-.04,.06h-.09l-.27,.18,.5,1.97,.23,5.24,1.82,1.4,.59,1.07,.38,1.24v.94l-.43,.55-1.54,1.26-.55,.6,1.62,.74,1.81-.41,1.91-.85,1.9-.53,2.51-.28,1.56-.64,.73-1.36,.03-2.46-.66-1.95-2.42-2.91-.93-2.48-1.3-2.22-.31-.75-.32-4.66,1.18-21.25-6.11-25.87-.51-.96,.55-.53-.62-1.07-.27-1.91,.16-10.34,1.05-5.37,1.37-4.07-.09-1.53,.2-1.93-.37-3.9,1.24-9.24,2.33-10.26,1.38-7.53,.91-2.61,1.43-2.32,3.53-2.84,.48-1.02,.31-1.34,2.57-3.57,5.78-10.83,1.76-5.17,.2-2.76-.62-3.1-4.48-10.68-.9-3.76-.82-1.44-.2-.44-3.95-13.76-.74-.65-.52,.6,.16,1.81-.71-1.03-.87-.73-.91-.21-.84,.54,.67,.22,1.48,.79,.6,.45-1.09,1.55-1.21-.3-1.18-1.01-1.05-.55-.57-.69-1.06-3.23-1.11-.78-.23,.36-.71,.85,.69-1.95,3.15-4.62,1.44-1.52,.88-.63,1.23-.55,1.13,.19,.58,1.57,.32,1.59,.97,2.01,.16,1.5-.64-.72-.79-.23-.87,.17-.9,.49,.03,.5,.71,.39,.24-.08,.57-.4,.03,.53-.04,.39-.13,.37-.24,.46-.03-.59-.61,.82-.19,.39-.15,.49,2.6-1.24,.89-.77,.57-1.03,.14-.8,.03-1.72,.15-.79,.36-.59,.93-1.03,.18-.38,.2-1.12,.61-1.4,.87-1.2,.96-.55,.52-.94,.63-1.73,.87-1,1.23,1.27,.65-.79,1.38-.75,.52-.86-1.08,.22-2.62,.02Zm-215.53,236.98l-.41,1.66-.65,1.14-2.42,1.06-12.02,1.03-1.18-.22-.24,.04-.17-.04-.28-.32-.13-.42v-.57l.11-.51,.21-.22,1.11-.44,.77-1.04,.39-1.44-.05-1.64-1.33-2.63-2.31-.78-2.57,.62-2.11,1.6-.84,1.12-.72,.76-.94,.07-2.65-1.65-7.23-2.54-2.4-1.17-1.55-1.88-.46-3.22-.03-1.64,.1-.6,.33-.55,.52-.35,.52,.04,.42,.36,.2,.67,.65,.73,1.49,.46,1.79,.13,1.56-.22,1.78-1.37,1.09-1.91,1.27-1.76,2.37-.86,1.17-.24,1.76-.86,1.34-.25,1.46-.57,.92-.99,.87-.71,1.31,.31,.48-.4,.54-.13,.57,.1,.57,.31,.77,4.31-.22,.68,.31,.5,2.39,2.14,.73,.48,.91,1.17,1.78,5.87,.28,2.19,1.68-1.74,1.94-2.49,2.11-1.58,2.19,.98,.6,1.53,.04,1.8-.51,6.08Zm111.59,83.69l-.64,.82-3.24,2.75-2.53,.26-.44,.22-.39,.33-2,1.02-.76,.24-1.65-.2-1.34-1.44-1.76-.23h-1.33l-14.5-2.3-1.28,.04-1.3,.34-1.29,.16-1.9-.74h-.89l-1.71,.19-.69-.3-1.69-1.61-.86-.63-3-.83-2.77-.45-3.31-.04-7.19-2.04-1.17-.74-1.02-.89-1.01-.7-2.26-1.17-1.25-.45-1.37-.27-2.64-.1-10.34-9.06-1.59-2.38-2.69-8.12-.64-1.29-2.7-4.02-1.4-1.07,.07,1.15-.67-.52-.43-.63-.22-.74v-.85l.41,.19,.78,.1,.48,.16-1.31-4.68-.69-1.27,.39-.42,.05-.38-.19-.41-.34-.49-.55,.03v1l.16,.83,.6,1.48-1.19-.78-2.85-2.63-.59-1.04,.2-.76,.5-.83,.59-.69,1.23-.75-.05-.92-.63-1.44-.2-3.74-.66-1.96-1.47-.78-.95-.74,.61-1.46,1.1-.66,.55,1.68,.54-.03-.94-2.35-.8-.65-1.47-.17-.59-.62-.2-1.49,.04-1.66,.15-1.13,.76-2.58,2.22-5.19,1.39-1.93,2.17,.53,2.1-.64,1.7-1.26,1.51-.89,.05,.16,1.3,.87,5.43,2.54,1.9,.55,.66,.41,.31,.88,.38,.45,.84,.09,.9-.17,.59-.29,.03,.55,.49-.03,1.75-1.39,2.65,1.77,3.82,4.08,.6,.48,1.67,2.27,1.01,2.07,4.05,3.59,1.66-1.83,3.42,.47,3.63,1.54,2.25,1.32,.72,.97,.62,1.26,.77,1.08,1.19,.4,.95,.09,.67,.38,1.19,1.25,.66,.32,1.75,.19,.62,.16,3.39,4.54,3.15,3.3,.2,.3,.24,.57,.18,.25,.26,.15,.63,.15,.23,.12,1.42,1.21,.64,.74,.76,2.06,.99,.88,2.09,1.39,3.4,3.66,1.88,1.01,2.87,3.6,.69,.33,.52,.05,.48,.1,.56,.52,.31,.61,.22,.81,.21,1.55,.51,1.62,.98,.86,1.12,.74,.89,1.23-.16,.32-.46,.28-.25,.41,.49,.68,.94-.27,.77-.03,.77,.43,2.4,2.1,.83,1.08,.62,1.81,.43,6.3,.38,1.7,1.15,2.55v1.48Zm116.4-267.87l.15-.03-.13-.18-.02,.22Zm.34-7.25v-.06l-.16,.08,.09,.11h0l.04,.04,.09-.06-.03-.14-.03,.02Zm12.08,.68l-.19-.11,.07,.28,.13-.17Zm.57-6l-.15-.06-.06,.11,.03,.05,.18-.1Zm-10.9,4.04l-.03,.12,.09-.02-.06-.1Zm7.14,9.73l.19,.06v-.08h-.19Zm-7.68-6.13v.25l.11-.08-.11-.17Zm-1.06-1.97h.12l-.09-.15-.03,.15Zm11.15,10.01l.27-.02-.13-.3-.14,.32Zm16.51-15.08l-.09,.11h.1v-.11Zm-2.26,1.11l.1-.02v-.17l-.11,.07v.12Zm1.3-11.55h.13l.07-.18-.19,.02v.16Zm.92,10.9l.03,.05h.09l-.06-.15-.06,.1Zm.07-16.21l.41,.23,.07-.08-.2-.22-.28,.07Zm-1.03,16.07l.09-.12h-.22l.13,.12Zm-.89-.45l.09,.05,.07-.08,.02-.17h-.17v.2Zm-.22-28.21l-.07,.21,.16,.08v-.15l-.09-.14Zm.97,28.19l-.03,.02v-.06l-.17,.08,.09,.11h.01l.04,.04,.09-.06-.03-.14Zm1.86-14.81v-.05l-.16,.08,.09,.11h0l.04,.04,.09-.06-.03-.14-.03,.02Zm-2.05,16.09l.09-.11-.14-.05,.05,.16Zm-.17-1.09l.02-.08-.08-.02,.06,.09Zm1.37,.06l.02-.16-.13,.06,.11,.1Zm9.6-9.93v-.06l-.16,.08,.08,.11h.01l.04,.04,.09-.06-.03-.14-.03,.02Zm-8.43-2h.07l.06-.16-.13-.02v.18Zm8.12,1.78l.13-.03-.16-.21,.03,.24Zm1.95,26.43l.1,.37,.27-.28-.38-.08Zm-.25-3.64h.13l-.08-.14-.05,.14Zm-.47-.19v.07h.08l.07-.08-.09-.07-.06,.08Zm-1.73-21.32l.22-.07-.26-.19,.03,.27Zm-5.4-5.31v-.06l-.16,.08,.09,.12h0l.04,.04,.09-.06-.03-.14-.03,.02Zm-1.18,5.8l.5,.63,.31,.23-.55-1.51-.26,.65Zm5.38,16.97l-.45,.63,.74,.15-.29-.77Zm.21,1.35l.25,.56,.69-1.23-.57,.12-.37,.55Zm-16.31,11.77v-.06l-.16,.08,.09,.11h.01l.03,.04,.09-.06-.03-.13h-.03Zm-1.77-23.62h.05l.08-.18h-.2l.07,.18Zm-.25,175.06l-.07-.29-.24-.58-.34,.22-.3,.69,.24,.31,.6,.23,.42,.39-.03-.88-.29-.09Zm-1.51-159.55l.19-.09-.22,.02,.04,.06Zm-6.26,2.73l.12-.02-.02-.22-.11,.24Zm8.18-18.76h.09l-.07-.18-.02,.18Zm-2.53,16.41h.1v-.13l-.1,.13Zm10.27,9.56l.22,.08,.04-.12-.26-.13v.17Zm-13.33-17.47l.14-.13-.2-.22,.06,.35Zm.35-5.89l.03,.04,.09-.06-.03-.14-.04,.02v-.06l-.15,.08,.08,.11h0Zm2.55,13.61l.1,.04v-.1l-.1-.04v.11Zm-3.71-14.11l.05,.25,.18-.15-.23-.1Zm1.81,182.97l-.64,1.45,.28,1.78,2.09-2.67,.27-.56-.94-.65-1.05,.65Zm-.56-176.99l.03,.04,.09-.06-.03-.14-.03,.02-.02-.06-.15,.08,.09,.11h0Zm6.65,16.61l.04-.08-.14-.11,.09,.19Zm.51-14.87h.03l-.34-.02,.31,.02Zm5.9,15.68l-.25,.11,.23,.04,.02-.15Zm-1.68,1.61l.12,.03v-.14l-.12,.11Zm-.84,.2l-.02-.06-.15,.08,.09,.12h0l.03,.03,.09-.06-.04-.14-.03,.02Zm2.02,.41l.18-.1-.05-.08-.13,.17Zm.53-20.83l-.34-1.28-.73-.61-1.02,.07-1.23,.71-.52,.8-.21,.93-.45,.93-1.2,.78,.05,.32-.09,.2-.16,.08,4.14,.08,1.37-.74,.38-2.26Zm-5.16,18.51v-.06l-.16,.08,.09,.11h0l.04,.03,.09-.06-.03-.14-.03,.02Zm.19,.03l.1,.1v-.1h-.1Zm.13,.34v-.06l-.16,.08,.09,.11h0l.03,.04,.09-.06-.04-.14-.03,.02Zm.35,.71l.23,.05v-.1l-.1-.11-.12,.16Z"/><polygon class="cls-25" points="315.2 385.98 319.51 386.52 322.02 387.61 326.09 388.33 328.15 389.69 331.85 390.66 332.58 389.95 333.65 387.71 334.26 387.05 334.95 386.83 335.42 386.9 335.82 387.25 336.3 387.84 336.72 388.58 336.92 389.38 336.88 390.21 336.59 391.02 337.52 391.77 340.24 392 341.53 392.59 342.07 393.57 342.47 396.06 342.86 396.77 344.92 398.23 345.68 399.08 346.44 400.26 346.77 401.27 346.93 402.31 347.22 403.16 347.94 403.64 348.7 403.45 349.62 402.87 350.72 402.35 351.96 402.33 353.96 403.51 355.7 405.54 356.98 407.93 357.58 410.2 358.97 409.95 362.46 410.08 363.39 409.67 364.19 409.14 364.88 409.04 365.48 409.95 365.47 411.32 365.04 412.68 365.04 413.83 366.31 414.59 368.03 414.76 368.4 414.88 368.99 415.35 369.41 415.88 369.61 416.55 369.59 417.11 370.07 416.91 372.08 416.53 374.11 416.58 380.19 418.27 383.69 418.4 384.48 418.69 385.21 419.36 385.15 419.62 385.14 419.81 385.04 419.92 384.69 419.88 385.22 420.94 385.2 421.88 384.97 422.89 384.85 424.09 385.1 424.85 386.04 426.95 386.15 428.25 385.49 429.43 387.61 429.24 389.06 428.29 390.48 427.61 393.64 426.78 394.41 426.79 395.69 427.24 396.28 427.28 396.36 427.04 396.34 426.56 396.37 426.05 396.61 425.75 397.13 425.7 397.77 425.78 398.4 425.94 398.92 426.14 399.43 425.1 400.27 424.75 401.23 424.64 402.08 424.32 402.69 423.69 403.23 422.64 403.73 422.04 404.66 421.6 405.36 421.68 405.87 421.55 406.2 420.42 406.05 420.21 405.31 419.59 405.14 419.3 405 417.7 405.02 417.42 405.79 417.1 406.98 417.18 409.11 417.56 410.37 417.54 414.48 416.88 416.58 416.91 417.51 417.63 418.8 420.59 420.01 421.91 421.52 423.18 422.88 424.66 423.62 426.65 427.16 424.7 428.33 424.33 428.96 424.43 430.15 425.13 430.7 425.27 431.06 425.07 432.04 424.24 432.65 424.01 433.45 424.02 435.01 424.28 435.76 424.19 436.51 423.62 437.13 422.76 437.89 422.07 439.08 421.97 439.85 422.52 440.72 424.62 441.4 425.55 441.82 425.78 442.95 426.16 443.44 426.41 447.06 429.25 448.48 429.75 447.82 430.96 446.38 434.7 446.04 436.04 446.61 437.36 446.26 438.24 445.5 439.03 444.85 440.06 444.63 441.5 444.83 444.5 444.71 445.99 443.02 450.64 442.65 452.9 443.56 454.72 444.4 454.98 446.05 454.35 447.22 454.74 447.86 455.42 448.32 456.37 448.51 457.44 448.37 458.49 447.06 460.1 440.96 463.23 440.31 462.9 439.89 462.24 439.21 460.54 437.15 464.5 436.67 466.8 438.18 467.74 439.13 468.05 441.88 470.45 443.42 471.39 443.58 471.86 443.61 472.84 443.05 474.6 441.52 475.91 435.75 479.14 434.21 480.48 433.98 481.79 435.87 482.98 433.1 483.75 422.11 483.49 419.51 483.1 418.97 483.13 417.66 483.72 410.83 484.59 403.4 483.79 401.51 484.49 400.48 484.19 399.31 483.98 399.29 483.48 401.09 483.29 401.16 482.03 400.13 480.52 398.63 479.56 398.97 480.19 399.98 481.47 400.38 482.27 397.49 482.3 396.09 482.51 394.92 483.06 395.7 483.36 396.32 483.24 397.05 483 398.18 482.92 398.2 483.53 396.38 484.38 394.34 484.4 392.7 483.49 392.12 481.51 392.92 481.83 393.24 482.02 394.27 480.87 394.25 480.36 392.87 479.8 391.28 477.77 390.26 477.19 390.58 478.35 391.06 479.3 391.34 480.15 391.01 481 389.83 480.39 386.42 479.69 384.94 478.98 383.52 476.69 382.89 476.34 381.96 476.3 379.32 475.87 378.15 475.93 374.94 476.66 370.44 476.97 369.47 477.44 370.02 477.85 370.62 478.14 371.21 478.2 371.72 477.95 373.99 478.39 380.36 477.44 381.07 477.53 382.12 478.04 382.71 478.53 383.75 479.7 384.44 480.16 384.47 480.77 382.96 480.58 381.86 480.42 379.48 479.82 379.5 480.37 386.08 481.43 389.54 482.39 391.13 483.83 390.61 484.82 389.17 484.64 387.56 483.88 386.47 483.14 385.27 482.59 364.54 479.63 362.02 478.59 341.87 470.18 332.18 464.75 326.67 462.55 320.76 461.39 318.04 461.48 315.94 461.06 302.91 460.9 297.12 459.47 284.48 458.73 281.87 459.24 280.95 458.77 280.23 455.31 279.54 454.02 278.64 453.02 277.71 452.25 275.24 450.74 270.06 448.35 265.45 445.49 258.17 442.2 256.8 438.39 256.72 437.1 256.88 435.77 257.27 434.46 257.87 433.26 258.79 432.26 260.95 431.02 261.91 430.21 262.61 429.03 263.11 427.83 263.75 426.66 264.9 425.59 272.41 420 274.06 418.26 274.89 417.67 278.38 416.23 279.55 416.12 281.01 416.44 283.13 417.98 284.32 418.42 285.46 417.76 285.48 417.3 284.87 416 284.77 415.38 284.97 414.71 288.19 408.6 289.73 406.81 291.69 405.21 293.76 404.19 302.24 401.88 302.73 401.36 302.68 400.08 302.42 399.76 301.39 399.29 301.03 398.96 300.87 398.43 300.68 397.19 300.57 396.81 300.08 395.95 299.84 395.65 299.37 395.23 298.81 395.01 297.14 394.84 296.61 393.7 297.06 393 297.84 392.4 298.32 391.59 298.06 390.65 297.46 389.86 297.09 388.95 297.56 387.64 298.67 386.77 299.84 386.84 300.73 387.69 301.01 389.19 302.06 388.38 303.96 385.95 305.35 385.32 306.61 385.44 307.53 385.88 308.43 386.18 309.68 385.88 311.42 383.97 312.22 383.63 312.37 385.2 312.76 384.57 312.85 384.38 315.2 385.98"/><path class="cls-16" d="M535.58,252.83l.38,.26,.37-.47-.32-.66-.15,.46-.29,.4Zm194.99-125.65v-.53l-.55,.02,.02,.41,.53,.11Zm115.1,170.38l-.02-.06-.15,.08,.09,.12h0l.03,.04,.09-.05-.03-.14-.03,.02Zm-2.96,4.23v-.06l-.15,.08,.08,.11h0l.04,.04,.1-.06-.03-.14-.04,.02Zm-7.02,4.06v-.06l-.16,.08,.09,.11h0l.03,.04,.09-.05-.03-.14-.03,.02Zm9.28,.61l-.02-.05-.15,.08,.08,.11h.02l.03,.04,.09-.06-.03-.14-.03,.02Zm-307.79-55.33l.03,.25,.36,.31,.22,.33,.31-.3-.04-.69-.43-.23-.43,.34Zm-82.07,220.87l-1.01,.18-1.26,.48,.32,.42,.52,.88,.32,.41-.55,.03,.03,.51,.35,.24,.34,.13,.97,.11,1.74-.39,.78-1.2,.09-1.27-.28-.57-2.36,.05ZM728.05,126.84h.64l.73-.21-.52-.21-.56-.15-.57-.09-.59-.03,.35,.46,.52,.22Zm-149.3,85.29l1.37-1.08,1.57-.49,.81-.38,.5-1.53,1.46-.66,.51-.59v-.57l-.78-.22-2.86,.24-.99,.52-1.16,1.12-.92,1.28-1.26,2.61-.77,1.18,.05,1.09,2.49-2.53Zm-79.05,32.43l1.11-.19,2.06-.95,1.21-.35h1.46l-.22-.92,.62-1.35-.51-.48h-.92l-1.04,.33-1.11,.21-1.18-.37-4.17,2.37-.21,1.25,1.23,.46,1.67-.03Zm-39.01,220.59l-1.16,.08-2.12,.55-.8-.2-.99-.32-.69,.49-.96,1.56-.13,1.42,1.74,.94,3.72,1.03,1.14-1.21-1.09-3.15,1.35-.7-.02-.5Zm64.92-237.9l1.77-1.82,1.1-.76,1.42-.56,2.86-.83,1.34-.62,3.31-2.44,5.12-2.88,1.22-.53,.7-.08,1.33,.16,.69-.05,.46-.23,1.04-.76,.52-.28,1.37-.29,3.05-.11,1.43-.25,1.25-.51-.64-.08-2.93,.18-4.17-.78-1.39,.08-6.12,1.66-1.89,.92-4.82,3.12-4.13,1.88-3.26,1.86-2.28,2.33,.6,2.46,1.05-.78Zm263.29,83.21l-2.25-2.9-1.56-3.11-1.58-5.05-1.01-1.44-4.19-2.67-10.66-3.28-8.64-3.82-.85-.23-.95-.49-1.15-.98-1.24-.58-1.24,.7-.36,1.49,1.23,.63,1.65,.41,.86,.86,.72,.47,3.42,1.02,1.26,.09-.25,.81-.16,.31,.52,.52,1.32-.67,1.16,.18,2.39,1.23,1.39-.83,1.01,.85,.67,1.49,.33,1.11,.38,.79,.47,.44,.46,.34,.36,.47,.41,.83,.04,.27-3.39,1.47-.59,.43-.43,.53-.62,1.21-.39,.48-1.47,.72-1.01-.48-.62-1.37-.28-1.94-.57,.04-.29,.53-.12,.48,.11,.52,.43,.65-.42,.39-.5,.27-.45-.11-.23-.72,.05-.85,.24-.41,.32-.28,.32-.44,.41-1.2,.37-.76,.45-.35h.67l.81,.1,.69,.23,.3,.38,.49,1.33,.91,.3,.87-.57,.33-1.23-.16-2.4-.19-.57-.28-.33-.07-.31,.43-.51-.03-.49-1.3,.35-5.08-.66-.59-.15h-.5l-.5,.36-.07,.65,.27,1.79-.32,.4-2.74,.53-1.58,.58-1.16,.77-1.16,2.4-.62,.41-.79-1.51-.57,.03,.08,1.05-.36,.59-.58,.07-.61-.53-.22-.78v-2.98l-.72-2.3-.83,.15-1.03,.85-1.29-.21-.03-.49,.43-.21,.6-.6,.49-.38-.73-.95-.84-.84-.95-.59-2.24-.34-1.34-.5-1.11-.71-.5-.82-1.21-1.56-7.09-2.62-1.69,.73-.74,.45-.65,.65,.94,.62,1.95,2.49,1,.56,6.04,1.74h.84l.73,.13,.34,.38,.29,.52,.6,.51,3.4,1.58,1.04,.89-1.13,.92-1.69,.8-1.79,.57-1.4,.25-1.64-.26-1.33-.83-1.02-1.19-.73-1.32-.03-.49,.83-.48,.5-.17,.75-.02-.03-.55-3.77,.7-1.51-.16-1.15-1.25,.57-1.32-.44-1.21-.99-1.02-1.08-.77,.87,2.3-.69,.79-1.68-.29-2.06-.94-1.4-1.32-1.44-2.11-.72-1.98,.78-.94,1.61-.86-.56-1.77-1.38-2.03-1.2-2.55-.76-.4-.71,.28-.57,2.25-1.5,.81-.18,1.24-.53,.03,.11-.97,.2-.91-.06-.66-1.45-.42-.53-.59-.7-1.78,.93,.06,1.35,.24h.92l1.3-.5,1.01-.26,.89,.09,.91,.91,2.58,4.36,.52-.03,.15-.28,.08-.09,.08-.06,.19-.19-1.05-1.09-.99-1.41-.57-1.35,.16-.88,.57-.15h.91l.84,.08,.38,.16-.14,.53-.4,.52-.93,.93,2.2,.64,.51,.3,1.04-.8,.52-.73,.7-.54,1.58-.29,1.02,.41,1.14,.86,1.08,.55,.82-.47,.52-.03,2.72,2.72,.73,.95-.36,.14-.32,.26-.35,.16,.96,.84,1.04,.17,2.35-.12,.75,.28,1.53,.95,2.23,.62,3.07,2.13,1.4,.45,1.13-.22,.49-.44-.09-.62-.57-.74-.71-.32-2.76-.29-1.44-.53-1.48-.76-5.44-4.36-4.58-3.21-8.35-7.18-9.41-6.63-4.69-4.74-2.51-1.14-.7-1.1-.66-.63-1-.25-10.54-.24-12.37-1.78h-.96l-.53,.59,1.02,.44,11.9,1.61,1.58,1.01-3.77,.21-1.73,.72,.34,1.5-4.01,.44-1.66-.32-.76-1.63-.46-.51-.82,.99-.61,1.4,.17,.68-1.56,.19-.6-.26-.81-.86-.65-1.22-.43-1.63,.11-1.45,1.37-.93-.67-.5-1.68-.78-2.72-.4-13.11-4.75-9.32-2.21-5.38,.47-6.67,4.89-2.26,1.03-2.67,.66-12.21,1.15-9.77,1.35-3.24-.2-2.88-.53-5.07-1.67-1.15-.22-1.19-.48-1.29-.93-1.06-.45-.51,.96-.17,.17-.23,.15-.15,.26,.07,.54-.57,.03-.25-.87-.04-1.09-.24-.92-.88-.35-1.27-.2-1.98-1.07-1.1-.22-4.33-.35-2.19-.59-1.32-.89-.84,.47-1.69,.38-.59,.44-6.55-1.51-2.01,.26-.34,.91,2.38,.49,4.95,.48,1.31,1.56-.6,1.97-1.56,1.9-2.91,2.34-.77,.44-.97,.32-11.09,.92-2.67,.78-2.64,1.2-.85,.76-1.83,2.21-7.19,4.93-1.27,.65-1.53,.31-1.9-.03-1.24-.27-2.02-1.17-2.43-.87-2.59,.04-15.16,1.98-3.32-.14-.39-.26-.96-.5-.97-.3-.42,.38-.3,.16-1.25,1.06-.2,.25-1.37,.28-4.73,1.62-2.96,.43-2.79-.13-8.38-1.56-7.27-.5-7.13-2.19-8.15-1.54-1.54,.22-1.15,.76-.41,1.39-.4,.35h-2.04l-.75,.08-.35,.4-.75,1.34-.41,.47-2.49,.58-2.4-.92-7.55-6.36-.46-.55-.69-.53,.5-1.28,1.42-2.1-2.65,1.76-.77,.95,.83,.75v.5l-1.32-.07-3.55-1.96-1.33-.41-1.4-.12-1.1,.39-.41,1.16-1.39,.45-6.71,.69-2.28,.86-1.25,.96-1.29,.44-3.31,.18-.27,.26,.35,.56,.73,.55,.87,.22,.46,.35-.14,.81-.53,1.11-4.47,2.92-3.1-.32-.77,.29,.45,1.26-1.88,1.3-4.38,5-2.04,.99-1.94-.53-3.64-2.41-.52-.2-.92,.38-.22,.74,.1,.88-.48,1.1-.51-.59-1.33,.62-1.13,.67-1.23,.51-1.65,.09-.43,.61-2.23,4.16-3.53,3.7-7.73,6.49h0l-6.69,5.55-6.67,5.52-13.28,10.97-9.73,8.02-2.71,1.39-7.94,2.92-2.39,1.3-1.56,1.36-.9,1.49-1.13,3.79,1.58,1.39,.06,2.14-.91,2.34-1.31,1.98-1.91,1.75-.59,.97-.03,1.53,.41,1.12,.72,1.03,1.66,1.87,.78,1.2,1.61,3.55,.9,1.08,.74,.61,.5,.71,.19,1.38-.18,.64-.81,.94-.27,.52,.46,4.09v1.45l-.32,1.36-.9,.92-.91,.1-2.01-.62-.98-.14-1.34,.22-.59,.42-.36,.65-.69,.91-2.42,2.22-1.07,1.23-.74,1.44-.63,.71-1.75,.5-.79,.55-.48,1.08-.1,1.29,.25,2.53,4.31,.55,2.5,1.08,4.08,.73,2.06,1.36,3.7,.97,.73-.71,1.07-2.24,.61-.67,.69-.22,.47,.07,.4,.35,.48,.6,.42,.73,.2,.81-.04,.83-.28,.81,.93,.75,2.72,.22,1.29,.59,.54,.99,.4,2.49,.38,.71,2.07,1.46,.76,.85,.75,1.18,.33,1.01,.16,1.04,.29,.85,.72,.48,.76-.2,.92-.58,1.09-.52,1.24-.02,2.01,1.18,1.74,2.03,1.28,2.39,.6,2.28,1.39-.26,3.49,.13,.93-.41,.8-.53,.69-.1,.6,.91v1.37l-.44,1.36v1.15l1.27,.76,1.72,.17,.37,.12,.59,.47,.42,.53,.2,.67-.02,.57,.48-.2,2.01-.38,2.02,.06,6.09,1.69,3.5,.13,.79,.3,.73,.66-.06,.26v.2l-.12,.1-.35-.03,.53,1.06-.02,.94-.23,1-.12,1.2,.25,.76,.95,2.1,.11,1.3-.66,1.18,2.12-.19,1.45-.95,1.42-.67,3.17-.83h.76l1.28,.46,.59,.03,.08-.24-.02-.48,.03-.51,.24-.29,.52-.05,.64,.08,.64,.16,.52,.2,.51-1.04,.85-.35,.96-.1,.85-.33,.61-.62,.54-1.05,.5-.6,.93-.45,.71,.09,.51-.13,.34-1.13-.15-.21-.73-.62-.18-.29-.14-1.6,.02-.28,.77-.32,1.19,.08,2.13,.38,1.26-.02,4.11-.67,2.09,.03,.94,.71,1.29,2.96,1.2,1.32,1.51,1.27,1.36,1.48,.74,1.98,3.54-1.95,1.17-.37,.63,.1,1.2,.7,.55,.14,.36-.2,.99-.82,.6-.24h.8l1.56,.27,.76-.09,.74-.57,.62-.86,.76-.69,1.19-.1,.77,.55,.86,2.1,.69,.93,.42,.23,1.13,.38,.49,.25,3.62,2.84,1.42,.5-.66,1.21-1.44,3.74-.34,1.34,.57,1.32-.35,.88-.76,.79-.64,1.02-.22,1.44,.21,3-.12,1.49-1.7,4.66-.36,2.26,.91,1.82,.83,.25,1.65-.63,1.17,.39,.64,.68,.46,.95,.19,1.07-.14,1.05-1.3,1.61-6.11,3.12,1.2,.39,.55,.1h.77l.29,.25,.02,.55,.16,.55,1.53,.44,1.91,1.05,1.43,.21,2.21-.71,2.08-1.68,1.07-2.2-.83-2.27,.73-.95,1.06-.98,.97-.25,.48,1.21-.2,2.3,.29,.87,1.1,.37-.79,2.07-.11,.8,.54-.02,.98-1.05,1.39,.06,1.57,.48,1.52,.25,.02,.51-1.14,.05,.03,.56,.77,.29,.71-.06,1.22-.36,2.76-.08,.5-.08,.73-.69-.08-.44-.29-.58,.1-1.09,.36-.81,.4-.45,1.3-1.05,.79,.73,.63,.1,1.59-.37,.72,.12,.57,.36,1.21,1.01-.08,.56v.48l.16,.67-2.49,1.11-1.24,.37-1.09-.19-.56,.55-1.48,2.32-.68,.64-1.29,.67-.65,.47-.64,.8-.11,.67,.3,.64,.59,.7,.39,.09,.52-.14,.46-.05,.22,.33,.1,.05,.55,1.27,1.65,1.94,1.67,2.74,1.24,3.15,.36,3.11,.49-.02,1.46-.52,2.61,.16,4.66,.99-.8,.28-2.41,.49-.5,.23-.08,1.3,.15,.42,.55,.78,1.1,1.12,1.23,.63,1.6,.23,2.19-.03,.03,.5-1.06,.46-.83,.62-.53,.82-.2,1.05-.75,.57,18.05-2.06,1.18,.06,1.88,1.03h.94l.36-1.33,1.61-.89,1.96-1.38,.85-1.01,1.71-2.99,.43-.37,1.14-.64,.38-.44,.18-.8-.33-.28-.45-.18-.22-.5,.46-4.29-.14-.19-.67-1.27-.17-.46,.13-.22,.46-2.3,.5-1.11,.6-.83,3.64-3.45,1.02-.77,1.25-.43,1.37,.05,4.66,2.01,.75,.2,.74-.24,1.09-.82,1.04-1.06,.55-1.09,.11-1.25-.59-2.28-.2-.48-.62-.99-.53-.44-.55-.1-.48-.22-.34-.79,.06-1.17,.89-2.27,.07-1.27-3.04-9.55-.11-1.37,.36-2.61-.12-1.29-.33-.51-1.05-.71-.33-.4-.18-.72v-5.72l.15-1.13,.11-.51,.36-.34,.88-.67,1.74-.99,1.65-.22,3.46,.26,6.37-1.55,3.1-.34,2.68,1.3,1.41,.32,1.13-.42,1.03-.61,1.14-.22,1.31,1.21,.48,.31,.76,.2,.55,.05,4.05-.47,1.43-.42,1.15-.63,.86-1.08,.39-1.24,.49-2.42,1.14-2.03,4.87-5.79,2.5-4.37,.79-.59,.91-.41,.92-.55,.87-1.01,.51-1.05,.27-.79,.38-.72,.84-.84,1.05-.62,5.96-1.2,.03,.89-.76,1.77,.34,2.12,5.76,3.72,1.82,2.16,.55,.46,1.11,.32,.71-.19,.69-.33,1.07-.13,1.76,.67,1,1.34,.86,1.6,1.33,1.45,1.77,.51,1.83-.16,1.6,.05,1.11,1.11,.2,.07,.67-.7,.58-1.33,.1-1.25-.5-.91-1.2-.3-.34-.68,.24-1.57,.64-2.46v-1.77l.36-.45,.83,.14,1.39,.02,.97-.53,1.52-1.46,.68,.16,.48-.02-.06-.38,.12-.1h.22l.23-.11-.3-.83,2.7-.99,.72-.83,.69-1.16,1.68-.67,1.95-.46,1.44-.57,.67-1.14,.1-1.29,.39-1.09,2.78-.93,1.29-.85,1.94-1.7,.84-1.18,.78-1.6,.56-1.56,.45-2.08,.68-1.3,.83-1.23,.72-.76,.33-.08,.85,.08,.33-.08,.2-.27,.19-.6,.52-.7,.29-.55,.41-.48,.72-.22,1.81-1.03,.81-.22,2.96-.17,1.92-.45,1.92-.76,1.55-1.06,.82-1.38-.17-1.82-1.1-1.54-1.46-1.19-1.3-.76,2.05-1.76,.06-.51-.25-1.22,.06-.51,1.69-2.02,.25-.53-.07-4.06,.22-2.24,.56-1.17,1.44,.28,1.32,1.3,1.39,.91,1.6-.87,2.63-2.94,.5-1.38-2.02,.11,.43-.64,1.63-1.72-2.3-1.45-.46-.76,1.2-.4,.39-.21,.22-.49,.24-2.99,.62-1.29,1.02-1.06,1.32-1,1.34-1.07,3.38-3.65,1.24-.81,4.61-1.11,2.05-.2,2.06,.49,1.79,1.18,1.25,1.83-.23,.24-.57,.82-.03,.16,1.56,.11,.26,.95v1.07l1.64,.99,.89,1.29,1.33,2.67,1.39-.95,1.5,.08,3.09,1.12,1.78,.28,5.69-.16-.26,.58-.14,1.58,1.15-.43,.86,.4,.86,.65,1.21,.29,.85-.3,1.95-1.24,2.84-1.19,1.33-1.85,.96-2.08,.94-1.57,.81,.73,.68,2.05,.62,.39,1.2,.04,1.91,.31h.87l1.55-.93,.29-1.78-.62-3.73,.37-.97,.97-.13,1.1,.31,.73,.35,.63,.47,1.95,1.87,.97,.33,1.14-.16,1.86-.67,.45-.3,.29-.4,.38-.36,.7-.19,.66,.07,.38,.17,.33,.02,.51-.37-.03-.6-.72-.62-.58-.7-1.01-1.82,.81-.76,.57-.07,1.85,1.02,.22,.36,.31,.27,.83,.06,1.31-.12,.41,.19,.19,.61,1.35,.08,7.65-.88-.44-.63-.03-.74,.27-1.85,.96,.47,1.34,1.26,1.01,.21-.12-.33-.43-.72,.57,.2,.32,.07,.28,.18,.48,.54,.9-.91,1.34-.86,1.5-.59,1.43-.1-.63-.37-.41-.37-.61-.9,4.31-.53,1.58-.73-.24-1.23,.98-.12,.8,.06,.6,.32,.34,.66,.58-.04-.88-2.24,.25-.91,1.41-.78,1.52-.31,1.73-.02,1.46,.33,.71,.8,.58-.04,.27-.99,.1-1.08,.32-.89,1.85-.83,1.84-1.66,1.1-.4-.17-.27-.24-.55-.19-.23,1.17,.26,.46,.18-.31-1.05,.04-.93,.41-.37,.81,.66-.04-1.21,.1-.5,.38-.56-.57-.74,.24-.42,.78-.14,1.03,.11,.43,.37,1.04,1.39,.74,.35,1.81-.33,1.5-1.04,1.13-1.41,.65-1.43,1.01,.71,1.02,.33,.84,.45,.47,1.03,1.12-.84,1.32-.17,3.44,.14-.89,.51-.03,.42,.6,.36,.96,.31,.32-.08,3.44-.17,1.98-1.07,1.07-.27,2.62-.02,1.08-.22-9.81-3.17-2.48-1.74Zm-8.31-76.74l-.17-.23,.05,.26,.13-.03Zm.39,.26l-.31-.29,.2,.38,.11-.1Zm3.48,5.55l-.13-.09-.06,.12,.12,.03,.08-.06Zm1.52,2.22l-.12,.13,.07,.05,.05-.19Zm-.47,.65l-.06,.11h.07v-.11Zm.26-.03v.12h.03l-.03-.12Zm.56,.18l-.06-.17-.06,.16,.03,.07,.09-.06Zm.15,.74l.06-.19-.13,.02,.05,.12,.03,.05Zm-3.23,4.21l-.29-.19,.27,.22,.02-.03Zm.06,.13l-.05-.08-.03,.08h.08Zm.89,1.54h-.15l.11,.2,.04-.2Zm54.49,43.9h.08l-.22-.34,.15,.34Zm-5.39,1.31l-.14,.36,.15,.14,.1-.19-.1-.31Zm7.63,.29l.05-.34-.34,.06,.29,.28Zm1.14,1.93l.15,.07,.09-.03-.04-.34-.2,.3Zm-3.95,.9l.06-.33-.24,.22,.19,.1Zm6.43,.01l.23-.2h-.36l.13,.2Zm1.61,.93l.02-.05-.2-.16,.17,.22Zm.27,.99v.28h.16l-.16-.28Zm-13.02,1.36l.29-.3-.39,.13,.1,.16Zm8.32,1.6l.11,.13,.06-.08-.05-.24-.13,.19Zm-56.83-62.62l.03,.04,.09-.06-.03-.14-.03,.02v-.06l-.16,.08,.08,.11h.01Zm1.79,3.17l.03,.04,.09-.05-.04-.14-.03,.02v-.06l-.16,.08,.09,.11h0Zm-3.36,4.99h0l.03,.04,.03-.02,.11,.09v-.16h-.05l-.03-.11-.03,.02v-.06l-.16,.08,.08,.11Z"/><polyline class="cls-17" points="323.88 109.43 323.55 128.28 323.23 147.14 322.92 166.01 322.63 184.87 322.35 203.75 322.09 222.64 321.85 241.53 321.61 260.43 321.56 265.4 322.24 266.44 322.41 266.17 323.14 265.78 324.05 265.45 324.77 265.39 326.19 264.76 332.21 264.87 334.44 264.43 336.96 264.34 343.96 265.94 346.97 264.71 348.08 265.17 350.8 267.32 353.5 266.57 357 267.24 359.71 268.73 360.06 270.42 361.86 270.66 369.93 275.39 369.07 279.07 369.25 279.61 371.37 279.54 372.21 279.19 372.44 278.49 372.33 277.89 372.14 277.81 372.11 277.47 371.84 277.19 371.57 276.82 371.56 276.22 371.95 276.08 372.68 276.14 373.38 276 373.68 275.27 373.94 273.96 374.6 273.05 375.32 272.32 375.76 271.6 375.81 270.35 375.16 268.45 375.04 267.19 375.62 267.18 375.62 268.02 375.65 268.28 376.14 268.27 377.05 267.63 379.36 267.99 380.46 267.53 378.59 265.9 377.55 265.17 376.09 264.55 375.46 263.76 374.9 262.85 374.34 262.18 370.91 260.38 369.9 259.21 371 257.85 372.21 258.51 374.47 259.41 375.39 259.93 377.75 262.26 379.42 263.15 383.63 266.45 391.84 269.98 394.56 272.28 395.41 272.63 398.96 275.55 401.73 276.63 400.81 277.01 400.59 277.74 400.69 278.62 400.2 279.72 399.69 279.13 398.36 279.75 397.23 280.42 396 280.93 394.35 281.02 393.92 281.63 391.69 285.78 388.16 289.48 380.43 295.97 380.43 295.97 373.73 301.52 367.07 307.03 353.79 318 344.06 326.02 341.35 327.41 333.42 330.33 331.03 331.63 329.47 333 328.57 334.49 327.43 338.28 329.02 339.67 329.08 341.81 328.17 344.15 326.86 346.14 324.95 347.89 324.36 348.86 324.33 350.39 324.74 351.52 325.47 352.54 327.12 354.41 327.9 355.62 329.51 359.17 330.41 360.25 331.15 360.87 331.65 361.58 331.84 362.96 331.66 363.61 330.85 364.54 330.58 365.06 331.05 369.15 331.05 370.6 330.73 371.96 329.82 372.87 328.91 372.98 326.9 372.35 325.92 372.21 324.58 372.43 323.99 372.85 323.62 373.5 322.93 374.41 320.52 376.63 319.45 377.86 318.71 379.3 318.08 380.02 316.33 380.52 315.53 381.07 315.05 382.15 314.95 383.45 315.2 385.98 312.85 384.38 312.76 384.57 312.37 385.2 312.22 383.63 311.42 383.97 309.68 385.88 308.43 386.18 307.53 385.88 306.61 385.44 305.35 385.32 303.96 385.95 302.06 388.38 301.01 389.19 300.73 387.69 299.84 386.84 298.67 386.77 297.56 387.64 297.09 388.95 297.46 389.86 298.06 390.65 298.32 391.59 297.84 392.4 297.06 393 296.61 393.7 297.14 394.84 298.81 395.01 299.37 395.23 299.84 395.65 300.08 395.95 300.57 396.81 300.68 397.19 300.87 398.43 301.03 398.96 301.39 399.29 302.42 399.76 302.68 400.08 302.73 401.36 302.24 401.88 293.76 404.19 291.69 405.21 289.73 406.81 288.19 408.6 284.97 414.71 284.77 415.38 284.87 416 285.48 417.3 285.46 417.76 284.32 418.42 283.13 417.98 281.01 416.44 279.55 416.12 278.38 416.23 274.89 417.67 274.06 418.26 272.41 420 264.9 425.59 263.75 426.66 263.11 427.83 262.61 429.03 261.91 430.21 260.95 431.02 258.79 432.26 257.87 433.26 257.27 434.46 256.88 435.77 256.72 437.1 256.8 438.39 258.17 442.2 255.36 441.67 233.89 432.74 225.28 430.11 221.06 429.28 218.95 429.14 214.42 428.29 199.3 428.78 178.67 430.52 172.34 429.97 159.93 426.97 141.08 419.9 136.52 416.94 134.16 416.16 131.02 413.25 112.1 401.78 100.56 391.72 84.58 380.55 86.14 380.26 87.56 378.49 89.26 373.59 90.93 370.39 91.23 369.12 91.13 367.57 89.66 363.52 89.6 362.93 89.69 361.72 89.63 361.08 88.86 359.05 88.68 358.37 88.59 356.63 88.97 355.64 90.61 353.68 91.49 351.19 91.19 346.07 91.43 343.35 92.37 342.39 93.36 342.09 94.39 341.96 95.44 341.49 96.25 340.53 97.79 336.86 87.27 323.52 86.65 322.19 86.6 320.65 87.12 319.2 88.57 316.64 92.4 309.89 97.8 300.36 103.99 289.43 110.18 278.51 115.56 269 119.37 262.26 120.81 259.72 122.58 256.59 123.52 255.37 124.79 254.72 128.39 254.67 139.34 254.54 150.27 254.4 161.19 254.25 172.11 254.08 183.03 253.92 193.93 253.73 204.83 253.54 215.72 253.33 222.81 253.2 224.35 252.99 225.76 252.44 226.06 252 226.58 250.83 226.8 250.15 226.35 250.34 226.15 250.4 226.01 250.48 225.73 250.77 225.14 250.78 224.81 249.4 226.69 247.77 225.66 246.82 225.65 246.31 227.37 245.57 226.84 244.75 224.52 243.49 224.19 241.95 224.73 240.83 225.69 240.07 226.61 239.6 225.54 239.2 224.75 238.59 224.61 237.78 225.48 236.78 225.83 237.12 226.08 237.25 227.1 237.37 226.8 236.94 226.3 236.04 226 235.61 226.36 235.65 226.46 235.53 226.45 235.32 226.53 235.1 227 235.41 227.66 235.58 228.14 235.37 228.13 234.51 227.65 234.71 226.49 234.31 225.68 233.74 226.23 233.43 227.68 232.93 228.82 231.8 229.26 230.48 228.58 229.44 228.04 229.45 228.05 230.05 227.52 230.06 227.7 228.9 228.44 228.47 229.52 228.53 230.73 228.84 229.79 227.33 229.68 226.87 229.65 225.8 229.46 224.63 229.02 224.52 228.32 224.85 227.43 225 226.96 224.79 226.38 224.42 225.56 224.07 223.08 223.79 222.87 223.33 222.96 222.63 222.53 221.74 222.06 221.29 221.3 220.78 220.42 220.54 218.54 221.48 218.05 220.76 217.65 219.03 216.89 219.03 214.86 219.68 214.44 219.89 213.97 219.64 212.86 219.43 211.59 219.4 210.62 219.7 211.02 218.91 211.71 218.31 212.25 217.69 212.19 216.83 211.27 216.29 210.06 216.23 209.38 215.94 210 214.68 209.7 213.37 210.2 211.98 210.44 210.81 209.36 210.18 209.14 210.73 208.87 211 208.47 211.14 207.81 211.27 207.8 210.76 208.81 208.84 207.69 205.92 202.27 198.32 201.11 197.42 198.28 196.05 197.1 195.1 197.36 194.13 197.35 193.57 196.27 192.97 195.54 193.6 194.62 193.61 189.18 191.99 187.71 191.17 185.4 188.88 183.76 188.1 185.01 186.74 184.81 186.1 183.74 185.93 182.37 185.94 182.24 186.28 182.53 187.02 182.62 187.77 181.85 188.13 181.44 187.9 180.44 186.84 179.98 186.47 176.96 185.43 176.01 184.61 175.64 182.92 175.19 182.05 172.38 178.73 172.07 178.02 171.65 176.46 171.23 175.95 170.39 175.81 168.5 176.03 167.71 175.71 164.89 172.68 164.15 171.55 163.81 170.73 163.39 169.29 163.06 168.72 162.33 168.3 160.72 167.89 160.41 167.37 160.24 166.1 159.78 164.63 159.09 163.35 158.22 162.62 156.07 162.52 153.97 162.87 152.37 162.61 151.72 160.66 150.5 160.01 148.07 159.53 146.24 158.7 146.56 157.41 147.15 157.3 181.62 157.28 181.33 112.37 181.95 111.67 183.56 111.21 186.93 111.18 204.11 111.05 221.26 110.9 238.4 110.72 255.53 110.52 272.63 110.28 289.73 110.03 306.81 109.74 323.88 109.43"/><path class="cls-17" d="M411.02,89.88l-.15,1.42,.6-1.3-.45-.12Zm-1.41,14.89l.63-.3-.85-.11-1.2-.07,.5,.65,.92-.18Zm1.25,10.88l-.39,1.3v1.33l.43-1.16-.04-1.46Zm-2.1,41.88l-.54-.31-.32,.7,.02,.69,.18-.03-.02-.17,.42-.34,.25-.54Zm44.23-.11l.31,.09,.14-.16-.36-.23-.09,.29Zm-40.01,15.08l.22,.46,.2,.05-.22-.86-.2,.35Zm-1.81,2.52l.15,.11,.96-.43-.63-.09-.48,.41Zm-2.37,8.34l.18,.56,.35-.76-.48,.22-.05-.02Zm-.3-.33l.2,.3,.1,.04-.44-1.39,.14,1.05Zm-.84,4.45l.28,.39,.08,.23h.17l-.28-1.12-.25,.51Zm24.41,7.25l.66-.26,.42-.81-.72,.47-.36,.6Zm-28.98,5.04l.09,.3,.06,.35,.22,.24-.11-1.11-.27,.21Zm-8.54,12.77l-.35,.65,.18,.06,.26-.14,.83-.12-.24-.42-.68-.02Zm19.26,6.24l.25-.05-.13-.26-.13,.31Zm-10.96,17.95l.03-.08-.1-.21,.08,.29Zm-5.02,9.18l.2,.2,.02-.05-.02-.26-.2,.11Zm-5.34-4.01v-.06l-.16,.08,.08,.12h.01l.03,.04,.1-.05-.03-.14-.03,.02Zm8.59-113.97l-.16-.64-.36,.43-.45,.95,.05,.61,.43-.36,.34-.68,.16-.31Zm-1,1.4h-.17l.11,.47,.13,.6,.04,.39,.09-.13,.17-.06,.33-.33,.02-.42-.27-.49-.46-.03Zm54.17,6.11l-.83-.1-.64,.57,.03,.47,1.16,.48,.38-.22,.24-.56-.34-.64Zm-45.29,46.15l.08,.97,.12,.4,.34-.99v-1.03l-.53,.66Zm3.17-68.54l-.28-1.38,.08-1.45,.3-.76-.38,.06-.37,.75-.05,.94-.12,.75,.39,.34,.06,.54-.31,.46-.35-.13-.28,.79,.16,.43,1.14-1.34Zm35.64,44.79l-.06,1.27,.29-.89,.81-1.01,.03-.5-.59-.36-.48,1.5Zm-34.73,7.97l-1.31,.16-.43,1.26,.53-.38,.84-.06,.32,.03,.18-.63-.13-.38Zm-49.66,73.75l-.02-.3-.55,.72-.03,.4-.36,.2,.22,.29,.35,.3,.27-.39,.14-.3,.39-.38-.55-.39,.15-.16Zm39.98-107.79l-.14-.23-.61-.37-.48,.08,.17,.7,.34,.46,.51,.48,.21-1.11Zm5.99,10.02l.1,.53,.56,.78,.57-.63-.67-1.13-.56,.44Zm-.19,8.21l-.42-.86-.24,.15-.22,.81v1.54l.21,.62,.09-.08,.44-.78,.15-1.4Zm13.18-73.03l.25-.82,.03-.41-.06-.33-.28-.13-.2-.02-.27-.05-.03,.14,.13,.34-.03,.17-.25-.19-.29,.49-.18,1.38,.45,.37,.71-.96Zm-5.62,8.15l.27,.05,.63-.5,.42-.85-.08-.86-.19-.32-.13,.12-.13,.3-.13,.45-.39,.36-.39,.23-.13,.28,.13,.32,.11,.41Zm-1.25,1.26l.61-.57,.15-.84-.24-.22-.43,.2-.24,.02-.38,.27-.54,.81,.24,.5,.83-.17Zm-7.56,48.91l.16,.67,.53,.04,.31-.74v-.49l.21-.37,.15-.8-.76-1.04-1.47-1.06-1.16-.42-.51,.36v.48l.24,.22,.27,.4,.46,.55,.68,.29,.62-.11,.11,.36,.15,1.67Zm1.42-12.99l-1.09-.87,1.11,4.44,.74,1.9,.41,.77h.53l-.89-4.29-.82-1.94Zm18.95,18.14l-.94,.89,.88,.81,.33,2.03,.08,4.89,.16-.42,.19-.33,.29-.23,.43-.16,.03,.28v.83l.53-.02-.07-1.91,.1-.8,.34-.61-1.42-3.84-.94-1.41Zm-20.4-23.85l.64-2.64-.89,.43-4.31,3.13-1.6,.79-.41,.49-.11,.24,.02,.39,2.51-.29,2.39-.87,1.76-1.66Zm21.94,12.28l-1.11-.23h-.93l-.71,2.21-.02,.51,.59,.06,.71-.43,.83-.79,.68,1.01-.09,1.7-.57,1.6-.72,.72-.97-.11-1.17-.45-.78,.09-1.53,1.7-1.32,1.03-.97,.95-.59,1.29-.25,3.89-.63,2.87-.13,1.71-.1,.3-.03,.28-.09,.27-.28,.27,1.14,1.07,.03-1.15,.33-1.02,.36-.83,.18-.59,.38-3.62,.49-1.98,.87-1.01,.95-.78,.76-1.33,1.58,1.15,1.09-.76,.75-1.4,.98-1.41,1.51-3.19,.28-1.23-.52-1.59-.98-.77Zm-9.28-38.8h-.48l-.09,.73-.16,.49-.69,1.08-.6-1.14-.02-.55,.64-.34,.43-.44,.28-.61,.16-.85,.53,.22,.54,.35,.71-1.47,1.46-4.39,.54-.93,1-.97,.08-1.8-.8-1.08-1.66,1.18-1.22-.49-.74,.74-1.03,4.27-.03,.79-.14,.64-.36,.39-.35,.3-.16,.36-1.28,5.08-.26,2.52,1.22-.1-.34,2.09-.97,1.44-2.75,2.1-.25,.04h-.81v.54l3.32-1,2.35-2.42,1.41-3.26,.52-3.5Zm-22.98,40.9l-.76-.65-.61-1.21-2.8-1.33-.97-.96-.39-1.92,.31-1.74,.78-1.51,1.95-2.45,.58-1.37,1.71-6.72,.76-6.74-.52-2.07,3.04-6.4,1.3-.93,2.71-7.49,.22-1.27,1.03-1.96,.22-1.27,.42-7.41-.86-9.52-.27-.43-.74,.16-.78,.37-.62,.46-.55,.98-.67,.3-.55-.18v-.87l.33-.36,1.74-.8,1.5-1.22,.41-.75,.12-1.14-.41-.29-.9,.15-2.65,.88-2.28,1.68-1.63,.29-1.02-.29-2.26-1.05-1.73-.2-1.27,.27-1.21,.6-2.51,1.9-1.26,1.49-.67,.5-.59,.05-.23-.36,.41-.72,1.72-2.28,.69-1.27,.41-1.18-3.65,1.75-1.09-.04-.91-1.24,.54-1.18,5.87-4.44,1.46-2.01-1.36-1.18v-.3l-.5-.07-4.77,.15-.58,.18-.45,.26-.45,.09-.6-.34-.76-.7-.41-.14-.52,.15-.83,.44-1.53,.59-.68,.11-.8-.21-.72-.38-.78-.07-2.35,1.91-.57,.61-.38,.88-.36,2.45-.65,1.96-.26,2.06-.24,.93-.92,1.53-2.33,2.8-.71,1.32-.26,1.38-.11,1.28-.27,1.23-.75,1.24-.9,.72-2.23,1.13-2.16,1.68,.29,.23,.3,1.12-.24,.91-1.85,3.27-.2,.81-.2,1.83-.22,.88-.73,1.21-.91,.72-1.04,.64-1.13,.99-.35,.74-1.04,3.19-.71,.87-3.89,3.06-.33,.59-.31,1.8-.45,.66-.69,.21-3.15-1.75-1.01-.74-1.11-2.25-.74-.15-.88,.2-.92-.08-1.32-.98-1.19-1.27-1.3-1.13-1.67-.54-6.4,2.47-1.61,2.4-.51,3.22,.21,7.06-.33,18.85-.32,18.86-.31,18.86-.29,18.87-.27,18.88-.26,18.89-.25,18.89-.23,18.9-.05,4.96,.68,1.04,.17-.27,.73-.39,.91-.33,.71-.06,1.42-.64,6.02,.12,2.23-.44,2.52-.09,7,1.6,3-1.23,.24-1.91-1.73-3.33,.22-2.02,.85-1.14,1.28-1.11,1.33-.86,2.03-.66,.2-.7-.08-.9,.16-.9,.34-.51,.37-.43,.85-.76,.74-.46,.67-.29,.47-.42,.3-1.42,.37-.64,.45-.53,.39-.22,1.36-.29,1.08-.79,.71-1.25,.24-1.69-.26-3.14,.3-1.28,1.09-.55,1.04-.17,.55-.35,.36-.4,.45-.31,2.63-.45,.57-.2,.2-.56-.08-1.43,.1-.29,.27-.1,.65-.14,.66,.04,.32,.45,.52,1.03,1.1,.64,1.09-.29,.49-1.78,.53-.02,.1,3.37,.33-1.3,.16-.32,.35-.21,.95-.24,.34-.21,.21-.06,.65,.09,.22-.06,.04-.24-.12-.68,.05-.24,.21-.4,.29-1.08,.22-.44,1.97-2.75,.6-.37,.3-.4,.92-2.45,.3-.41,.09-.2,.15-.18,.49-.34v.14l.27,.12,.41-.02,.43-.28-.04-.39,.08-1.93,.15-.45,1.44-.72,1.51-3.25,1.44-1.14-.52-1.01,.11-.97,.56-.84,.82-.58v-.5l-.83,.05-.42-.08-.2-.33-.2-.7,.74,.29,.48,.06,.41-.13,.51-.28-1.1-.49-.52-.07,1.64-2.03,1.95-5.36,2.02-1.11-.47,.83-1.27,1.43-2.17,9.26,.27,1.26,.52-.07,.53-.73,.31-.75-.59-2.02,.23-1.43,.39-1.02,.79-3.34,.75-1.05,.67-.72,.46-.89,.54-5.75-.11-.79-.4-1.27-.11-.96,.15-.85,.36-.56,.37-.41,.16-.4,.14-.74,.38-.5,.97-.82,.32-.07,1.04,.11,.29-.09,.06-.47-.21-.36-.27-.21h-.14l-.34-1.39-1.59-2.35-.39-1.47,.34-1.31,.86-1.43,1.02-1.26,.83-.81,.76-.3h.69l.48-.23,.16-.95-.51-1.96-.27-2.55-.43-1.75-.69-1.55-.97-1.2-1.68-.51-.75-.39-.33-1-.46-1.85-.1-.87-.35-1.53-.59-1.69,.18-3.18,.03-1.69,.53-8.22,2.92-10.78,.16-1.26,.88-.75,2,.24,2-.03,.89-1.6-.74-.64-3.26-.48Z"/><polygon class="cls-34" points="541.85 322.05 541.85 348.05 527.85 318.05 541.85 322.05"/><polygon class="cls-33" points="541.85 322.05 541.85 348.05 555.85 318.05 541.85 322.05"/><circle class="cls-34" cx="541.85" cy="282.05" r="44.67" transform="translate(131.34 734.42) rotate(-75.28)"/><g class="cls-27"><rect class="cls-30" x="470.18" y="246.22" width="143.33" height="71.67"/><rect class="cls-2" x="470.18" y="270.11" width="143.33" height="23.89"/><polygon class="cls-30" points="538.06 280.82 540.4 282.52 539.51 285.27 541.85 283.57 544.19 285.27 543.29 282.52 545.63 280.82 542.74 280.82 541.85 278.07 540.95 280.82 538.06 280.82"/><polygon class="cls-30" points="557.97 274.45 560.31 276.15 559.41 278.9 561.75 277.2 564.09 278.9 563.2 276.15 565.54 274.45 562.65 274.45 561.75 271.7 560.86 274.45 557.97 274.45"/><polygon class="cls-30" points="557.97 286.4 560.31 288.1 559.41 290.85 561.75 289.15 564.09 290.85 563.2 288.1 565.54 286.4 562.65 286.4 561.75 283.65 560.86 286.4 557.97 286.4"/><polygon class="cls-30" points="518.15 286.4 520.49 288.1 519.6 290.85 521.94 289.15 524.28 290.85 523.38 288.1 525.73 286.4 522.83 286.4 521.94 283.65 521.04 286.4 518.15 286.4"/><polygon class="cls-30" points="518.15 274.45 520.49 276.15 519.6 278.9 521.94 277.2 524.28 278.9 523.38 276.15 525.73 274.45 522.83 274.45 521.94 271.7 521.04 274.45 518.15 274.45"/></g><g><text class="cls-6" transform="translate(939.88 833.64)"><tspan x="0" y="0">P</tspan></text><text class="cls-6" transform="translate(953.36 833.64)"><tspan x="0" y="0">A</tspan></text><text class="cls-6" transform="translate(969.47 833.64)"><tspan x="0" y="0">N</tspan></text><text class="cls-6" transform="translate(985.85 833.64)"><tspan x="0" y="0">A</tspan></text><text class="cls-6" transform="translate(1001.95 833.64)"><tspan x="0" y="0">M</tspan></text><text class="cls-6" transform="translate(1020.63 833.64)"><tspan x="0" y="0">A</tspan></text></g><g><text class="cls-10" transform="translate(725.25 750.36)"><tspan x="0" y="0">C</tspan></text><text class="cls-10" transform="translate(737.14 750.36)"><tspan x="0" y="0">O</tspan></text><text class="cls-10" transform="translate(750.93 750.36)"><tspan x="0" y="0">S</tspan></text><text class="cls-10" transform="translate(762.25 750.36)"><tspan x="0" y="0">T</tspan></text><text class="cls-10" transform="translate(771.95 750.36)"><tspan x="0" y="0">A</tspan></text><text class="cls-10" transform="translate(785.21 750.36)"><tspan x="0" y="0"> </tspan></text><text class="cls-10" transform="translate(790.25 750.36)"><tspan x="0" y="0">R</tspan></text><text class="cls-10" transform="translate(802.81 750.36)"><tspan x="0" y="0">I</tspan></text><text class="cls-10" transform="translate(809.16 750.36)"><tspan x="0" y="0">C</tspan></text><text class="cls-10" transform="translate(821.13 750.36)"><tspan x="0" y="0">A</tspan></text></g><g><text class="cls-11" transform="translate(637.06 519.37)"><tspan x="0" y="0">N</tspan></text><text class="cls-11" transform="translate(651.79 519.37)"><tspan x="0" y="0">I</tspan></text><text class="cls-11" transform="translate(658.75 519.37)"><tspan x="0" y="0">C</tspan></text><text class="cls-11" transform="translate(671.82 519.37)"><tspan class="cls-32" x="0" y="0">A</tspan><tspan x="11.83" y="0">R</tspan></text><text class="cls-11" transform="translate(700.01 519.37)"><tspan x="0" y="0">A</tspan></text><text class="cls-11" transform="translate(714.16 519.37)"><tspan x="0" y="0">G</tspan></text><text class="cls-11" transform="translate(728.17 519.37)"><tspan x="0" y="0">U</tspan></text><text class="cls-11" transform="translate(742.12 519.37)"><tspan x="0" y="0">A</tspan></text></g><g><text class="cls-3" transform="translate(464.58 379.58)"><tspan x="0" y="0">H</tspan></text><text class="cls-3" transform="translate(485.2 379.58)"><tspan x="0" y="0">O</tspan></text><text class="cls-3" transform="translate(506.29 379.58)"><tspan x="0" y="0">N</tspan></text><text class="cls-3" transform="translate(526.9 379.58)"><tspan class="cls-18" x="0" y="0">D</tspan><tspan x="17.85" y="0">U</tspan></text><text class="cls-3" transform="translate(567.09 379.58)"><tspan x="0" y="0">R</tspan></text><text class="cls-3" transform="translate(586.27 379.58)"><tspan x="0" y="0">A</tspan></text><text class="cls-3" transform="translate(606.47 379.58)"><tspan x="0" y="0">S</tspan></text></g><g><text class="cls-8" transform="translate(301.91 452.03)"><tspan x="0" y="0">E</tspan></text><text class="cls-8" transform="translate(311.27 452.03)"><tspan class="cls-20" x="0" y="0">L</tspan><tspan class="cls-31" x="6.9" y="0"> </tspan></text><text class="cls-8" transform="translate(323.23 452.03)"><tspan x="0" y="0">S</tspan></text><text class="cls-8" transform="translate(332.19 452.03)"><tspan x="0" y="0">A</tspan></text><text class="cls-8" transform="translate(342.7 452.03)"><tspan x="0" y="0">L</tspan></text><text class="cls-8" transform="translate(350.68 452.03)"><tspan x="0" y="0">V</tspan></text><text class="cls-8" transform="translate(360.03 452.03)"><tspan x="0" y="0">A</tspan></text><text class="cls-8" transform="translate(370.54 452.03)"><tspan x="0" y="0">D</tspan></text><text class="cls-8" transform="translate(380.86 452.03)"><tspan x="0" y="0">O</tspan></text><text class="cls-8" transform="translate(391.8 452.03)"><tspan x="0" y="0">R</tspan></text></g><g><text class="cls-5" transform="translate(140.1 368.37)"><tspan x="0" y="0">G</tspan></text><text class="cls-5" transform="translate(156.7 368.37)"><tspan x="0" y="0">U</tspan></text><text class="cls-5" transform="translate(173.22 368.37)"><tspan x="0" y="0">A</tspan></text><text class="cls-5" transform="translate(188.89 368.37)"><tspan x="0" y="0">T</tspan></text><text class="cls-5" transform="translate(202.89 368.37)"><tspan x="0" y="0">E</tspan></text><text class="cls-5" transform="translate(218.15 368.37)"><tspan class="cls-29" x="0" y="0">M</tspan><tspan x="17.78" y="0">A</tspan></text><text class="cls-5" transform="translate(255.17 368.37)"><tspan x="0" y="0">L</tspan></text><text class="cls-5" transform="translate(268.22 368.37)"><tspan x="0" y="0">A</tspan></text></g><g><text class="cls-4" transform="translate(330.89 210.19)"><tspan x="0" y="0">B</tspan></text><text class="cls-4" transform="translate(340.58 210.19)"><tspan class="cls-23" x="0" y="0">E</tspan><tspan x="7.04" y="0">L</tspan></text><text class="cls-4" transform="translate(357.66 210.19)"><tspan x="0" y="0">I</tspan></text><text class="cls-4" transform="translate(362.63 210.19)"><tspan x="0" y="0">Z</tspan></text><text class="cls-4" transform="translate(371.86 210.19)"><tspan x="0" y="0">E</tspan></text></g><g><text class="cls-7" transform="translate(1046.03 97.48)"><tspan x="0" y="0">C</tspan></text><text class="cls-7" transform="translate(1078.72 97.48)"><tspan class="cls-24" x="0" y="0">E</tspan><tspan x="24.36" y="0">N</tspan></text><text class="cls-7" transform="translate(1147.17 97.48)"><tspan class="cls-12" x="0" y="0">T</tspan><tspan x="24.65" y="0">R</tspan></text><text class="cls-7" transform="translate(1210.54 97.48)"><tspan x="0" y="0">A</tspan></text><text class="cls-7" transform="translate(1246.42 97.48)"><tspan x="0" y="0">L</tspan></text></g><g><text class="cls-7" transform="translate(1045.32 147.02)"><tspan x="0" y="0">A</tspan></text><text class="cls-7" transform="translate(1081.24 147.02)"><tspan class="cls-26" x="0" y="0">MER</tspan><tspan x="87.85" y="0">I</tspan></text><text class="cls-7" transform="translate(1206 147.02)"><tspan x="0" y="0">C</tspan></text><text class="cls-7" transform="translate(1238.41 147.02)"><tspan x="0" y="0">A</tspan></text></g><g><text class="cls-9" transform="translate(1068.24 268.82)"><tspan x="0" y="0">I</tspan></text><text class="cls-9" transform="translate(1073.82 268.82)"><tspan x="0" y="0">n</tspan></text><text class="cls-9" transform="translate(1084.24 268.82)"><tspan x="0" y="0">t</tspan></text><text class="cls-9" transform="translate(1091.02 268.82)"><tspan x="0" y="0">e</tspan></text><text class="cls-9" transform="translate(1100.64 268.82)"><tspan class="cls-19" x="0" y="0">g</tspan><tspan x="10.53" y="0">e</tspan></text><text class="cls-9" transform="translate(1120.77 268.82)"><tspan x="0" y="0">r</tspan></text><text class="cls-9" transform="translate(1127.6 268.82)"><tspan x="0" y="0"> </tspan></text><text class="cls-9" transform="translate(1132.57 268.82)"><tspan x="0" y="0">o</tspan></text><text class="cls-9" transform="translate(1142.96 268.82)"><tspan x="0" y="0">r</tspan></text><text class="cls-9" transform="translate(1149.85 268.82)"><tspan x="0" y="0">n</tspan></text><text class="cls-9" transform="translate(1160.32 268.82)"><tspan x="0" y="0">a</tspan></text><text class="cls-9" transform="translate(1169.63 268.82)"><tspan x="0" y="0">r</tspan></text><text class="cls-9" transform="translate(1176.29 268.82)"><tspan x="0" y="0">e</tspan></text><text class="cls-9" transform="translate(1185.9 268.82)"><tspan class="cls-15" x="0" y="0"> </tspan><tspan x="4.98" y="0">u</tspan></text><text class="cls-9" transform="translate(1201.28 268.82)"><tspan x="0" y="0">r</tspan></text><text class="cls-9" transform="translate(1208.17 268.82)"><tspan x="0" y="0">n</tspan></text><text class="cls-9" transform="translate(1218.64 268.82)"><tspan x="0" y="0">a</tspan></text><text class="cls-9" transform="translate(1227.95 268.82)"><tspan class="cls-1" x="0" y="0"> </tspan><tspan class="cls-21" x="4.96" y="0">i</tspan></text><text class="cls-9" transform="translate(1238.25 268.82)"><tspan x="0" y="0">d</tspan></text><text class="cls-9" transform="translate(1248.88 268.82)"><tspan x="0" y="0"> </tspan></text></g><g><text class="cls-9" transform="translate(1051.63 286.82)"><tspan x="0" y="0">v</tspan></text><text class="cls-9" transform="translate(1060.75 286.82)"><tspan x="0" y="0">e</tspan></text><text class="cls-9" transform="translate(1070.37 286.82)"><tspan x="0" y="0">n</tspan></text><text class="cls-9" transform="translate(1080.83 286.82)"><tspan x="0" y="0">e</tspan></text><text class="cls-9" transform="translate(1090.45 286.82)"><tspan x="0" y="0">n</tspan></text><text class="cls-9" transform="translate(1100.91 286.82)"><tspan x="0" y="0">a</tspan></text><text class="cls-9" transform="translate(1110.16 286.82)"><tspan x="0" y="0">t</tspan></text><text class="cls-9" transform="translate(1117.05 286.82)"><tspan x="0" y="0">i</tspan></text><text class="cls-9" transform="translate(1122.38 286.82)"><tspan x="0" y="0">s</tspan></text><text class="cls-9" transform="translate(1130.32 286.82)"><tspan class="cls-15" x="0" y="0"> </tspan><tspan x="4.98" y="0">u</tspan></text><text class="cls-9" transform="translate(1145.69 286.82)"><tspan x="0" y="0">l</tspan></text><text class="cls-9" transform="translate(1151.07 286.82)"><tspan x="0" y="0">t</tspan></text><text class="cls-9" transform="translate(1157.95 286.82)"><tspan x="0" y="0">r</tspan></text><text class="cls-9" transform="translate(1164.83 286.82)"><tspan x="0" y="0">i</tspan></text><text class="cls-9" transform="translate(1170.16 286.82)"><tspan x="0" y="0">c</tspan></text><text class="cls-9" transform="translate(1178.81 286.82)"><tspan x="0" y="0">e</tspan></text><text class="cls-9" transform="translate(1188.43 286.82)"><tspan x="0" y="0">s</tspan></text><text class="cls-9" transform="translate(1196.17 286.82)"><tspan x="0" y="0">.</tspan></text><text class="cls-9" transform="translate(1201.08 286.82)"><tspan x="0" y="0"> </tspan></text><text class="cls-9" transform="translate(1206.06 286.82)"><tspan x="0" y="0">I</tspan></text><text class="cls-9" transform="translate(1211.64 286.82)"><tspan x="0" y="0">n</tspan></text><text class="cls-9" transform="translate(1222.06 286.82)"><tspan x="0" y="0">t</tspan></text><text class="cls-9" transform="translate(1228.84 286.82)"><tspan x="0" y="0">e</tspan></text><text class="cls-9" transform="translate(1238.46 286.82)"><tspan class="cls-19" x="0" y="0">g</tspan><tspan x="10.53" y="0">e</tspan></text><text class="cls-9" transform="translate(1258.59 286.82)"><tspan x="0" y="0">r</tspan></text><text class="cls-9" transform="translate(1265.42 286.82)"><tspan x="0" y="0"> </tspan></text></g><g><text class="cls-9" transform="translate(1035.02 304.82)"><tspan x="0" y="0">c</tspan></text><text class="cls-9" transform="translate(1043.68 304.82)"><tspan x="0" y="0">o</tspan></text><text class="cls-9" transform="translate(1054.06 304.82)"><tspan x="0" y="0">n</tspan></text><text class="cls-9" transform="translate(1064.53 304.82)"><tspan x="0" y="0">d</tspan></text><text class="cls-9" transform="translate(1075.15 304.82)"><tspan class="cls-22" x="0" y="0">i</tspan><tspan x="5.31" y="0">m</tspan></text><text class="cls-9" transform="translate(1095.41 304.82)"><tspan x="0" y="0">e</tspan></text><text class="cls-9" transform="translate(1105.02 304.82)"><tspan x="0" y="0">n</tspan></text><text class="cls-9" transform="translate(1115.42 304.82)"><tspan class="cls-19" x="0" y="0">t</tspan><tspan x="6.88" y="0">u</tspan></text><text class="cls-9" transform="translate(1132.73 304.82)"><tspan x="0" y="0">m</tspan></text><text class="cls-9" transform="translate(1147.66 304.82)"><tspan x="0" y="0"> </tspan></text><text class="cls-9" transform="translate(1152.65 304.82)"><tspan x="0" y="0">s</tspan></text><text class="cls-9" transform="translate(1160.57 304.82)"><tspan x="0" y="0">e</tspan></text><text class="cls-9" transform="translate(1170.19 304.82)"><tspan class="cls-1" x="0" y="0">m</tspan><tspan x="14.91" y="0"> </tspan></text><text class="cls-9" transform="translate(1190.09 304.82)"><tspan x="0" y="0">s</tspan></text><text class="cls-9" transform="translate(1198.03 304.82)"><tspan x="0" y="0">c</tspan></text><text class="cls-9" transform="translate(1206.68 304.82)"><tspan x="0" y="0">e</tspan></text><text class="cls-9" transform="translate(1216.3 304.82)"><tspan class="cls-19" x="0" y="0">l</tspan><tspan x="5.36" y="0">e</tspan></text><text class="cls-9" transform="translate(1231.26 304.82)"><tspan x="0" y="0">r</tspan></text><text class="cls-9" transform="translate(1238.16 304.82)"><tspan x="0" y="0">i</tspan></text><text class="cls-9" transform="translate(1243.48 304.82)"><tspan x="0" y="0">s</tspan></text><text class="cls-9" transform="translate(1251.42 304.82)"><tspan x="0" y="0">q</tspan></text><text class="cls-9" transform="translate(1262.01 304.82)"><tspan class="cls-19" x="0" y="0">u</tspan><tspan x="10.4" y="0">e</tspan></text><text class="cls-9" transform="translate(1282.04 304.82)"><tspan x="0" y="0"> </tspan></text></g><g><text class="cls-9" transform="translate(1044.24 340.82)"><tspan class="cls-19" x="0" y="0">u</tspan><tspan x="10.4" y="0">l</tspan></text><text class="cls-9" transform="translate(1060.03 340.82)"><tspan x="0" y="0">t</tspan></text><text class="cls-9" transform="translate(1066.91 340.82)"><tspan x="0" y="0">r</tspan></text><text class="cls-9" transform="translate(1073.81 340.82)"><tspan x="0" y="0">i</tspan></text><text class="cls-9" transform="translate(1079.13 340.82)"><tspan x="0" y="0">c</tspan></text><text class="cls-9" transform="translate(1087.79 340.82)"><tspan x="0" y="0">e</tspan></text><text class="cls-9" transform="translate(1097.41 340.82)"><tspan x="0" y="0">s</tspan></text><text class="cls-9" transform="translate(1105.33 340.82)"><tspan x="0" y="0"> </tspan></text><text class="cls-9" transform="translate(1110.32 340.82)"><tspan class="cls-22" x="0" y="0">s</tspan><tspan x="7.9" y="0">o</tspan></text><text class="cls-9" transform="translate(1128.61 340.82)"><tspan x="0" y="0">d</tspan></text><text class="cls-9" transform="translate(1139.23 340.82)"><tspan x="0" y="0">a</tspan></text><text class="cls-9" transform="translate(1148.53 340.82)"><tspan x="0" y="0">l</tspan></text><text class="cls-9" transform="translate(1153.9 340.82)"><tspan class="cls-1" x="0" y="0">e</tspan><tspan x="9.58" y="0">s</tspan></text><text class="cls-9" transform="translate(1171.42 340.82)"><tspan x="0" y="0"> </tspan></text><text class="cls-9" transform="translate(1176.41 340.82)"><tspan x="0" y="0">p</tspan></text><text class="cls-9" transform="translate(1187.1 340.82)"><tspan class="cls-13" x="0" y="0">ur</tspan><tspan x="17.25" y="0">u</tspan></text><text class="cls-9" transform="translate(1214.76 340.82)"><tspan x="0" y="0">s</tspan></text><text class="cls-9" transform="translate(1222.52 340.82)"><tspan x="0" y="0">,</tspan></text><text class="cls-9" transform="translate(1227.42 340.82)"><tspan x="0" y="0"> </tspan></text><text class="cls-9" transform="translate(1232.41 340.82)"><tspan class="cls-22" x="0" y="0">v</tspan><tspan class="cls-14" x="9.26" y="0">i</tspan></text><text class="cls-9" transform="translate(1247.02 340.82)"><tspan x="0" y="0">t</tspan></text><text class="cls-9" transform="translate(1253.92 340.82)"><tspan x="0" y="0">a</tspan></text><text class="cls-9" transform="translate(1263.21 340.82)"><tspan x="0" y="0">e</tspan></text><text class="cls-9" transform="translate(1272.83 340.82)"><tspan x="0" y="0"> </tspan></text></g><rect class="cls-2" x="1045.22" y="177.1" width="61.33" height="2"/><rect class="cls-2" x="1214.55" y="177.1" width="61.33" height="2"/></svg>