<?xml version="1.0" encoding="UTF-8"?><svg id="Layer_1" xmlns="http://www.w3.org/2000/svg" xmlns:xlink="http://www.w3.org/1999/xlink" viewBox="0 0 5760 3712"><defs><style>.cls-1{fill:#674b3c;}.cls-2{fill:url(#linear-gradient-2);}.cls-3{letter-spacing:-.02em;}.cls-4{letter-spacing:0em;}.cls-5{fill:#a2948d;}.cls-6{font-size:138.08px;}.cls-6,.cls-7,.cls-8,.cls-9{fill:#231f20;}.cls-6,.cls-8{font-family:Montserrat-Regular, Montserrat;}.cls-10{letter-spacing:0em;}.cls-7{font-size:409.25px;}.cls-7,.cls-9{font-family:Montserrat-Black, Montserrat;}.cls-8{font-size:129.24px;}.cls-11{letter-spacing:-.02em;}.cls-12{fill:#88bf40;}.cls-9{font-size:437.22px;}.cls-13{fill:#add150;}.cls-14{letter-spacing:0em;}.cls-15{fill:url(#linear-gradient);}.cls-16{letter-spacing:0em;}.cls-17{letter-spacing:0em;}.cls-18{letter-spacing:-.01em;}.cls-19{letter-spacing:0em;}.cls-20{letter-spacing:0em;}</style><linearGradient id="linear-gradient" x1="584.69" y1="1702.11" x2="1700.42" y2="977.54" gradientTransform="translate(-93.99)" gradientUnits="userSpaceOnUse"><stop offset="0" stop-color="#005591"/><stop offset=".04" stop-color="#16669f"/><stop offset=".09" stop-color="#367fb2"/><stop offset=".16" stop-color="#5194c2"/><stop offset=".23" stop-color="#67a5d0"/><stop offset=".32" stop-color="#78b3da"/><stop offset=".43" stop-color="#84bce1"/><stop offset=".58" stop-color="#8bc1e5"/><stop offset="1" stop-color="#8dc3e7"/></linearGradient><linearGradient id="linear-gradient-2" x1="1535.62" y1="1697.73" x2="2643.97" y2="977.96" gradientTransform="translate(-110.71 -.02)" gradientUnits="userSpaceOnUse"><stop offset="0" stop-color="#5a1d42"/><stop offset=".03" stop-color="#68214c"/><stop offset=".1" stop-color="#822a5f"/><stop offset=".18" stop-color="#98316f"/><stop offset=".27" stop-color="#a9367c"/><stop offset=".39" stop-color="#b53a84"/><stop offset=".55" stop-color="#bc3c89"/><stop offset="1" stop-color="#be3d8b"/></linearGradient></defs><path class="cls-15" d="M1062.52,613.61c92.22,0,166.99-74.81,166.99-166.99s-74.77-167.03-166.99-167.03-166.99,74.84-166.99,167.03,74.74,166.99,166.99,166.99Zm184.48,42.79h-368.93c-118.16,0-214.92,95.75-214.92,213.92v517.83c0,40.43,31.75,73.11,72.14,73.11s73.13-32.68,73.13-73.11v-466.91h37.65v1299.29c0,54.09,44.34,97.96,98.39,97.96s98-43.87,98-97.96v-754.47h40.13v754.47c0,54.09,43.88,97.96,97.96,97.96s98.43-43.87,98.43-97.96V921.23h37.67v466.91c0,40.43,32.73,73.11,73.12,73.11s72.15-32.68,72.15-73.11V870.32c0-118.17-96.85-213.92-214.92-213.92Z"/><path class="cls-2" d="M1987.01,617.01c93.91,0,170.05-75.49,170.05-168.68s-76.14-168.74-170.05-168.74-170.14,75.58-170.14,168.74,76.12,168.68,170.14,168.68Zm472.91,684.22l-133.98-466.45c-53.51-186.4-209.59-180.58-209.59-180.58h-259.18s-156.1-5.81-209.58,180.58l-134,466.45c-12.76,43.59,11.36,76.93,49.39,87.85,38.11,10.96,77.03-8.28,87.06-43.17l130.26-454.68,35.53-.04-225.92,787.31,212.6,.04,.17,.16v577.87c0,43.95,37.71,80.69,83.69,80.88,40.56,.16,83.34-40.96,83.34-84.95v-574h34.08v574c0,43.99,42.82,85.12,83.34,84.95,46.07-.18,83.76-36.93,83.76-80.88v-577.87l.16-.16,212.63-.04-225.91-787.31,35.49,.04,130.23,454.68c9.97,34.88,48.96,54.13,86.98,43.16,38.13-10.91,62.24-44.25,49.44-87.84Z"/><text class="cls-9" transform="translate(2566.09 623.1)"><tspan x="0" y="0">1</tspan><tspan class="cls-11" x="182.76" y="0">0</tspan><tspan class="cls-16" x="478.75" y="0">,</tspan><tspan x="616.04" y="0">344</tspan></text><text class="cls-6" transform="translate(2625.53 818.69)"><tspan x="0" y="0">P</tspan><tspan class="cls-10" x="94.44" y="0">r</tspan><tspan x="147.88" y="0">oduc</tspan><tspan class="cls-14" x="499.42" y="0">t</tspan><tspan x="556.58" y="0">ores acti</tspan><tspan class="cls-20" x="1150.57" y="0">v</tspan><tspan class="cls-17" x="1228.31" y="0">os</tspan></text><g><g><path class="cls-12" d="M3868.22,2805.07c-9.08,24.39-24.48,47.16-46.62,60.87-36.85,22.84-83.86,16.82-126.86,11.32-43-5.51-91.19-8.35-125.02,18.76,8.3-54.85,17.98-112.85,54.05-155,35.18-41.14,89.82-60.06,143.05-69.95,53.22-9.88,108.09-12.64,159.45-29.75-21.9,19.66-32.47,48.95-38.71,77.71-6.24,28.76-9.08,58.45-19.33,86.04Z"/><path class="cls-13" d="M3699.48,2818.19c-40.62,17.56-79.51,39.13-115.91,64.3,60.89-82.87,189.74-88.92,253.91-169.25-8.72,28.62-31.32,51.23-56.71,67.08-25.4,15.85-53.83,26-81.29,37.87Z"/><path class="cls-13" d="M3682.41,2756.41c-24.02,33.79-48.03,67.57-72.05,101.36,35.4-22.92,56.98-61.99,72.05-101.36Z"/><path class="cls-13" d="M3751.22,2721.8c-12.68,31.48-31.27,60.55-54.49,85.29,10.04-7.29,10.55,1.79,19.39-6.87,3.84-3.77,17.02-24.32,20.29-28.61,10.81-14.15,17.68-32.23,14.8-49.8Z"/><path class="cls-13" d="M3716.13,2800.21c-1.7-.12-3.62,.63-4.43,2.15-1.67,3.09,3.03,5.63,6.53,6.07,18.54,2.34,37.35,4.68,55.87,2.19,18.54-2.51,37.08-10.46,48.48-25.28-39.63,12.53-68.54,17.38-106.45,14.88Z"/><path class="cls-13" d="M3788.25,2836.43c-45.26,4.08-91.07,1.92-135.72-6.42-.41,9.1,9.47,14.96,18.22,17.52,38.31,11.21,79.18,.05,117.5-11.09Z"/><path class="cls-12" d="M3559.21,2749.25c-27.02-51.14-81.29-84.03-137.89-96.04-56.59-12.02-115.55-5.45-172.14,6.54,27.14,8.53,46.59,33.11,57.28,59.46,10.69,26.36,14.18,54.97,19.96,82.81,5.76,27.84,14.43,56.18,33.26,77.5,26.67,30.18,69.98,41.2,110.13,38.14,40.17-3.06,78.25-18.34,115.59-33.43-2.08-46.19-4.61-94.1-26.21-134.99Z"/><path class="cls-13" d="M3446.36,2780.13c-24.74-30.71-45.15-69.36-82.44-82.24,35.58,31.85,57.57,75.79,86.69,113.64,29.12,37.86,71.25,71.92,118.92,69.14-44.5-29.19-89.79-59.08-123.17-100.54Z"/><path class="cls-13" d="M3487.35,2734.78c-2.19,20.8-4.38,41.8-2.09,62.61,2.3,20.8,9.47,41.65,23.82,56.9-.72-14.37-3.54-28.52-6.36-42.62-5.12-25.64-10.24-51.27-15.37-76.9Z"/><path class="cls-13" d="M3431.4,2785.41c2.57,5.43,11.78,2.42,13.57-3.32,1.79-5.73-11.24-79.39-21.57-86.01,2.66,29.76,5.33,59.55,8,89.32Z"/><path class="cls-13" d="M3438.49,2795.96c3.11-.39,6.62-1.2,8.15-3.93,1.72-3.09-.15-7.19-3.12-9.11-2.97-1.92-6.66-2.24-10.19-2.49-24.08-1.76-48.15-3.5-72.23-5.25,21.8,16.6,50.21,24.24,77.39,20.79Z"/><path class="cls-13" d="M3389.55,2830.17c32.62,18.91,72.79,24.35,109.26,14.78-1.13-3.47-2.27-6.92-3.39-10.38-35.29-1.47-70.58-2.93-105.87-4.4Z"/><path class="cls-12" d="M3610.38,3196.69c19.32-6.59,23.03-31.87,23.4-52.29,.93-50.45,1.84-101.13-4.76-151.15-6.59-50.02-21.06-99.76-48.69-141.98-11.53,10.48-15.95,26.94-15.63,42.51,.31,15.55,4.76,30.68,8.35,45.83,18.46,77.74,14.74,160.59-10.6,236.35,13.18,12.82,30.53,26.69,47.93,20.74Z"/></g><g><path class="cls-12" d="M4577.8,2805.07c-9.08,24.39-24.5,47.16-46.62,60.87-36.85,22.84-83.86,16.82-126.86,11.32-43-5.51-91.19-8.35-125.02,18.76,8.3-54.85,17.98-112.85,54.05-155,35.18-41.14,89.82-60.06,143.05-69.95,53.21-9.88,108.09-12.64,159.44-29.75-21.88,19.66-32.45,48.95-38.69,77.71-6.25,28.76-9.08,58.45-19.33,86.04Z"/><path class="cls-13" d="M4409.06,2818.19c-40.62,17.56-79.51,39.13-115.91,64.3,60.88-82.87,189.73-88.92,253.91-169.25-8.72,28.62-31.33,51.23-56.73,67.08-25.38,15.85-53.81,26-81.28,37.87Z"/><path class="cls-13" d="M4391.99,2756.41c-24.01,33.79-48.03,67.57-72.05,101.36,35.39-22.92,56.98-61.99,72.05-101.36Z"/><path class="cls-13" d="M4460.8,2721.8c-12.7,31.48-31.27,60.55-54.49,85.29,10.04-7.29,10.55,1.79,19.39-6.87,3.84-3.77,17.02-24.32,20.3-28.61,10.81-14.15,17.68-32.23,14.8-49.8Z"/><path class="cls-13" d="M4425.7,2800.21c-1.7-.12-3.63,.63-4.44,2.15-1.67,3.09,3.03,5.63,6.53,6.07,18.55,2.34,37.36,4.68,55.88,2.19,18.52-2.51,37.06-10.46,48.48-25.28-39.63,12.53-68.54,17.38-106.45,14.88Z"/><path class="cls-13" d="M4497.83,2836.43c-45.26,4.08-91.07,1.92-135.74-6.42-.41,9.1,9.49,14.96,18.24,17.52,38.29,11.21,79.18,.05,117.5-11.09Z"/><path class="cls-12" d="M4268.79,2749.25c-27.03-51.14-81.29-84.03-137.88-96.04-56.59-12.02-115.55-5.45-172.14,6.54,27.13,8.53,46.59,33.11,57.28,59.46,10.69,26.36,14.19,54.97,19.95,82.81,5.78,27.84,14.44,56.18,33.28,77.5,26.66,30.18,69.96,41.2,110.13,38.14,40.17-3.06,78.25-18.34,115.58-33.43-2.07-46.19-4.6-94.1-26.19-134.99Z"/><path class="cls-13" d="M4155.94,2780.13c-24.74-30.71-45.16-69.36-82.45-82.24,35.59,31.85,57.58,75.79,86.7,113.64,29.12,37.86,71.24,71.92,118.91,69.14-44.51-29.19-89.78-59.08-123.16-100.54Z"/><path class="cls-13" d="M4196.93,2734.78c-2.19,20.8-4.38,41.8-2.09,62.61,2.3,20.8,9.47,41.65,23.81,56.9-.7-14.37-3.53-28.52-6.35-42.62-5.12-25.64-10.24-51.27-15.37-76.9Z"/><path class="cls-13" d="M4140.97,2785.41c2.57,5.43,11.78,2.42,13.57-3.32,1.79-5.73-11.24-79.39-21.59-86.01,2.67,29.76,5.35,59.55,8.02,89.32Z"/><path class="cls-13" d="M4148.07,2795.96c3.11-.39,6.62-1.2,8.15-3.93,1.72-3.09-.17-7.19-3.12-9.11-2.97-1.92-6.66-2.24-10.19-2.49-24.08-1.76-48.15-3.5-72.23-5.25,21.8,16.6,50.21,24.24,77.39,20.79Z"/><path class="cls-13" d="M4099.13,2830.17c32.62,18.91,72.78,24.35,109.24,14.78-1.13-3.47-2.25-6.92-3.38-10.38-35.29-1.47-70.58-2.93-105.87-4.4Z"/><path class="cls-12" d="M4319.96,3196.69c19.32-6.59,23.02-31.87,23.4-52.29,.93-50.45,1.84-101.13-4.76-151.15-6.59-50.02-21.06-99.76-48.69-141.98-11.53,10.48-15.95,26.94-15.63,42.51,.32,15.55,4.76,30.68,8.35,45.83,18.45,77.74,14.74,160.59-10.6,236.35,13.18,12.82,30.53,26.69,47.93,20.74Z"/></g><g><path class="cls-12" d="M5287.36,2805.07c-9.07,24.39-24.48,47.16-46.61,60.87-36.87,22.84-83.86,16.82-126.87,11.32-43.02-5.51-91.19-8.35-125.02,18.76,8.3-54.85,17.98-112.85,54.04-155,35.2-41.14,89.82-60.06,143.05-69.95,53.22-9.88,108.09-12.64,159.45-29.75-21.88,19.66-32.45,48.95-38.7,77.71-6.26,28.76-9.08,58.45-19.35,86.04Z"/><path class="cls-13" d="M5118.62,2818.19c-40.62,17.56-79.49,39.13-115.89,64.3,60.88-82.87,189.73-88.92,253.91-169.25-8.72,28.62-31.34,51.23-56.72,67.08-25.38,15.85-53.83,26-81.3,37.87Z"/><path class="cls-13" d="M5101.57,2756.41c-24.01,33.79-48.03,67.57-72.05,101.36,35.38-22.92,56.98-61.99,72.05-101.36Z"/><path class="cls-13" d="M5170.37,2721.8c-12.7,31.48-31.28,60.55-54.5,85.29,10.06-7.29,10.57,1.79,19.41-6.87,3.84-3.77,17.02-24.32,20.29-28.61,10.81-14.15,17.68-32.23,14.8-49.8Z"/><path class="cls-13" d="M5135.28,2800.21c-1.71-.12-3.63,.63-4.44,2.15-1.67,3.09,3.03,5.63,6.53,6.07,18.55,2.34,37.36,4.68,55.88,2.19,18.52-2.51,37.06-10.46,48.48-25.28-39.63,12.53-68.54,17.38-106.45,14.88Z"/><path class="cls-13" d="M5207.4,2836.43c-45.26,4.08-91.07,1.92-135.74-6.42-.41,9.1,9.49,14.96,18.22,17.52,38.3,11.21,79.19,.05,117.51-11.09Z"/><path class="cls-12" d="M4978.36,2749.25c-27.03-51.14-81.29-84.03-137.88-96.04-56.59-12.02-115.55-5.45-172.15,6.54,27.14,8.53,46.61,33.11,57.29,59.46,10.69,26.36,14.19,54.97,19.95,82.81,5.78,27.84,14.44,56.18,33.26,77.5,26.67,30.18,69.98,41.2,110.14,38.14,40.15-3.06,78.25-18.34,115.58-33.43-2.07-46.19-4.59-94.1-26.19-134.99Z"/><path class="cls-13" d="M4865.52,2780.13c-24.74-30.71-45.16-69.36-82.45-82.24,35.59,31.85,57.58,75.79,86.7,113.64,29.11,37.86,71.24,71.92,118.91,69.14-44.51-29.19-89.78-59.08-123.16-100.54Z"/><path class="cls-13" d="M4906.51,2734.78c-2.19,20.8-4.38,41.8-2.08,62.61,2.3,20.8,9.47,41.65,23.81,56.9-.71-14.37-3.53-28.52-6.35-42.62-5.12-25.64-10.25-51.27-15.37-76.9Z"/><path class="cls-13" d="M4850.55,2785.41c2.57,5.43,11.78,2.42,13.57-3.32,1.79-5.73-11.26-79.39-21.58-86.01,2.67,29.76,5.34,59.55,8.01,89.32Z"/><path class="cls-13" d="M4857.65,2795.96c3.1-.39,6.62-1.2,8.15-3.93,1.71-3.09-.17-7.19-3.14-9.11-2.96-1.92-6.66-2.24-10.19-2.49-24.06-1.76-48.14-3.5-72.21-5.25,21.8,16.6,50.21,24.24,77.39,20.79Z"/><path class="cls-13" d="M4808.7,2830.17c32.62,18.91,72.79,24.35,109.24,14.78-1.13-3.47-2.25-6.92-3.38-10.38-35.29-1.47-70.58-2.93-105.87-4.4Z"/><path class="cls-12" d="M5029.52,3196.69c19.33-6.59,23.04-31.87,23.42-52.29,.93-50.45,1.85-101.13-4.76-151.15-6.6-50.02-21.06-99.76-48.71-141.98-11.51,10.48-15.94,26.94-15.61,42.51,.32,15.55,4.76,30.68,8.35,45.83,18.45,77.74,14.74,160.59-10.6,236.35,13.18,12.82,30.53,26.69,47.91,20.74Z"/></g><path class="cls-5" d="M4308.88,3077.48c63.3,8.57,109.8,68.87,172.83,79.21,96.27,15.79,182.06-89.73,278.11-72.65,60.63,10.78,105.52,68.39,166.55,76.49,75.28,10,137.39-57.28,210.4-78.14,83.1-23.73,179.94,22.71,214.57,101.89,34.63,79.18,3.72,180.99-68.43,228.58-653.63-61.57-1314.27-48.64-1965,38.48-36.3-59.35-73.57-121.67-78.7-191.05-5.12-69.38,33.25-147.33,101.15-162.46,81.43-18.15,157.2,57.38,240.6,55.33,86.59-2.13,157.73-87,244.02-79.52,78.16,6.78,135.06,87.51,213.3,93.23,96.47,7.07,174.75-102.37,270.6-89.39Z"/><path class="cls-1" d="M3813.81,3321.08c-69.53,8.15-139.43-6.71-208.07-20.38-68.66-13.67-139.39-26.24-208.24-13.6-68.85,12.64-136.34,55.84-158.33,122.29-21.99,66.45,18.73,152.29,88.14,161.33,98.12,12.78,179.33-117.66,274.24-89.69,49.63,14.62,83.37,70.28,135.06,72.12,63.54,2.25,111.33-79.3,173.68-66.88,42.22,8.4,67.57,57.55,110.06,64.48,62.97,10.27,107.37-76.55,171.12-73.91,52.39,2.18,85.51,63.6,137.31,71.81,69.89,11.08,130.62-79.16,198.22-58.21,28.55,8.86,48.26,35.95,76.3,46.32,76.55,28.31,154.52-79.63,231.26-51.84,35.89,12.98,58.76,53.21,96.38,59.7,44.82,7.73,82.54-36.03,127.62-42.16,52.49-7.17,98.57,37.41,151.27,42.79,73.3,7.49,136.16-72.67,124.32-145.37-11.84-72.72-82-126.69-155.16-135.47-78.86-9.47-157.53,24.51-236.77,19.06-102.92-7.07-195.93-79.72-298.84-72.47-81.69,5.75-154.53,61.57-236.41,62.16-70.98,.51-135.86-40.63-206.28-49.52-133.1-16.83-253.63,81.84-386.87,97.45Z"/></g><text class="cls-7" transform="translate(3441.81 2184.47)"><tspan class="cls-3" x="0" y="0">+</tspan><tspan x="245.55" y="0">2</tspan><tspan class="cls-4" x="494.37" y="0">2</tspan><tspan class="cls-18" x="747.28" y="0">,</tspan><tspan x="865.54" y="0">000</tspan></text><text class="cls-8" transform="translate(3415.05 2367.54)"><tspan x="0" y="0">Hectareas de </tspan><tspan class="cls-19" x="894.59" y="0">ca</tspan><tspan x="1043.87" y="0">fé asistidas</tspan></text></svg>