<?xml version="1.0" encoding="UTF-8"?><svg id="Layer_1" xmlns="http://www.w3.org/2000/svg" viewBox="0 0 5760 3712"><defs><style>.cls-1{letter-spacing:0em;}.cls-2{fill:#00a6ca;}.cls-3{fill:#00ade5;}.cls-4{isolation:isolate;}.cls-5{fill:#00bfea;}.cls-6{fill:#366498;}.cls-7{fill:#e5eaf2;}.cls-8{fill:#233e63;}.cls-9{fill:#f9bf20;}.cls-10{fill:#e3c69f;}.cls-11{fill:#ffe0b6;}.cls-12{fill:#0093b1;}.cls-13{fill:#ffd14a;}.cls-14{fill:#3b669d;}.cls-15{fill:#072739;}.cls-16{fill:#ffdd82;}.cls-17{fill:#231f20;font-family:Montserrat-Black, Montserrat;font-size:705.18px;}.cls-18{fill:#deab26;}</style></defs><g><path class="cls-15" d="M4216.46,2871.44s5.38,68.04,8.48,107.14c3.09,39.1-140,137.89-186.19,116.56-46.18-21.33-31.45-42.24,13.61-77.04,23.19-17.91,54.68-41.33,64.28-62.99,9.95-22.46-2.98-47.4-.04-68.57,4.83-34.81,99.86-15.11,99.86-15.11Z"/><path class="cls-15" d="M4001.64,2773.52s-8.65,69.96-5.02,105.67c2.33,22.98-48.57,31.12-84.71,59.44-42.46,33.28-94.16,44.38-113.84,27.06-25.9-22.77,6.21-48.99,42.23-71.71,29.24-18.44,44.05-32.14,53.79-50.62,20.7-39.3,9.67-48.95,17.56-71.08,11.37-31.89,89.99,1.24,89.99,1.24Z"/><path class="cls-8" d="M4001.7,2816.86c6.58-140.48,0-385.09,16.28-524.48,21.16-181.22,53.34-347.43,62.85-525.8-57.88-14.48-111.65-57.86-169.99-69.61-17.75,163.5-59.49,319.13-64.14,480.01-4.65,160.88,19.56,477.37,54.3,642.69,28.54,20.1,68.84,43.95,100.71-2.81Z"/><path class="cls-6" d="M4234.14,1696.97c17.26,110.36,11.58,161.12,12.45,284.15,.84,118.55-34.64,289.33-31.21,419.49,4.22,159.95,14.11,381.62,18.76,540.24-37.36,35.52-81.68,42.86-122.94,10.24-20.47-174.12-41.66-369.8-64.61-553.86-20.91-167.73-35.82-445.13-40.83-624.34,68.47-51.84,159.83-24.07,228.39-75.92Z"/><path class="cls-12" d="M4044.41,1013.89c-61.71,30.07-107.9,23.97-142.43,99.13-34.53,75.15-52.64,190.65-76.65,279.65-17.06,63.25-198.8,266.92-72.55,284.66,47.25,6.64,133.61-142.21,162.94-206.29,29.33-64.08,47.28-172.2,67.96-251.79,16.74-64.42,46.4-137.59,60.72-205.36Z"/><path class="cls-7" d="M4308.93,1104.34c-33.79-33.79-54.73-68.66-140.01-93.68-83.94-24.63-154.34,12.04-186.74,31.57-66.59,40.16-57.09,158.44-48.11,248.82,22.03,221.84,8.86,335.12-7.22,379.52-34.68,95.76,92.79,114.13,136.38,108.4,72.1-9.47,161.22-51.29,170.9-82,51.48-163.24-1.66-352.59,41-423.69,50.68-84.47,63.8-138.93,33.79-168.94Z"/><path class="cls-14" d="M3900.62,1684.25c20.79,26.5,42.71,48.35,67.92,60.18,24.86,12.2,52.18,16.23,81.29,15.5,29.06-.81,59.29-5.38,90.08-11.13,30.89-5.57,62.25-12.36,95.78-16.22-25.53,21.96-54.26,38.81-85.05,52.01-30.8,12.99-64.26,21.9-99.74,22.83-35.07,1.12-73.89-8.29-102.95-31.96-29.28-23.43-44.97-57.83-47.33-91.19Z"/><path class="cls-2" d="M4180.13,1012.19c19.28,49.83,11.97,90.49-42.05,104.18l-74.04,692.93s159.33,58.64,210.52-21.42c28.44-44.47-42.89-152.53,5.12-317.95,46.54-160.37,58.28-310.83,45.16-343.36-24.92-61.82-144.71-114.37-144.71-114.37Z"/><path class="cls-5" d="M4218.23,1059.24l4.91,47.13-32.94,35.93,19.1,39.22-105.38,254.48,20.92-326.92,43.84-59.15c12.33-16.63,1.7-40.35-18.92-42.22l-90.02-8.17c20.9-6.46,42.84-12.2,64.98-15.1,46.49-6.08,88.65,28.17,93.51,74.81Z"/><polygon class="cls-14" points="4086.78 1110.92 4102.48 1158.3 4082.72 1177.63 4069.92 1472.92 4032.37 1527.24 4017.01 1460.54 4062.84 1173.58 4049.63 1143.78 4086.78 1110.92"/><path class="cls-2" d="M4032.63,1121.03c-45.02,189.24-38.01,428.22-126.97,652.91,0,0-52.01-24.36-44.64-53.2,37.09-145.16,54.52-238.09,48.98-372.5-6.69-162.39-6.31-315.18,134.77-332.43l-12.15,105.22Z"/><polygon class="cls-5" points="4044.78 1015.81 3972.99 1084.64 3982.38 1121.83 3952.25 1137.33 3989.34 1405.81 4041.5 1110.33 4044.78 1015.81"/><path class="cls-10" d="M4174.12,878.77s5.75,132.38-18.16,172.03c-15.97,26.48-91.8,55.76-109.98-12.42-18.18-68.18,46.25-144.23,46.25-144.23l81.9-15.38Z"/><path class="cls-11" d="M4173.55,849.24c28.76-28.44-225.3-133.88-221.25-48.03,3.66,77.71,43.13,230.53,104.89,216.99,97.42-21.36,116.36-168.96,116.36-168.96Z"/><path class="cls-14" d="M4175.16,905.89c-28.37-2.35-64.04-158.42-222.86-104.67-66.73-45.03-29.58-148.23,17.45-127.55,56.15,24.69,74.74,11.79,132.74,14.59,130.1,6.28,143.79,159.05,72.68,217.64Z"/><path class="cls-11" d="M4161.5,848.83c-.14-24.92-10.13-45.06-22.31-44.99-12.19,.07-21.95,20.32-21.81,45.24,.14,24.92,10.13,45.06,22.31,44.99,12.19-.07,21.95-20.32,21.81-45.24Z"/><path class="cls-11" d="M3718.68,1641.96s-70.92,19-80.81,53.19c-9.89,34.19-27.26,70.45-10.33,70.45s74.28-27.59,86.81-40.49c17.07-17.58,50.46-48.53,43.87-65.01-6.59-16.49-39.53-18.13-39.53-18.13Z"/><path class="cls-3" d="M4013.64,1807.99l-54.69-13.47c-6.54-1.61-10.72-8.01-9.57-14.65l6.01-34.52c1.27-7.32,8.48-12.03,15.7-10.25l54.69,13.47c6.54,1.61,10.72,8.01,9.57,14.65l-6.01,34.52c-1.27,7.32-8.48,12.03-15.7,10.25Z"/><path class="cls-12" d="M4274.61,1787.79c-35.63,55.82-123.99,44.42-174.11,32.31,99.27-104.47,116.54-309.68,146.32-577.68l76.96,16.63c-7.6,60.1-21.85,134.45-44.18,210.93-47.98,165.32,23.28,273.4-4.99,317.82Z"/><path class="cls-2" d="M4306.06,1113.69c64.47,32.52,55.28,182.64,57.4,233.5,4.12,98.7-5.88,202.07-18.78,279.75-12.9,77.68-24.46,179.47-92.07,162.94-33.07-8.09-40.95-29.99-36.18-76.51,6.44-62.89,47.91-165.7,41.13-241.29-6.78-75.58-14.15-142.68-27.86-222.95-7.85-45.96-10.93-179.47,76.37-135.44Z"/></g><g><g><polygon class="cls-16" points="3844.68 2726.51 3844.83 2753.32 3845.14 2808.27 3845.75 2917.82 3846.07 2973.2 3846.22 3000.05 3793.46 2999.96 3793.29 2972.41 3792.94 2915.92 3792.29 2810.21 3791.94 2754.13 3791.77 2726.51 3844.68 2726.51"/><path class="cls-16" d="M3876.02,2816.17c-8.93-3.91-19.19-6.53-30.88-7.9l-.31-54.95c39.67,2.07,74.39,10.14,104.14,24.32,4.8,2.27,9.32,4.62,13.56,7.07,26.38,15.23,41.8,33.94,46.35,55.97h-106.12c-3.38-8.35-9.96-15.31-19.67-20.92-2.2-1.27-4.56-2.47-7.07-3.6Z"/><path class="cls-9" d="M3758.91,2823.09c9.58-5.96,20.7-10.26,33.38-12.88l.65,105.71c-12.01-2.42-22.63-6.28-31.89-11.63-.57-.33-1.13-.66-1.69-1-16.99-10.51-25.53-23.82-25.77-40.02,.06-16.2,8.3-29.6,25.32-40.19Z"/><path class="cls-16" d="M3761.05,2904.3c9.26,5.35,19.88,9.21,31.89,11.63l.35,56.48c-41.37-3.37-77.15-13.42-107.18-30.06-.81-.45-1.62-.91-2.42-1.37-36.3-20.96-54.39-46.94-54.56-77.78-.18-31.52,18.42-57.61,55.94-78.54,29.91-16.96,65.54-27.07,106.87-30.52l.35,56.08c-12.69,2.62-23.8,6.92-33.38,12.88-17.02,10.59-25.26,23.99-25.32,40.19,.24,16.2,8.78,29.51,25.77,40.02,.56,.34,1.12,.67,1.69,1Z"/><path class="cls-9" d="M4167.13,2863.28c.63,111.38-154.72,201.65-347,201.65-96.14,0-183.3-22.57-246.5-59.06-63.2-36.49-102.45-86.9-102.76-142.59-.63-111.38,154.72-201.65,347-201.65,96.14,0,183.3,22.57,246.5,59.06,63.2,36.49,102.45,86.9,102.76,142.59Zm-217.19,86.16c34.52-16.55,54.21-37.65,59.05-63.66h-105.82c-4.17,10.33-12.9,18.39-26.62,24.25-8.88,3.79-19.16,6.41-30.79,7.79l-.62-109.55c11.7,1.37,21.96,3.99,30.88,7.9,2.52,1.13,4.88,2.33,7.07,3.6,9.71,5.61,16.29,12.56,19.67,20.92h106.12c-4.55-22.03-19.97-40.74-46.35-55.97-4.24-2.45-8.76-4.8-13.56-7.07-29.75-14.18-64.47-22.25-104.14-24.32l-.15-26.81h-52.91l.17,27.62c-41.33,3.45-76.96,13.56-106.87,30.52-37.52,20.93-56.12,47.02-55.94,78.54,.17,30.84,18.27,56.82,54.56,77.78,.8,.46,1.61,.92,2.42,1.37,30.03,16.64,65.81,26.69,107.18,30.06l.17,27.55,52.76,.09-.15-26.85c40.17-1.96,74.76-9.86,103.87-23.76h0Z"/><path class="cls-16" d="M4008.98,2885.78c-4.84,26.01-24.53,47.11-59.05,63.66-29.1,13.9-63.7,21.8-103.87,23.76l-.31-55.37c11.63-1.38,21.92-3.99,30.79-7.79,13.72-5.87,22.45-13.92,26.62-24.25h105.82Z"/><path class="cls-13" d="M4293.2,2863.28c.85,151.65-210.69,274.59-472.66,274.68-130.91,0-249.63-30.75-335.74-80.47-86.1-49.71-139.59-118.38-140.01-194.21-.7-151.74,210.84-274.68,472.66-274.68,130.98-.04,249.75,30.69,335.85,80.4,86.1,49.71,139.55,118.4,139.9,194.27Zm-473.07,201.65c192.28,0,347.63-90.28,347-201.65-.31-55.69-39.56-106.1-102.76-142.59-63.2-36.49-150.36-59.06-246.5-59.06-192.28,0-347.62,90.28-347,201.65,.31,55.69,39.56,106.1,102.76,142.59,63.2,36.49,150.36,59.06,246.5,59.06h0Z"/><path class="cls-9" d="M4293.2,2863.28l-.27,96.81c.85,151.65-210.69,274.59-472.66,274.68-130.91,0-249.63-30.75-335.74-80.47-86.1-49.71-139.59-118.38-140.01-194.21l.27-96.81c.43,75.83,53.91,144.5,140.01,194.21,86.1,49.71,204.83,80.47,335.74,80.47,261.97-.09,473.51-123.02,472.66-274.68Z"/><g><path class="cls-18" d="M3373.2,3053.4c8.08,12.83,17.58,25.18,28.74,37.06v-97.15c-11.16-11.88-20.9-24.23-28.74-37.06v97.15Z"/><path class="cls-18" d="M3430.68,3117.06c9.03,7.6,18.53,14.73,28.74,21.38v-96.91c-10.21-6.89-19.95-14.02-28.74-21.38v96.91Z"/><path class="cls-18" d="M3488.17,3156.25c9.26,5.46,18.76,10.45,28.74,15.2v-97.15c-9.98-4.75-19.48-9.74-28.74-14.96v96.91Z"/><path class="cls-18" d="M3545.65,3184.04c9.26,4.04,19,7.6,28.74,10.93v-96.91c-9.74-3.33-19.48-7.13-28.74-10.93v96.91Z"/><path class="cls-18" d="M3603.13,3204.23c9.5,3.09,19.24,5.7,28.98,8.08v-96.91c-9.98-2.37-19.48-5.23-28.98-8.08v96.91Z"/><path class="cls-18" d="M3660.85,3218.96c9.5,1.9,19,3.8,28.74,5.23v-96.91c-9.74-1.43-19.48-3.33-28.74-5.23v96.91Z"/><path class="cls-18" d="M3718.34,3228.46c9.5,1.19,19,2.37,28.74,3.33v-97.15c-9.74-.71-19.24-1.9-28.74-3.09v96.91Z"/><path class="cls-18" d="M3775.82,3233.69c9.5,.47,19,.95,28.74,.95v-96.91c-9.5,0-19.24-.47-28.74-.95v96.91Z"/><path class="cls-18" d="M3833.3,3234.64c9.74,0,19.24-.48,28.74-.95v-96.91c-9.5,.71-19,.95-28.74,.95v96.91Z"/><path class="cls-18" d="M3890.79,3231.79c9.5-.71,19.24-1.9,28.74-3.09v-96.68c-9.5,1.19-19.24,2.14-28.74,3.09v96.68Z"/><path class="cls-18" d="M3948.27,3224.42c9.74-1.43,19.48-3.09,28.74-4.99v-96.91c-9.26,1.9-19,3.8-28.74,5.23v96.68Z"/><path class="cls-18" d="M4005.75,3212.79c9.74-2.38,19.48-4.99,28.74-7.84v-96.68c-9.26,2.85-19,5.46-28.74,7.84v96.68Z"/><path class="cls-18" d="M4063.24,3195.92c9.74-3.33,19.48-6.89,28.74-10.93v-96.68c-9.26,3.8-19,7.6-28.74,10.93v96.68Z"/><path class="cls-18" d="M4120.72,3172.4c9.98-4.75,19.48-9.74,28.74-14.96v-96.68c-9.26,5.23-18.77,10.21-28.74,14.96v96.68Z"/><path class="cls-18" d="M4178.2,3139.86c10.21-6.89,19.95-14.02,28.74-21.38v-96.68c-8.79,7.6-18.53,14.49-28.74,21.38v96.68Z"/><path class="cls-18" d="M4235.69,2995.2v96.44c11.16-11.64,20.9-24.23,28.74-37.06v-96.2c-7.84,12.83-17.58,24.94-28.74,36.82Z"/></g></g><g><polygon class="cls-16" points="3844.68 2598.29 3844.83 2625.1 3845.14 2680.05 3845.75 2789.6 3846.07 2844.98 3846.22 2871.83 3793.46 2871.74 3793.29 2844.19 3792.94 2787.7 3792.29 2681.99 3791.94 2625.91 3791.77 2598.29 3844.68 2598.29"/><path class="cls-16" d="M3876.02,2687.95c-8.93-3.91-19.19-6.53-30.88-7.9l-.31-54.95c39.67,2.07,74.39,10.14,104.14,24.32,4.8,2.27,9.32,4.62,13.56,7.07,26.38,15.23,41.8,33.94,46.35,55.97h-106.12c-3.38-8.35-9.96-15.31-19.67-20.92-2.2-1.27-4.56-2.47-7.07-3.6Z"/><path class="cls-9" d="M3758.91,2694.87c9.58-5.96,20.7-10.26,33.38-12.88l.65,105.71c-12.01-2.42-22.63-6.28-31.89-11.63-.57-.33-1.13-.66-1.69-1-16.99-10.51-25.53-23.82-25.77-40.02,.06-16.2,8.3-29.6,25.32-40.19Z"/><path class="cls-16" d="M3761.05,2776.08c9.26,5.35,19.88,9.21,31.89,11.63l.35,56.48c-41.37-3.37-77.15-13.42-107.18-30.06-.81-.46-1.62-.91-2.42-1.37-36.3-20.96-54.39-46.94-54.56-77.78-.18-31.52,18.42-57.61,55.94-78.54,29.91-16.96,65.54-27.07,106.87-30.52l.35,56.08c-12.69,2.62-23.8,6.92-33.38,12.88-17.02,10.59-25.26,23.99-25.32,40.19,.24,16.2,8.78,29.51,25.77,40.02,.56,.34,1.12,.67,1.69,1Z"/><path class="cls-9" d="M4167.13,2735.06c.63,111.38-154.72,201.65-347,201.65-96.14,0-183.3-22.57-246.5-59.06-63.2-36.49-102.45-86.9-102.76-142.59-.63-111.38,154.72-201.65,347-201.65,96.14,0,183.3,22.57,246.5,59.06,63.2,36.49,102.45,86.9,102.76,142.59Zm-217.19,86.16c34.52-16.55,54.21-37.65,59.05-63.66h-105.82c-4.17,10.33-12.9,18.39-26.62,24.25-8.88,3.79-19.16,6.41-30.79,7.79l-.62-109.55c11.7,1.37,21.96,3.99,30.88,7.9,2.52,1.13,4.88,2.33,7.07,3.6,9.71,5.61,16.29,12.56,19.67,20.92h106.12c-4.55-22.03-19.97-40.74-46.35-55.97-4.24-2.45-8.76-4.8-13.56-7.07-29.75-14.18-64.47-22.25-104.14-24.32l-.15-26.81h-52.91l.17,27.62c-41.33,3.45-76.96,13.56-106.87,30.52-37.52,20.93-56.12,47.02-55.94,78.54,.17,30.84,18.27,56.82,54.56,77.78,.8,.46,1.61,.92,2.42,1.37,30.03,16.64,65.81,26.69,107.18,30.06l.17,27.55,52.76,.09-.15-26.85c40.17-1.96,74.76-9.86,103.87-23.76h0Z"/><path class="cls-16" d="M4008.98,2757.56c-4.84,26.01-24.53,47.11-59.05,63.66-29.1,13.9-63.7,21.8-103.87,23.76l-.31-55.37c11.63-1.38,21.92-3.99,30.79-7.79,13.72-5.87,22.45-13.92,26.62-24.25h105.82Z"/><path class="cls-13" d="M4293.2,2735.06c.85,151.65-210.69,274.59-472.66,274.68-130.91,0-249.63-30.75-335.74-80.47-86.1-49.71-139.59-118.38-140.01-194.21-.7-151.74,210.84-274.68,472.66-274.68,130.98-.04,249.75,30.69,335.85,80.4,86.1,49.71,139.55,118.4,139.9,194.27Zm-473.07,201.65c192.28,0,347.63-90.28,347-201.65-.31-55.69-39.56-106.1-102.76-142.59-63.2-36.49-150.36-59.06-246.5-59.06-192.28,0-347.62,90.28-347,201.65,.31,55.69,39.56,106.1,102.76,142.59,63.2,36.49,150.36,59.06,246.5,59.06h0Z"/><path class="cls-9" d="M4293.2,2735.06l-.27,96.81c.85,151.65-210.69,274.59-472.66,274.68-130.91,0-249.63-30.75-335.74-80.47-86.1-49.71-139.59-118.38-140.01-194.21l.27-96.81c.43,75.83,53.91,144.5,140.01,194.21,86.1,49.71,204.83,80.47,335.74,80.47,261.97-.09,473.51-123.02,472.66-274.68Z"/><g><path class="cls-18" d="M3373.2,2925.18c8.08,12.83,17.58,25.18,28.74,37.06v-97.15c-11.16-11.88-20.9-24.23-28.74-37.06v97.15Z"/><path class="cls-18" d="M3430.68,2988.84c9.03,7.6,18.53,14.73,28.74,21.38v-96.91c-10.21-6.89-19.95-14.02-28.74-21.38v96.91Z"/><path class="cls-18" d="M3488.17,3028.03c9.26,5.46,18.76,10.45,28.74,15.2v-97.15c-9.98-4.75-19.48-9.74-28.74-14.96v96.91Z"/><path class="cls-18" d="M3545.65,3055.82c9.26,4.04,19,7.6,28.74,10.93v-96.91c-9.74-3.33-19.48-7.13-28.74-10.93v96.91Z"/><path class="cls-18" d="M3603.13,3076.01c9.5,3.09,19.24,5.7,28.98,8.08v-96.91c-9.98-2.38-19.48-5.23-28.98-8.08v96.91Z"/><path class="cls-18" d="M3660.85,3090.74c9.5,1.9,19,3.8,28.74,5.23v-96.91c-9.74-1.43-19.48-3.33-28.74-5.23v96.91Z"/><path class="cls-18" d="M3718.34,3100.24c9.5,1.19,19,2.38,28.74,3.33v-97.15c-9.74-.71-19.24-1.9-28.74-3.09v96.91Z"/><path class="cls-18" d="M3775.82,3105.47c9.5,.47,19,.95,28.74,.95v-96.91c-9.5,0-19.24-.47-28.74-.95v96.91Z"/><path class="cls-18" d="M3833.3,3106.42c9.74,0,19.24-.48,28.74-.95v-96.91c-9.5,.71-19,.95-28.74,.95v96.91Z"/><path class="cls-18" d="M3890.79,3103.57c9.5-.71,19.24-1.9,28.74-3.09v-96.68c-9.5,1.19-19.24,2.14-28.74,3.09v96.68Z"/><path class="cls-18" d="M3948.27,3096.2c9.74-1.42,19.48-3.09,28.74-4.99v-96.91c-9.26,1.9-19,3.8-28.74,5.23v96.68Z"/><path class="cls-18" d="M4005.75,3084.57c9.74-2.38,19.48-4.99,28.74-7.84v-96.68c-9.26,2.85-19,5.46-28.74,7.84v96.68Z"/><path class="cls-18" d="M4063.24,3067.7c9.74-3.33,19.48-6.89,28.74-10.93v-96.68c-9.26,3.8-19,7.6-28.74,10.93v96.68Z"/><path class="cls-18" d="M4120.72,3044.18c9.98-4.75,19.48-9.74,28.74-14.96v-96.68c-9.26,5.23-18.77,10.21-28.74,14.96v96.68Z"/><path class="cls-18" d="M4178.2,3011.64c10.21-6.89,19.95-14.02,28.74-21.38v-96.68c-8.79,7.6-18.53,14.49-28.74,21.38v96.68Z"/><path class="cls-18" d="M4235.69,2866.98v96.44c11.16-11.64,20.9-24.23,28.74-37.06v-96.2c-7.84,12.83-17.58,24.94-28.74,36.82Z"/></g></g><g><polygon class="cls-16" points="3844.68 2470.07 3844.83 2496.88 3845.14 2551.83 3845.75 2661.38 3846.07 2716.76 3846.22 2743.61 3793.46 2743.52 3793.29 2715.97 3792.94 2659.48 3792.29 2553.77 3791.94 2497.69 3791.77 2470.07 3844.68 2470.07"/><path class="cls-16" d="M3876.02,2559.73c-8.93-3.91-19.19-6.53-30.88-7.9l-.31-54.95c39.67,2.07,74.39,10.14,104.14,24.32,4.8,2.27,9.32,4.62,13.56,7.07,26.38,15.23,41.8,33.94,46.35,55.97h-106.12c-3.38-8.35-9.96-15.31-19.67-20.92-2.2-1.27-4.56-2.47-7.07-3.6Z"/><path class="cls-9" d="M3758.91,2566.65c9.58-5.96,20.7-10.26,33.38-12.88l.65,105.71c-12.01-2.42-22.63-6.28-31.89-11.63-.57-.33-1.13-.66-1.69-1-16.99-10.51-25.53-23.82-25.77-40.02,.06-16.2,8.3-29.6,25.32-40.19Z"/><path class="cls-16" d="M3761.05,2647.86c9.26,5.35,19.88,9.21,31.89,11.63l.35,56.48c-41.37-3.37-77.15-13.42-107.18-30.06-.81-.46-1.62-.91-2.42-1.37-36.3-20.96-54.39-46.94-54.56-77.78-.18-31.52,18.42-57.61,55.94-78.54,29.91-16.96,65.54-27.07,106.87-30.52l.35,56.08c-12.69,2.62-23.8,6.92-33.38,12.88-17.02,10.59-25.26,23.99-25.32,40.19,.24,16.2,8.78,29.51,25.77,40.02,.56,.34,1.12,.67,1.69,1Z"/><path class="cls-9" d="M4167.13,2606.84c.63,111.38-154.72,201.65-347,201.65-96.14,0-183.3-22.57-246.5-59.06-63.2-36.49-102.45-86.9-102.76-142.59-.63-111.38,154.72-201.65,347-201.65,96.14,0,183.3,22.57,246.5,59.06,63.2,36.49,102.45,86.9,102.76,142.59Zm-217.19,86.16c34.52-16.55,54.21-37.65,59.05-63.66h-105.82c-4.17,10.33-12.9,18.39-26.62,24.25-8.88,3.79-19.16,6.41-30.79,7.79l-.62-109.55c11.7,1.37,21.96,3.99,30.88,7.9,2.52,1.13,4.88,2.33,7.07,3.6,9.71,5.61,16.29,12.56,19.67,20.92h106.12c-4.55-22.03-19.97-40.74-46.35-55.97-4.24-2.45-8.76-4.8-13.56-7.07-29.75-14.18-64.47-22.25-104.14-24.32l-.15-26.81h-52.91l.17,27.62c-41.33,3.45-76.96,13.56-106.87,30.52-37.52,20.93-56.12,47.02-55.94,78.54,.17,30.84,18.27,56.82,54.56,77.78,.8,.46,1.61,.92,2.42,1.37,30.03,16.64,65.81,26.68,107.18,30.06l.17,27.55,52.76,.09-.15-26.85c40.17-1.96,74.76-9.86,103.87-23.76h0Z"/><path class="cls-16" d="M4008.98,2629.34c-4.84,26.01-24.53,47.11-59.05,63.66-29.1,13.9-63.7,21.8-103.87,23.76l-.31-55.37c11.63-1.38,21.92-3.99,30.79-7.79,13.72-5.87,22.45-13.92,26.62-24.25h105.82Z"/><path class="cls-13" d="M4293.2,2606.84c.85,151.65-210.69,274.59-472.66,274.68-130.91,0-249.63-30.75-335.74-80.47-86.1-49.71-139.59-118.38-140.01-194.21-.7-151.74,210.84-274.68,472.66-274.68,130.98-.04,249.75,30.69,335.85,80.4,86.1,49.71,139.55,118.4,139.9,194.27Zm-473.07,201.65c192.28,0,347.63-90.28,347-201.65-.31-55.69-39.56-106.1-102.76-142.59-63.2-36.49-150.36-59.06-246.5-59.06-192.28,0-347.62,90.28-347,201.65,.31,55.69,39.56,106.1,102.76,142.59,63.2,36.49,150.36,59.06,246.5,59.06h0Z"/><path class="cls-9" d="M4293.2,2606.84l-.27,96.81c.85,151.65-210.69,274.59-472.66,274.68-130.91,0-249.63-30.75-335.74-80.47-86.1-49.71-139.59-118.38-140.01-194.21l.27-96.81c.43,75.83,53.91,144.5,140.01,194.21,86.1,49.71,204.83,80.47,335.74,80.47,261.97-.09,473.51-123.02,472.66-274.68Z"/><g><path class="cls-18" d="M3373.2,2796.96c8.08,12.83,17.58,25.18,28.74,37.06v-97.15c-11.16-11.88-20.9-24.23-28.74-37.06v97.15Z"/><path class="cls-18" d="M3430.68,2860.62c9.03,7.6,18.53,14.73,28.74,21.38v-96.91c-10.21-6.89-19.95-14.02-28.74-21.38v96.91Z"/><path class="cls-18" d="M3488.17,2899.81c9.26,5.46,18.76,10.45,28.74,15.2v-97.15c-9.98-4.75-19.48-9.74-28.74-14.96v96.91Z"/><path class="cls-18" d="M3545.65,2927.6c9.26,4.04,19,7.6,28.74,10.93v-96.91c-9.74-3.33-19.48-7.13-28.74-10.93v96.91Z"/><path class="cls-18" d="M3603.13,2947.79c9.5,3.09,19.24,5.7,28.98,8.08v-96.91c-9.98-2.37-19.48-5.22-28.98-8.08v96.91Z"/><path class="cls-18" d="M3660.85,2962.52c9.5,1.9,19,3.8,28.74,5.23v-96.91c-9.74-1.43-19.48-3.33-28.74-5.23v96.91Z"/><path class="cls-18" d="M3718.34,2972.02c9.5,1.19,19,2.37,28.74,3.33v-97.15c-9.74-.71-19.24-1.9-28.74-3.09v96.91Z"/><path class="cls-18" d="M3775.82,2977.25c9.5,.47,19,.95,28.74,.95v-96.91c-9.5,0-19.24-.47-28.74-.95v96.91Z"/><path class="cls-18" d="M3833.3,2978.2c9.74,0,19.24-.48,28.74-.95v-96.91c-9.5,.71-19,.95-28.74,.95v96.91Z"/><path class="cls-18" d="M3890.79,2975.35c9.5-.71,19.24-1.9,28.74-3.09v-96.68c-9.5,1.19-19.24,2.14-28.74,3.09v96.68Z"/><path class="cls-18" d="M3948.27,2967.98c9.74-1.43,19.48-3.09,28.74-4.99v-96.91c-9.26,1.9-19,3.8-28.74,5.23v96.68Z"/><path class="cls-18" d="M4005.75,2956.35c9.74-2.38,19.48-4.99,28.74-7.84v-96.68c-9.26,2.85-19,5.46-28.74,7.84v96.68Z"/><path class="cls-18" d="M4063.24,2939.48c9.74-3.33,19.48-6.89,28.74-10.93v-96.68c-9.26,3.8-19,7.6-28.74,10.93v96.68Z"/><path class="cls-18" d="M4120.72,2915.96c9.98-4.75,19.48-9.74,28.74-14.96v-96.68c-9.26,5.23-18.77,10.21-28.74,14.96v96.68Z"/><path class="cls-18" d="M4178.2,2883.42c10.21-6.89,19.95-14.02,28.74-21.38v-96.68c-8.79,7.6-18.53,14.49-28.74,21.38v96.68Z"/><path class="cls-18" d="M4235.69,2738.76v96.44c11.16-11.64,20.9-24.23,28.74-37.06v-96.2c-7.84,12.83-17.58,24.94-28.74,36.82Z"/></g></g><g><polygon class="cls-16" points="3844.68 2341.85 3844.83 2368.66 3845.14 2423.61 3845.75 2533.16 3846.07 2588.54 3846.22 2615.39 3793.46 2615.3 3793.29 2587.75 3792.94 2531.26 3792.29 2425.55 3791.94 2369.47 3791.77 2341.85 3844.68 2341.85"/><path class="cls-16" d="M3876.02,2431.51c-8.93-3.91-19.19-6.53-30.88-7.9l-.31-54.95c39.67,2.07,74.39,10.14,104.14,24.32,4.8,2.27,9.32,4.62,13.56,7.07,26.38,15.23,41.8,33.94,46.35,55.97h-106.12c-3.38-8.35-9.96-15.31-19.67-20.92-2.2-1.27-4.56-2.47-7.07-3.6Z"/><path class="cls-9" d="M3758.91,2438.43c9.58-5.96,20.7-10.26,33.38-12.88l.65,105.71c-12.01-2.42-22.63-6.28-31.89-11.63-.57-.33-1.13-.66-1.69-1-16.99-10.51-25.53-23.82-25.77-40.02,.06-16.2,8.3-29.59,25.32-40.19Z"/><path class="cls-16" d="M3761.05,2519.64c9.26,5.35,19.88,9.21,31.89,11.63l.35,56.48c-41.37-3.37-77.15-13.42-107.18-30.06-.81-.46-1.62-.91-2.42-1.37-36.3-20.96-54.39-46.94-54.56-77.78-.18-31.52,18.42-57.61,55.94-78.54,29.91-16.96,65.54-27.07,106.87-30.52l.35,56.08c-12.69,2.62-23.8,6.92-33.38,12.88-17.02,10.6-25.26,23.99-25.32,40.19,.24,16.2,8.78,29.51,25.77,40.02,.56,.34,1.12,.67,1.69,1Z"/><path class="cls-9" d="M4167.13,2478.62c.63,111.38-154.72,201.65-347,201.65-96.14,0-183.3-22.57-246.5-59.06-63.2-36.49-102.45-86.9-102.76-142.59-.63-111.38,154.72-201.65,347-201.65,96.14,0,183.3,22.57,246.5,59.06,63.2,36.49,102.45,86.9,102.76,142.59Zm-217.19,86.16c34.52-16.55,54.21-37.65,59.05-63.66h-105.82c-4.17,10.33-12.9,18.39-26.62,24.25-8.88,3.79-19.16,6.41-30.79,7.79l-.62-109.55c11.7,1.37,21.96,3.99,30.88,7.9,2.52,1.13,4.88,2.33,7.07,3.6,9.71,5.61,16.29,12.56,19.67,20.92h106.12c-4.55-22.03-19.97-40.74-46.35-55.97-4.24-2.45-8.76-4.8-13.56-7.07-29.75-14.18-64.47-22.25-104.14-24.32l-.15-26.81h-52.91l.17,27.62c-41.33,3.45-76.96,13.56-106.87,30.52-37.52,20.93-56.12,47.02-55.94,78.54,.17,30.84,18.27,56.82,54.56,77.78,.8,.46,1.61,.92,2.42,1.37,30.03,16.64,65.81,26.68,107.18,30.06l.17,27.55,52.76,.09-.15-26.85c40.17-1.96,74.76-9.86,103.87-23.76h0Z"/><path class="cls-16" d="M4008.98,2501.12c-4.84,26.01-24.53,47.11-59.05,63.66-29.1,13.9-63.7,21.8-103.87,23.76l-.31-55.37c11.63-1.38,21.92-3.99,30.79-7.79,13.72-5.87,22.45-13.92,26.62-24.25h105.82Z"/><path class="cls-13" d="M4293.2,2478.62c.85,151.65-210.69,274.59-472.66,274.68-130.91,0-249.63-30.75-335.74-80.47-86.1-49.71-139.59-118.38-140.01-194.21-.7-151.74,210.84-274.68,472.66-274.68,130.98-.04,249.75,30.69,335.85,80.4,86.1,49.71,139.55,118.4,139.9,194.27Zm-473.07,201.65c192.28,0,347.63-90.28,347-201.65-.31-55.69-39.56-106.1-102.76-142.59-63.2-36.49-150.36-59.06-246.5-59.06-192.28,0-347.62,90.28-347,201.65,.31,55.69,39.56,106.1,102.76,142.59,63.2,36.49,150.36,59.06,246.5,59.06h0Z"/><path class="cls-9" d="M4293.2,2478.62l-.27,96.81c.85,151.65-210.69,274.59-472.66,274.68-130.91,0-249.63-30.75-335.74-80.47-86.1-49.71-139.59-118.38-140.01-194.21l.27-96.81c.43,75.83,53.91,144.5,140.01,194.21,86.1,49.71,204.83,80.47,335.74,80.47,261.97-.09,473.51-123.02,472.66-274.68Z"/><g><path class="cls-18" d="M3373.2,2668.74c8.08,12.83,17.58,25.18,28.74,37.06v-97.15c-11.16-11.88-20.9-24.23-28.74-37.06v97.15Z"/><path class="cls-18" d="M3430.68,2732.4c9.03,7.6,18.53,14.73,28.74,21.38v-96.91c-10.21-6.89-19.95-14.02-28.74-21.38v96.91Z"/><path class="cls-18" d="M3488.17,2771.59c9.26,5.46,18.76,10.45,28.74,15.2v-97.15c-9.98-4.75-19.48-9.74-28.74-14.96v96.91Z"/><path class="cls-18" d="M3545.65,2799.38c9.26,4.04,19,7.6,28.74,10.93v-96.91c-9.74-3.33-19.48-7.13-28.74-10.93v96.91Z"/><path class="cls-18" d="M3603.13,2819.57c9.5,3.09,19.24,5.7,28.98,8.08v-96.91c-9.98-2.37-19.48-5.23-28.98-8.08v96.91Z"/><path class="cls-18" d="M3660.85,2834.3c9.5,1.9,19,3.8,28.74,5.23v-96.91c-9.74-1.42-19.48-3.33-28.74-5.22v96.91Z"/><path class="cls-18" d="M3718.34,2843.8c9.5,1.19,19,2.37,28.74,3.33v-97.15c-9.74-.71-19.24-1.9-28.74-3.09v96.91Z"/><path class="cls-18" d="M3775.82,2849.03c9.5,.47,19,.95,28.74,.95v-96.91c-9.5,0-19.24-.47-28.74-.95v96.91Z"/><path class="cls-18" d="M3833.3,2849.98c9.74,0,19.24-.48,28.74-.95v-96.91c-9.5,.71-19,.95-28.74,.95v96.91Z"/><path class="cls-18" d="M3890.79,2847.13c9.5-.71,19.24-1.9,28.74-3.09v-96.68c-9.5,1.19-19.24,2.14-28.74,3.09v96.68Z"/><path class="cls-18" d="M3948.27,2839.76c9.74-1.43,19.48-3.09,28.74-4.99v-96.91c-9.26,1.9-19,3.8-28.74,5.23v96.68Z"/><path class="cls-18" d="M4005.75,2828.13c9.74-2.38,19.48-4.99,28.74-7.84v-96.68c-9.26,2.85-19,5.46-28.74,7.84v96.68Z"/><path class="cls-18" d="M4063.24,2811.26c9.74-3.33,19.48-6.89,28.74-10.93v-96.68c-9.26,3.8-19,7.6-28.74,10.93v96.68Z"/><path class="cls-18" d="M4120.72,2787.74c9.98-4.75,19.48-9.74,28.74-14.96v-96.68c-9.26,5.23-18.77,10.21-28.74,14.96v96.68Z"/><path class="cls-18" d="M4178.2,2755.2c10.21-6.89,19.95-14.02,28.74-21.38v-96.68c-8.79,7.6-18.53,14.49-28.74,21.38v96.68Z"/><path class="cls-18" d="M4235.69,2610.54v96.44c11.16-11.64,20.9-24.23,28.74-37.06v-96.2c-7.84,12.83-17.58,24.94-28.74,36.82Z"/></g></g><g><polygon class="cls-16" points="3844.68 2213.63 3844.83 2240.44 3845.14 2295.39 3845.75 2404.94 3846.07 2460.32 3846.22 2487.17 3793.46 2487.08 3793.29 2459.53 3792.94 2403.04 3792.29 2297.33 3791.94 2241.25 3791.77 2213.63 3844.68 2213.63"/><path class="cls-16" d="M3876.02,2303.29c-8.93-3.91-19.19-6.53-30.88-7.9l-.31-54.95c39.67,2.07,74.39,10.14,104.14,24.32,4.8,2.27,9.32,4.62,13.56,7.07,26.38,15.23,41.8,33.94,46.35,55.97h-106.12c-3.38-8.35-9.96-15.31-19.67-20.92-2.2-1.27-4.56-2.47-7.07-3.6Z"/><path class="cls-9" d="M3758.91,2310.21c9.58-5.96,20.7-10.26,33.38-12.88l.65,105.71c-12.01-2.42-22.63-6.28-31.89-11.63-.57-.33-1.13-.66-1.69-1-16.99-10.51-25.53-23.82-25.77-40.02,.06-16.2,8.3-29.59,25.32-40.19Z"/><path class="cls-16" d="M3761.05,2391.42c9.26,5.35,19.88,9.21,31.89,11.63l.35,56.48c-41.37-3.37-77.15-13.42-107.18-30.06-.81-.45-1.62-.91-2.42-1.37-36.3-20.96-54.39-46.94-54.56-77.78-.18-31.52,18.42-57.61,55.94-78.54,29.91-16.96,65.54-27.07,106.87-30.52l.35,56.08c-12.69,2.62-23.8,6.92-33.38,12.88-17.02,10.6-25.26,23.99-25.32,40.19,.24,16.2,8.78,29.51,25.77,40.02,.56,.34,1.12,.67,1.69,1Z"/><path class="cls-9" d="M4167.13,2350.4c.63,111.38-154.72,201.65-347,201.65-96.14,0-183.3-22.57-246.5-59.06-63.2-36.49-102.45-86.9-102.76-142.59-.63-111.38,154.72-201.65,347-201.65,96.14,0,183.3,22.57,246.5,59.06,63.2,36.49,102.45,86.9,102.76,142.59Zm-217.19,86.16c34.52-16.55,54.21-37.65,59.05-63.66h-105.82c-4.17,10.33-12.9,18.39-26.62,24.25-8.88,3.79-19.16,6.41-30.79,7.79l-.62-109.55c11.7,1.37,21.96,3.99,30.88,7.9,2.52,1.13,4.88,2.33,7.07,3.6,9.71,5.61,16.29,12.56,19.67,20.92h106.12c-4.55-22.03-19.97-40.74-46.35-55.97-4.24-2.45-8.76-4.8-13.56-7.07-29.75-14.18-64.47-22.25-104.14-24.32l-.15-26.81h-52.91l.17,27.62c-41.33,3.45-76.96,13.56-106.87,30.52-37.52,20.93-56.12,47.02-55.94,78.54,.17,30.84,18.27,56.82,54.56,77.78,.8,.46,1.61,.92,2.42,1.37,30.03,16.64,65.81,26.69,107.18,30.06l.17,27.55,52.76,.09-.15-26.85c40.17-1.97,74.76-9.86,103.87-23.76h0Z"/><path class="cls-16" d="M4008.98,2372.9c-4.84,26.01-24.53,47.11-59.05,63.66-29.1,13.9-63.7,21.8-103.87,23.76l-.31-55.37c11.63-1.38,21.92-3.99,30.79-7.79,13.72-5.87,22.45-13.92,26.62-24.25h105.82Z"/><path class="cls-13" d="M4293.2,2350.4c.85,151.65-210.69,274.59-472.66,274.68-130.91,0-249.63-30.75-335.74-80.47-86.1-49.71-139.59-118.38-140.01-194.21-.7-151.74,210.84-274.68,472.66-274.68,130.98-.04,249.75,30.69,335.85,80.4,86.1,49.71,139.55,118.4,139.9,194.27Zm-473.07,201.65c192.28,0,347.63-90.28,347-201.65-.31-55.69-39.56-106.1-102.76-142.59-63.2-36.49-150.36-59.06-246.5-59.06-192.28,0-347.62,90.28-347,201.65,.31,55.69,39.56,106.1,102.76,142.59,63.2,36.49,150.36,59.06,246.5,59.06h0Z"/><path class="cls-9" d="M4293.2,2350.4l-.27,96.81c.85,151.65-210.69,274.59-472.66,274.68-130.91,0-249.63-30.75-335.74-80.47-86.1-49.71-139.59-118.38-140.01-194.21l.27-96.81c.43,75.83,53.91,144.5,140.01,194.21,86.1,49.71,204.83,80.47,335.74,80.47,261.97-.09,473.51-123.02,472.66-274.68Z"/><g><path class="cls-18" d="M3373.2,2540.52c8.08,12.83,17.58,25.18,28.74,37.06v-97.15c-11.16-11.88-20.9-24.23-28.74-37.06v97.15Z"/><path class="cls-18" d="M3430.68,2604.18c9.03,7.6,18.53,14.73,28.74,21.38v-96.91c-10.21-6.89-19.95-14.02-28.74-21.38v96.91Z"/><path class="cls-18" d="M3488.17,2643.37c9.26,5.46,18.76,10.45,28.74,15.2v-97.15c-9.98-4.75-19.48-9.74-28.74-14.96v96.91Z"/><path class="cls-18" d="M3545.65,2671.16c9.26,4.04,19,7.6,28.74,10.93v-96.91c-9.74-3.33-19.48-7.13-28.74-10.93v96.91Z"/><path class="cls-18" d="M3603.13,2691.35c9.5,3.09,19.24,5.7,28.98,8.08v-96.91c-9.98-2.37-19.48-5.23-28.98-8.08v96.91Z"/><path class="cls-18" d="M3660.85,2706.08c9.5,1.9,19,3.8,28.74,5.23v-96.91c-9.74-1.43-19.48-3.33-28.74-5.23v96.91Z"/><path class="cls-18" d="M3718.34,2715.58c9.5,1.19,19,2.37,28.74,3.33v-97.15c-9.74-.71-19.24-1.9-28.74-3.09v96.91Z"/><path class="cls-18" d="M3775.82,2720.81c9.5,.47,19,.95,28.74,.95v-96.91c-9.5,0-19.24-.47-28.74-.95v96.91Z"/><path class="cls-18" d="M3833.3,2721.76c9.74,0,19.24-.48,28.74-.95v-96.91c-9.5,.71-19,.95-28.74,.95v96.91Z"/><path class="cls-18" d="M3890.79,2718.91c9.5-.71,19.24-1.9,28.74-3.09v-96.68c-9.5,1.19-19.24,2.14-28.74,3.09v96.68Z"/><path class="cls-18" d="M3948.27,2711.54c9.74-1.43,19.48-3.09,28.74-4.99v-96.91c-9.26,1.9-19,3.8-28.74,5.23v96.68Z"/><path class="cls-18" d="M4005.75,2699.91c9.74-2.38,19.48-4.99,28.74-7.84v-96.68c-9.26,2.85-19,5.46-28.74,7.84v96.68Z"/><path class="cls-18" d="M4063.24,2683.04c9.74-3.33,19.48-6.89,28.74-10.93v-96.68c-9.26,3.8-19,7.6-28.74,10.93v96.68Z"/><path class="cls-18" d="M4120.72,2659.52c9.98-4.75,19.48-9.74,28.74-14.96v-96.68c-9.26,5.23-18.77,10.21-28.74,14.96v96.68Z"/><path class="cls-18" d="M4178.2,2626.98c10.21-6.89,19.95-14.02,28.74-21.38v-96.68c-8.79,7.6-18.53,14.49-28.74,21.38v96.68Z"/><path class="cls-18" d="M4235.69,2482.32v96.44c11.16-11.64,20.9-24.23,28.74-37.06v-96.2c-7.84,12.83-17.58,24.94-28.74,36.82Z"/></g></g><g><polygon class="cls-16" points="3844.68 2085.41 3844.83 2112.22 3845.14 2167.17 3845.75 2276.72 3846.07 2332.1 3846.22 2358.95 3793.46 2358.86 3793.29 2331.31 3792.94 2274.82 3792.29 2169.11 3791.94 2113.03 3791.77 2085.41 3844.68 2085.41"/><path class="cls-16" d="M3876.02,2175.07c-8.93-3.91-19.19-6.53-30.88-7.9l-.31-54.95c39.67,2.07,74.39,10.14,104.14,24.32,4.8,2.27,9.32,4.62,13.56,7.07,26.38,15.23,41.8,33.94,46.35,55.97h-106.12c-3.38-8.35-9.96-15.31-19.67-20.92-2.2-1.27-4.56-2.47-7.07-3.6Z"/><path class="cls-9" d="M3758.91,2181.99c9.58-5.96,20.7-10.26,33.38-12.88l.65,105.71c-12.01-2.42-22.63-6.28-31.89-11.63-.57-.33-1.13-.66-1.69-1-16.99-10.51-25.53-23.82-25.77-40.02,.06-16.2,8.3-29.6,25.32-40.19Z"/><path class="cls-16" d="M3761.05,2263.2c9.26,5.35,19.88,9.21,31.89,11.63l.35,56.48c-41.37-3.37-77.15-13.42-107.18-30.06-.81-.45-1.62-.91-2.42-1.37-36.3-20.96-54.39-46.94-54.56-77.78-.18-31.52,18.42-57.61,55.94-78.54,29.91-16.96,65.54-27.07,106.87-30.52l.35,56.08c-12.69,2.62-23.8,6.92-33.38,12.88-17.02,10.59-25.26,23.99-25.32,40.19,.24,16.2,8.78,29.51,25.77,40.02,.56,.34,1.12,.67,1.69,1Z"/><path class="cls-9" d="M4167.13,2222.18c.63,111.38-154.72,201.65-347,201.65-96.14,0-183.3-22.57-246.5-59.06-63.2-36.49-102.45-86.9-102.76-142.59-.63-111.38,154.72-201.65,347-201.65,96.14,0,183.3,22.57,246.5,59.06,63.2,36.49,102.45,86.9,102.76,142.59Zm-217.19,86.16c34.52-16.55,54.21-37.65,59.05-63.66h-105.82c-4.17,10.33-12.9,18.39-26.62,24.25-8.88,3.79-19.16,6.41-30.79,7.79l-.62-109.55c11.7,1.37,21.96,3.99,30.88,7.9,2.52,1.13,4.88,2.33,7.07,3.6,9.71,5.61,16.29,12.56,19.67,20.92h106.12c-4.55-22.03-19.97-40.74-46.35-55.97-4.24-2.45-8.76-4.8-13.56-7.07-29.75-14.18-64.47-22.25-104.14-24.32l-.15-26.81h-52.91l.17,27.62c-41.33,3.45-76.96,13.56-106.87,30.52-37.52,20.93-56.12,47.02-55.94,78.54,.17,30.84,18.27,56.82,54.56,77.78,.8,.46,1.61,.92,2.42,1.37,30.03,16.64,65.81,26.69,107.18,30.06l.17,27.55,52.76,.09-.15-26.85c40.17-1.96,74.76-9.86,103.87-23.76h0Z"/><path class="cls-16" d="M4008.98,2244.68c-4.84,26.01-24.53,47.11-59.05,63.66-29.1,13.9-63.7,21.8-103.87,23.76l-.31-55.37c11.63-1.38,21.92-3.99,30.79-7.79,13.72-5.87,22.45-13.92,26.62-24.25h105.82Z"/><path class="cls-13" d="M4293.2,2222.18c.85,151.65-210.69,274.59-472.66,274.68-130.91,0-249.63-30.75-335.74-80.47-86.1-49.71-139.59-118.38-140.01-194.21-.7-151.74,210.84-274.68,472.66-274.68,130.98-.04,249.75,30.69,335.85,80.4,86.1,49.71,139.55,118.4,139.9,194.27Zm-473.07,201.65c192.28,0,347.63-90.28,347-201.65-.31-55.69-39.56-106.1-102.76-142.59-63.2-36.49-150.36-59.06-246.5-59.06-192.28,0-347.62,90.28-347,201.65,.31,55.69,39.56,106.1,102.76,142.59,63.2,36.49,150.36,59.06,246.5,59.06h0Z"/><path class="cls-9" d="M4293.2,2222.18l-.27,96.81c.85,151.65-210.69,274.59-472.66,274.68-130.91,0-249.63-30.75-335.74-80.47-86.1-49.71-139.59-118.38-140.01-194.21l.27-96.81c.43,75.83,53.91,144.5,140.01,194.21,86.1,49.71,204.83,80.47,335.74,80.47,261.97-.09,473.51-123.02,472.66-274.68Z"/><g><path class="cls-18" d="M3373.2,2412.3c8.08,12.83,17.58,25.18,28.74,37.06v-97.15c-11.16-11.88-20.9-24.23-28.74-37.06v97.15Z"/><path class="cls-18" d="M3430.68,2475.96c9.03,7.6,18.53,14.73,28.74,21.38v-96.91c-10.21-6.89-19.95-14.02-28.74-21.38v96.91Z"/><path class="cls-18" d="M3488.17,2515.15c9.26,5.46,18.76,10.45,28.74,15.2v-97.15c-9.98-4.75-19.48-9.74-28.74-14.96v96.91Z"/><path class="cls-18" d="M3545.65,2542.94c9.26,4.04,19,7.6,28.74,10.93v-96.91c-9.74-3.33-19.48-7.13-28.74-10.93v96.91Z"/><path class="cls-18" d="M3603.13,2563.13c9.5,3.09,19.24,5.7,28.98,8.08v-96.91c-9.98-2.37-19.48-5.23-28.98-8.08v96.91Z"/><path class="cls-18" d="M3660.85,2577.86c9.5,1.9,19,3.8,28.74,5.23v-96.91c-9.74-1.43-19.48-3.33-28.74-5.23v96.91Z"/><path class="cls-18" d="M3718.34,2587.36c9.5,1.19,19,2.37,28.74,3.33v-97.15c-9.74-.71-19.24-1.9-28.74-3.09v96.91Z"/><path class="cls-18" d="M3775.82,2592.59c9.5,.47,19,.95,28.74,.95v-96.91c-9.5,0-19.24-.47-28.74-.95v96.91Z"/><path class="cls-18" d="M3833.3,2593.54c9.74,0,19.24-.48,28.74-.95v-96.91c-9.5,.71-19,.95-28.74,.95v96.91Z"/><path class="cls-18" d="M3890.79,2590.69c9.5-.71,19.24-1.9,28.74-3.09v-96.68c-9.5,1.19-19.24,2.14-28.74,3.09v96.68Z"/><path class="cls-18" d="M3948.27,2583.32c9.74-1.43,19.48-3.09,28.74-4.99v-96.91c-9.26,1.9-19,3.8-28.74,5.23v96.68Z"/><path class="cls-18" d="M4005.75,2571.69c9.74-2.38,19.48-4.99,28.74-7.84v-96.68c-9.26,2.85-19,5.46-28.74,7.84v96.68Z"/><path class="cls-18" d="M4063.24,2554.82c9.74-3.33,19.48-6.89,28.74-10.93v-96.68c-9.26,3.8-19,7.6-28.74,10.93v96.68Z"/><path class="cls-18" d="M4120.72,2531.3c9.98-4.75,19.48-9.74,28.74-14.96v-96.68c-9.26,5.23-18.77,10.21-28.74,14.96v96.68Z"/><path class="cls-18" d="M4178.2,2498.76c10.21-6.89,19.95-14.02,28.74-21.38v-96.68c-8.79,7.6-18.53,14.49-28.74,21.38v96.68Z"/><path class="cls-18" d="M4235.69,2354.1v96.44c11.16-11.64,20.9-24.23,28.74-37.06v-96.2c-7.84,12.83-17.58,24.94-28.74,36.82Z"/></g></g><g><polygon class="cls-16" points="3844.68 1957.19 3844.83 1984 3845.14 2038.95 3845.75 2148.5 3846.07 2203.88 3846.22 2230.73 3793.46 2230.64 3793.29 2203.09 3792.94 2146.6 3792.29 2040.89 3791.94 1984.81 3791.77 1957.19 3844.68 1957.19"/><path class="cls-16" d="M3876.02,2046.85c-8.93-3.91-19.19-6.53-30.88-7.9l-.31-54.95c39.67,2.07,74.39,10.14,104.14,24.32,4.8,2.27,9.32,4.62,13.56,7.07,26.38,15.23,41.8,33.94,46.35,55.97h-106.12c-3.38-8.35-9.96-15.31-19.67-20.92-2.2-1.27-4.56-2.47-7.07-3.6Z"/><path class="cls-9" d="M3758.91,2053.77c9.58-5.96,20.7-10.26,33.38-12.88l.65,105.71c-12.01-2.42-22.63-6.28-31.89-11.63-.57-.33-1.13-.66-1.69-1-16.99-10.51-25.53-23.82-25.77-40.02,.06-16.2,8.3-29.6,25.32-40.19Z"/><path class="cls-16" d="M3761.05,2134.98c9.26,5.35,19.88,9.21,31.89,11.63l.35,56.48c-41.37-3.37-77.15-13.42-107.18-30.06-.81-.46-1.62-.91-2.42-1.37-36.3-20.96-54.39-46.94-54.56-77.78-.18-31.52,18.42-57.61,55.94-78.54,29.91-16.96,65.54-27.07,106.87-30.52l.35,56.08c-12.69,2.62-23.8,6.92-33.38,12.88-17.02,10.59-25.26,23.99-25.32,40.19,.24,16.2,8.78,29.51,25.77,40.02,.56,.34,1.12,.67,1.69,1Z"/><path class="cls-9" d="M4167.13,2093.96c.63,111.38-154.72,201.65-347,201.65-96.14,0-183.3-22.57-246.5-59.06-63.2-36.49-102.45-86.9-102.76-142.59-.63-111.38,154.72-201.65,347-201.65,96.14,0,183.3,22.57,246.5,59.06,63.2,36.49,102.45,86.9,102.76,142.59Zm-217.19,86.16c34.52-16.55,54.21-37.65,59.05-63.66h-105.82c-4.17,10.33-12.9,18.39-26.62,24.25-8.88,3.79-19.16,6.41-30.79,7.79l-.62-109.55c11.7,1.37,21.96,3.99,30.88,7.9,2.52,1.13,4.88,2.33,7.07,3.6,9.71,5.61,16.29,12.56,19.67,20.92h106.12c-4.55-22.03-19.97-40.74-46.35-55.97-4.24-2.45-8.76-4.8-13.56-7.07-29.75-14.18-64.47-22.25-104.14-24.32l-.15-26.81h-52.91l.17,27.62c-41.33,3.45-76.96,13.56-106.87,30.52-37.52,20.93-56.12,47.02-55.94,78.54,.17,30.84,18.27,56.82,54.56,77.78,.8,.46,1.61,.92,2.42,1.37,30.03,16.64,65.81,26.69,107.18,30.06l.17,27.55,52.76,.09-.15-26.85c40.17-1.96,74.76-9.86,103.87-23.76h0Z"/><path class="cls-16" d="M4008.98,2116.46c-4.84,26.01-24.53,47.11-59.05,63.66-29.1,13.9-63.7,21.8-103.87,23.76l-.31-55.37c11.63-1.38,21.92-3.99,30.79-7.79,13.72-5.87,22.45-13.92,26.62-24.25h105.82Z"/><path class="cls-13" d="M4293.2,2093.96c.85,151.65-210.69,274.59-472.66,274.68-130.91,0-249.63-30.75-335.74-80.47-86.1-49.71-139.59-118.38-140.01-194.21-.7-151.74,210.84-274.68,472.66-274.68,130.98-.04,249.75,30.69,335.85,80.4,86.1,49.71,139.55,118.4,139.9,194.27Zm-473.07,201.65c192.28,0,347.63-90.28,347-201.65-.31-55.69-39.56-106.1-102.76-142.59-63.2-36.49-150.36-59.06-246.5-59.06-192.28,0-347.62,90.28-347,201.65,.31,55.69,39.56,106.1,102.76,142.59,63.2,36.49,150.36,59.06,246.5,59.06h0Z"/><path class="cls-9" d="M4293.2,2093.96l-.27,96.81c.85,151.65-210.69,274.59-472.66,274.68-130.91,0-249.63-30.75-335.74-80.47-86.1-49.71-139.59-118.38-140.01-194.21l.27-96.81c.43,75.83,53.91,144.5,140.01,194.21,86.1,49.71,204.83,80.47,335.74,80.47,261.97-.09,473.51-123.02,472.66-274.68Z"/><g><path class="cls-18" d="M3373.2,2284.08c8.08,12.83,17.58,25.18,28.74,37.06v-97.15c-11.16-11.88-20.9-24.23-28.74-37.06v97.15Z"/><path class="cls-18" d="M3430.68,2347.74c9.03,7.6,18.53,14.73,28.74,21.38v-96.91c-10.21-6.89-19.95-14.02-28.74-21.38v96.91Z"/><path class="cls-18" d="M3488.17,2386.93c9.26,5.46,18.76,10.45,28.74,15.2v-97.15c-9.98-4.75-19.48-9.74-28.74-14.96v96.91Z"/><path class="cls-18" d="M3545.65,2414.72c9.26,4.04,19,7.6,28.74,10.93v-96.91c-9.74-3.33-19.48-7.13-28.74-10.93v96.91Z"/><path class="cls-18" d="M3603.13,2434.91c9.5,3.09,19.24,5.7,28.98,8.08v-96.91c-9.98-2.38-19.48-5.23-28.98-8.08v96.91Z"/><path class="cls-18" d="M3660.85,2449.64c9.5,1.9,19,3.8,28.74,5.23v-96.91c-9.74-1.43-19.48-3.33-28.74-5.23v96.91Z"/><path class="cls-18" d="M3718.34,2459.14c9.5,1.19,19,2.38,28.74,3.33v-97.15c-9.74-.71-19.24-1.9-28.74-3.09v96.91Z"/><path class="cls-18" d="M3775.82,2464.37c9.5,.47,19,.95,28.74,.95v-96.91c-9.5,0-19.24-.47-28.74-.95v96.91Z"/><path class="cls-18" d="M3833.3,2465.32c9.74,0,19.24-.48,28.74-.95v-96.91c-9.5,.71-19,.95-28.74,.95v96.91Z"/><path class="cls-18" d="M3890.79,2462.47c9.5-.71,19.24-1.9,28.74-3.09v-96.68c-9.5,1.19-19.24,2.14-28.74,3.09v96.68Z"/><path class="cls-18" d="M3948.27,2455.1c9.74-1.42,19.48-3.09,28.74-4.99v-96.91c-9.26,1.9-19,3.8-28.74,5.23v96.68Z"/><path class="cls-18" d="M4005.75,2443.47c9.74-2.38,19.48-4.99,28.74-7.84v-96.68c-9.26,2.85-19,5.46-28.74,7.84v96.68Z"/><path class="cls-18" d="M4063.24,2426.6c9.74-3.33,19.48-6.89,28.74-10.93v-96.68c-9.26,3.8-19,7.6-28.74,10.93v96.68Z"/><path class="cls-18" d="M4120.72,2403.08c9.98-4.75,19.48-9.74,28.74-14.96v-96.68c-9.26,5.23-18.77,10.21-28.74,14.96v96.68Z"/><path class="cls-18" d="M4178.2,2370.54c10.21-6.89,19.95-14.02,28.74-21.38v-96.68c-8.79,7.6-18.53,14.49-28.74,21.38v96.68Z"/><path class="cls-18" d="M4235.69,2225.88v96.44c11.16-11.64,20.9-24.23,28.74-37.06v-96.2c-7.84,12.83-17.58,24.94-28.74,36.82Z"/></g></g><g><polygon class="cls-16" points="3844.68 1829.01 3844.83 1855.82 3845.14 1910.78 3845.75 2020.33 3846.07 2075.7 3846.22 2102.55 3793.46 2102.46 3793.29 2074.91 3792.94 2018.43 3792.29 1912.71 3791.94 1856.63 3791.77 1829.01 3844.68 1829.01"/><path class="cls-16" d="M3876.02,1918.67c-8.93-3.91-19.19-6.53-30.88-7.9l-.31-54.95c39.67,2.07,74.39,10.14,104.14,24.32,4.8,2.27,9.32,4.62,13.56,7.07,26.38,15.23,41.8,33.94,46.35,55.97h-106.12c-3.38-8.35-9.96-15.31-19.67-20.92-2.2-1.27-4.56-2.47-7.07-3.6Z"/><path class="cls-9" d="M3758.91,1925.59c9.58-5.96,20.7-10.26,33.38-12.88l.65,105.71c-12.01-2.42-22.63-6.28-31.89-11.63-.57-.33-1.13-.66-1.69-1-16.99-10.51-25.53-23.82-25.77-40.02,.06-16.2,8.3-29.6,25.32-40.19Z"/><path class="cls-16" d="M3761.05,2006.8c9.26,5.35,19.88,9.21,31.89,11.63l.35,56.48c-41.37-3.37-77.15-13.42-107.18-30.06-.81-.46-1.62-.91-2.42-1.37-36.3-20.96-54.39-46.94-54.56-77.78-.18-31.52,18.42-57.61,55.94-78.54,29.91-16.96,65.54-27.07,106.87-30.52l.35,56.08c-12.69,2.62-23.8,6.92-33.38,12.88-17.02,10.59-25.26,23.99-25.32,40.19,.24,16.2,8.78,29.51,25.77,40.02,.56,.34,1.12,.67,1.69,1Z"/><path class="cls-9" d="M4167.13,1965.78c.63,111.38-154.72,201.65-347,201.65-96.14,0-183.3-22.57-246.5-59.06-63.2-36.49-102.45-86.9-102.76-142.59-.63-111.38,154.72-201.65,347-201.65,96.14,0,183.3,22.57,246.5,59.06,63.2,36.49,102.45,86.9,102.76,142.59Zm-217.19,86.16c34.52-16.55,54.21-37.65,59.05-63.66h-105.82c-4.17,10.33-12.9,18.39-26.62,24.25-8.88,3.79-19.16,6.41-30.79,7.79l-.62-109.55c11.7,1.37,21.96,3.99,30.88,7.9,2.52,1.13,4.88,2.33,7.07,3.6,9.71,5.61,16.29,12.56,19.67,20.92h106.12c-4.55-22.03-19.97-40.74-46.35-55.97-4.24-2.45-8.76-4.8-13.56-7.07-29.75-14.18-64.47-22.25-104.14-24.32l-.15-26.81h-52.91l.17,27.62c-41.33,3.45-76.96,13.56-106.87,30.52-37.52,20.93-56.12,47.02-55.94,78.54,.17,30.84,18.27,56.82,54.56,77.78,.8,.46,1.61,.92,2.42,1.37,30.03,16.64,65.81,26.69,107.18,30.06l.17,27.55,52.76,.09-.15-26.85c40.17-1.96,74.76-9.86,103.87-23.76h0Z"/><path class="cls-16" d="M4008.98,1988.28c-4.84,26.01-24.53,47.11-59.05,63.66-29.1,13.9-63.7,21.8-103.87,23.76l-.31-55.37c11.63-1.38,21.92-3.99,30.79-7.79,13.72-5.87,22.45-13.92,26.62-24.25h105.82Z"/><path class="cls-13" d="M4293.2,1965.78c.85,151.65-210.69,274.59-472.66,274.68-130.91,0-249.63-30.75-335.74-80.47-86.1-49.71-139.59-118.38-140.01-194.21-.7-151.74,210.84-274.68,472.66-274.68,130.98-.04,249.75,30.69,335.85,80.4,86.1,49.71,139.55,118.4,139.9,194.27Zm-473.07,201.65c192.28,0,347.63-90.28,347-201.65-.31-55.69-39.56-106.1-102.76-142.59-63.2-36.49-150.36-59.06-246.5-59.06-192.28,0-347.62,90.28-347,201.65,.31,55.69,39.56,106.1,102.76,142.59,63.2,36.49,150.36,59.06,246.5,59.06h0Z"/><path class="cls-9" d="M4293.2,1965.78l-.27,96.81c.85,151.65-210.69,274.59-472.66,274.68-130.91,0-249.63-30.75-335.74-80.47-86.1-49.71-139.59-118.38-140.01-194.21l.27-96.81c.43,75.83,53.91,144.5,140.01,194.21,86.1,49.71,204.83,80.47,335.74,80.47,261.97-.09,473.51-123.02,472.66-274.68Z"/><g><path class="cls-18" d="M3373.2,2155.9c8.08,12.83,17.58,25.18,28.74,37.06v-97.15c-11.16-11.88-20.9-24.23-28.74-37.06v97.15Z"/><path class="cls-18" d="M3430.68,2219.56c9.03,7.6,18.53,14.73,28.74,21.38v-96.91c-10.21-6.89-19.95-14.02-28.74-21.38v96.91Z"/><path class="cls-18" d="M3488.17,2258.76c9.26,5.46,18.76,10.45,28.74,15.2v-97.15c-9.98-4.75-19.48-9.74-28.74-14.96v96.91Z"/><path class="cls-18" d="M3545.65,2286.55c9.26,4.04,19,7.6,28.74,10.93v-96.91c-9.74-3.33-19.48-7.13-28.74-10.93v96.91Z"/><path class="cls-18" d="M3603.13,2306.74c9.5,3.09,19.24,5.7,28.98,8.08v-96.91c-9.98-2.38-19.48-5.23-28.98-8.08v96.91Z"/><path class="cls-18" d="M3660.85,2321.46c9.5,1.9,19,3.8,28.74,5.23v-96.91c-9.74-1.43-19.48-3.33-28.74-5.23v96.91Z"/><path class="cls-18" d="M3718.34,2330.97c9.5,1.19,19,2.38,28.74,3.33v-97.15c-9.74-.71-19.24-1.9-28.74-3.09v96.91Z"/><path class="cls-18" d="M3775.82,2336.19c9.5,.47,19,.95,28.74,.95v-96.91c-9.5,0-19.24-.47-28.74-.95v96.91Z"/><path class="cls-18" d="M3833.3,2337.14c9.74,0,19.24-.48,28.74-.95v-96.91c-9.5,.71-19,.95-28.74,.95v96.91Z"/><path class="cls-18" d="M3890.79,2334.29c9.5-.71,19.24-1.9,28.74-3.09v-96.68c-9.5,1.19-19.24,2.14-28.74,3.09v96.68Z"/><path class="cls-18" d="M3948.27,2326.93c9.74-1.42,19.48-3.09,28.74-4.99v-96.91c-9.26,1.9-19,3.8-28.74,5.23v96.68Z"/><path class="cls-18" d="M4005.75,2315.29c9.74-2.38,19.48-4.99,28.74-7.84v-96.68c-9.26,2.85-19,5.46-28.74,7.84v96.68Z"/><path class="cls-18" d="M4063.24,2298.42c9.74-3.33,19.48-6.89,28.74-10.93v-96.68c-9.26,3.8-19,7.6-28.74,10.93v96.68Z"/><path class="cls-18" d="M4120.72,2274.91c9.98-4.75,19.48-9.74,28.74-14.96v-96.68c-9.26,5.23-18.77,10.21-28.74,14.96v96.68Z"/><path class="cls-18" d="M4178.2,2242.37c10.21-6.89,19.95-14.02,28.74-21.38v-96.68c-8.79,7.6-18.53,14.49-28.74,21.38v96.68Z"/><path class="cls-18" d="M4235.69,2097.71v96.44c11.16-11.64,20.9-24.23,28.74-37.06v-96.2c-7.84,12.83-17.58,24.94-28.74,36.82Z"/></g></g><g><polygon class="cls-16" points="3221.35 2908.82 3221.51 2935.63 3221.81 2990.58 3222.43 3100.13 3222.74 3155.51 3222.89 3182.36 3170.14 3182.27 3169.97 3154.72 3169.62 3098.23 3168.96 2992.52 3168.62 2936.43 3168.45 2908.82 3221.35 2908.82"/><path class="cls-16" d="M3252.7,2998.48c-8.93-3.91-19.19-6.53-30.88-7.9l-.31-54.95c39.67,2.07,74.39,10.14,104.14,24.32,4.8,2.27,9.32,4.62,13.56,7.07,26.38,15.23,41.8,33.94,46.35,55.97h-106.12c-3.38-8.35-9.96-15.31-19.67-20.92-2.2-1.27-4.56-2.47-7.07-3.6Z"/><path class="cls-9" d="M3135.58,3005.4c9.58-5.96,20.7-10.26,33.38-12.88l.65,105.71c-12.01-2.42-22.63-6.28-31.89-11.63-.57-.33-1.13-.66-1.69-1-16.99-10.51-25.53-23.82-25.77-40.02,.06-16.2,8.3-29.6,25.32-40.19Z"/><path class="cls-16" d="M3137.73,3086.6c9.26,5.35,19.88,9.21,31.89,11.63l.35,56.48c-41.37-3.37-77.15-13.42-107.18-30.06-.81-.46-1.62-.91-2.42-1.37-36.3-20.96-54.39-46.94-54.56-77.78-.18-31.52,18.42-57.61,55.94-78.54,29.91-16.96,65.54-27.07,106.87-30.52l.35,56.08c-12.69,2.62-23.8,6.92-33.38,12.88-17.02,10.59-25.26,23.99-25.32,40.19,.24,16.2,8.78,29.51,25.77,40.02,.56,.34,1.12,.67,1.69,1Z"/><path class="cls-9" d="M3543.8,3045.59c.63,111.38-154.72,201.65-347,201.65-96.14,0-183.3-22.57-246.5-59.06-63.2-36.49-102.45-86.9-102.76-142.59-.63-111.38,154.72-201.65,347-201.65,96.14,0,183.3,22.57,246.5,59.06,63.2,36.49,102.45,86.9,102.76,142.59Zm-217.19,86.16c34.52-16.55,54.21-37.65,59.05-63.66h-105.82c-4.17,10.33-12.9,18.39-26.62,24.25-8.88,3.79-19.16,6.41-30.79,7.79l-.62-109.55c11.7,1.37,21.96,3.99,30.88,7.9,2.52,1.13,4.88,2.33,7.07,3.6,9.71,5.61,16.3,12.56,19.67,20.92h106.12c-4.55-22.03-19.97-40.74-46.35-55.97-4.24-2.45-8.76-4.8-13.56-7.07-29.75-14.18-64.47-22.25-104.14-24.32l-.15-26.81h-52.91l.17,27.62c-41.33,3.45-76.96,13.56-106.87,30.52-37.52,20.93-56.12,47.02-55.94,78.54,.17,30.84,18.27,56.82,54.56,77.78,.8,.46,1.61,.92,2.42,1.37,30.03,16.64,65.81,26.68,107.18,30.06l.17,27.55,52.76,.09-.15-26.85c40.17-1.96,74.76-9.86,103.87-23.76h0Z"/><path class="cls-16" d="M3385.66,3068.09c-4.84,26.01-24.53,47.11-59.05,63.66-29.1,13.9-63.7,21.8-103.87,23.76l-.31-55.37c11.63-1.38,21.92-3.99,30.79-7.79,13.72-5.87,22.45-13.92,26.62-24.25h105.82Z"/><path class="cls-13" d="M3669.87,3045.58c.85,151.65-210.69,274.59-472.66,274.68-130.91,0-249.63-30.75-335.74-80.47-86.1-49.71-139.59-118.38-140.01-194.21-.7-151.74,210.84-274.68,472.66-274.68,130.98-.04,249.75,30.69,335.85,80.4,86.1,49.71,139.55,118.4,139.9,194.27Zm-473.07,201.65c192.28,0,347.63-90.28,347-201.65-.31-55.69-39.56-106.1-102.76-142.59-63.2-36.49-150.36-59.06-246.5-59.06-192.28,0-347.62,90.28-347,201.65,.31,55.69,39.56,106.1,102.76,142.59,63.2,36.49,150.36,59.06,246.5,59.06h0Z"/><path class="cls-9" d="M3669.87,3045.58l-.27,96.81c.85,151.65-210.69,274.59-472.66,274.68-130.91,0-249.63-30.75-335.74-80.47-86.1-49.71-139.59-118.38-140.01-194.21l.27-96.81c.43,75.83,53.91,144.5,140.01,194.21,86.1,49.71,204.83,80.47,335.74,80.47,261.97-.09,473.51-123.02,472.66-274.68Z"/><g><path class="cls-18" d="M2749.88,3235.71c8.08,12.83,17.58,25.18,28.74,37.06v-97.15c-11.16-11.88-20.9-24.23-28.74-37.06v97.15Z"/><path class="cls-18" d="M2807.36,3299.37c9.03,7.6,18.53,14.73,28.74,21.38v-96.91c-10.21-6.89-19.95-14.02-28.74-21.38v96.91Z"/><path class="cls-18" d="M2864.84,3338.56c9.26,5.46,18.76,10.45,28.74,15.2v-97.15c-9.98-4.75-19.48-9.74-28.74-14.96v96.91Z"/><path class="cls-18" d="M2922.33,3366.35c9.26,4.04,19,7.6,28.74,10.93v-96.91c-9.74-3.33-19.48-7.13-28.74-10.93v96.91Z"/><path class="cls-18" d="M2979.81,3386.54c9.5,3.09,19.24,5.7,28.98,8.08v-96.91c-9.98-2.37-19.48-5.22-28.98-8.08v96.91Z"/><path class="cls-18" d="M3037.53,3401.27c9.5,1.9,19,3.8,28.74,5.23v-96.91c-9.74-1.43-19.48-3.33-28.74-5.23v96.91Z"/><path class="cls-18" d="M3095.01,3410.77c9.5,1.19,19,2.37,28.74,3.33v-97.15c-9.74-.71-19.24-1.9-28.74-3.09v96.91Z"/><path class="cls-18" d="M3152.5,3416c9.5,.47,19,.95,28.74,.95v-96.91c-9.5,0-19.24-.47-28.74-.95v96.91Z"/><path class="cls-18" d="M3209.98,3416.95c9.74,0,19.24-.48,28.74-.95v-96.91c-9.5,.71-19,.95-28.74,.95v96.91Z"/><path class="cls-18" d="M3267.46,3414.1c9.5-.71,19.24-1.9,28.74-3.09v-96.68c-9.5,1.19-19.24,2.14-28.74,3.09v96.68Z"/><path class="cls-18" d="M3324.95,3406.73c9.74-1.42,19.48-3.09,28.74-4.99v-96.91c-9.26,1.9-19,3.8-28.74,5.23v96.68Z"/><path class="cls-18" d="M3382.43,3395.09c9.74-2.38,19.48-4.99,28.74-7.84v-96.68c-9.26,2.85-19,5.46-28.74,7.84v96.68Z"/><path class="cls-18" d="M3439.91,3378.23c9.74-3.33,19.48-6.89,28.74-10.93v-96.68c-9.26,3.8-19,7.6-28.74,10.93v96.68Z"/><path class="cls-18" d="M3497.4,3354.71c9.98-4.75,19.48-9.74,28.74-14.96v-96.68c-9.26,5.23-18.77,10.21-28.74,14.96v96.68Z"/><path class="cls-18" d="M3554.88,3322.17c10.21-6.89,19.95-14.02,28.74-21.38v-96.68c-8.79,7.6-18.53,14.49-28.74,21.38v96.68Z"/><path class="cls-18" d="M3612.37,3177.51v96.44c11.16-11.64,20.9-24.23,28.74-37.06v-96.2c-7.84,12.83-17.58,24.94-28.74,36.82Z"/></g></g><g><polygon class="cls-16" points="3221.35 2780.6 3221.51 2807.41 3221.81 2862.36 3222.43 2971.91 3222.74 3027.29 3222.89 3054.14 3170.14 3054.05 3169.97 3026.5 3169.62 2970.01 3168.96 2864.3 3168.62 2808.21 3168.45 2780.6 3221.35 2780.6"/><path class="cls-16" d="M3252.7,2870.26c-8.93-3.91-19.19-6.53-30.88-7.9l-.31-54.95c39.67,2.07,74.39,10.14,104.14,24.32,4.8,2.27,9.32,4.62,13.56,7.07,26.38,15.23,41.8,33.94,46.35,55.97h-106.12c-3.38-8.35-9.96-15.31-19.67-20.92-2.2-1.27-4.56-2.47-7.07-3.6Z"/><path class="cls-9" d="M3135.58,2877.18c9.58-5.96,20.7-10.26,33.38-12.88l.65,105.71c-12.01-2.42-22.63-6.28-31.89-11.63-.57-.33-1.13-.66-1.69-1-16.99-10.51-25.53-23.82-25.77-40.01,.06-16.2,8.3-29.6,25.32-40.19Z"/><path class="cls-16" d="M3137.73,2958.38c9.26,5.35,19.88,9.21,31.89,11.63l.35,56.48c-41.37-3.37-77.15-13.42-107.18-30.06-.81-.46-1.62-.91-2.42-1.37-36.3-20.96-54.39-46.94-54.56-77.78-.18-31.52,18.42-57.61,55.94-78.54,29.91-16.96,65.54-27.07,106.87-30.52l.35,56.08c-12.69,2.62-23.8,6.92-33.38,12.88-17.02,10.6-25.26,23.99-25.32,40.19,.24,16.2,8.78,29.51,25.77,40.01,.56,.34,1.12,.67,1.69,1Z"/><path class="cls-9" d="M3543.8,2917.37c.63,111.38-154.72,201.65-347,201.65-96.14,0-183.3-22.57-246.5-59.06-63.2-36.49-102.45-86.9-102.76-142.59-.63-111.38,154.72-201.65,347-201.65,96.14,0,183.3,22.57,246.5,59.06,63.2,36.49,102.45,86.9,102.76,142.59Zm-217.19,86.16c34.52-16.55,54.21-37.65,59.05-63.66h-105.82c-4.17,10.33-12.9,18.39-26.62,24.25-8.88,3.79-19.16,6.41-30.79,7.79l-.62-109.55c11.7,1.37,21.96,3.99,30.88,7.9,2.52,1.13,4.88,2.33,7.07,3.6,9.71,5.61,16.3,12.56,19.67,20.92h106.12c-4.55-22.03-19.97-40.74-46.35-55.97-4.24-2.45-8.76-4.8-13.56-7.07-29.75-14.18-64.47-22.25-104.14-24.32l-.15-26.81h-52.91l.17,27.62c-41.33,3.45-76.96,13.56-106.87,30.52-37.52,20.93-56.12,47.02-55.94,78.54,.17,30.84,18.27,56.82,54.56,77.78,.8,.46,1.61,.92,2.42,1.37,30.03,16.64,65.81,26.68,107.18,30.06l.17,27.55,52.76,.09-.15-26.85c40.17-1.96,74.76-9.86,103.87-23.76h0Z"/><path class="cls-16" d="M3385.66,2939.87c-4.84,26.01-24.53,47.11-59.05,63.66-29.1,13.9-63.7,21.8-103.87,23.76l-.31-55.37c11.63-1.38,21.92-3.99,30.79-7.79,13.72-5.87,22.45-13.92,26.62-24.25h105.82Z"/><path class="cls-13" d="M3669.87,2917.36c.85,151.65-210.69,274.59-472.66,274.68-130.91,0-249.63-30.75-335.74-80.47-86.1-49.71-139.59-118.38-140.01-194.21-.7-151.74,210.84-274.68,472.66-274.68,130.98-.04,249.75,30.69,335.85,80.4,86.1,49.71,139.55,118.4,139.9,194.27Zm-473.07,201.65c192.28,0,347.63-90.28,347-201.65-.31-55.69-39.56-106.1-102.76-142.59-63.2-36.49-150.36-59.06-246.5-59.06-192.28,0-347.62,90.28-347,201.65,.31,55.69,39.56,106.1,102.76,142.59,63.2,36.49,150.36,59.06,246.5,59.06h0Z"/><path class="cls-9" d="M3669.87,2917.36l-.27,96.81c.85,151.65-210.69,274.59-472.66,274.68-130.91,0-249.63-30.75-335.74-80.47-86.1-49.71-139.59-118.38-140.01-194.21l.27-96.81c.43,75.83,53.91,144.5,140.01,194.21,86.1,49.71,204.83,80.47,335.74,80.47,261.97-.09,473.51-123.02,472.66-274.68Z"/><g><path class="cls-18" d="M2749.88,3107.49c8.08,12.83,17.58,25.18,28.74,37.06v-97.15c-11.16-11.88-20.9-24.23-28.74-37.06v97.15Z"/><path class="cls-18" d="M2807.36,3171.15c9.03,7.6,18.53,14.73,28.74,21.38v-96.91c-10.21-6.89-19.95-14.02-28.74-21.38v96.91Z"/><path class="cls-18" d="M2864.84,3210.34c9.26,5.46,18.76,10.45,28.74,15.2v-97.15c-9.98-4.75-19.48-9.74-28.74-14.96v96.91Z"/><path class="cls-18" d="M2922.33,3238.13c9.26,4.04,19,7.6,28.74,10.93v-96.91c-9.74-3.33-19.48-7.13-28.74-10.93v96.91Z"/><path class="cls-18" d="M2979.81,3258.32c9.5,3.09,19.24,5.7,28.98,8.08v-96.91c-9.98-2.37-19.48-5.22-28.98-8.08v96.91Z"/><path class="cls-18" d="M3037.53,3273.05c9.5,1.9,19,3.8,28.74,5.23v-96.91c-9.74-1.42-19.48-3.33-28.74-5.22v96.91Z"/><path class="cls-18" d="M3095.01,3282.55c9.5,1.19,19,2.37,28.74,3.33v-97.15c-9.74-.71-19.24-1.9-28.74-3.09v96.91Z"/><path class="cls-18" d="M3152.5,3287.78c9.5,.47,19,.95,28.74,.95v-96.91c-9.5,0-19.24-.47-28.74-.95v96.91Z"/><path class="cls-18" d="M3209.98,3288.73c9.74,0,19.24-.48,28.74-.95v-96.91c-9.5,.71-19,.95-28.74,.95v96.91Z"/><path class="cls-18" d="M3267.46,3285.88c9.5-.71,19.24-1.9,28.74-3.09v-96.68c-9.5,1.19-19.24,2.14-28.74,3.09v96.68Z"/><path class="cls-18" d="M3324.95,3278.51c9.74-1.43,19.48-3.09,28.74-4.99v-96.91c-9.26,1.9-19,3.8-28.74,5.23v96.68Z"/><path class="cls-18" d="M3382.43,3266.87c9.74-2.38,19.48-4.99,28.74-7.84v-96.68c-9.26,2.85-19,5.46-28.74,7.84v96.68Z"/><path class="cls-18" d="M3439.91,3250.01c9.74-3.33,19.48-6.89,28.74-10.93v-96.68c-9.26,3.8-19,7.6-28.74,10.93v96.68Z"/><path class="cls-18" d="M3497.4,3226.49c9.98-4.75,19.48-9.74,28.74-14.96v-96.68c-9.26,5.23-18.77,10.21-28.74,14.96v96.68Z"/><path class="cls-18" d="M3554.88,3193.95c10.21-6.89,19.95-14.02,28.74-21.38v-96.68c-8.79,7.6-18.53,14.49-28.74,21.38v96.68Z"/><path class="cls-18" d="M3612.37,3049.29v96.44c11.16-11.64,20.9-24.23,28.74-37.06v-96.2c-7.84,12.83-17.58,24.94-28.74,36.82Z"/></g></g><g><polygon class="cls-16" points="3221.35 2652.38 3221.51 2679.19 3221.81 2734.14 3222.43 2843.69 3222.74 2899.07 3222.89 2925.92 3170.14 2925.83 3169.97 2898.28 3169.62 2841.79 3168.96 2736.08 3168.62 2679.99 3168.45 2652.38 3221.35 2652.38"/><path class="cls-16" d="M3252.7,2742.04c-8.93-3.91-19.19-6.53-30.88-7.9l-.31-54.95c39.67,2.07,74.39,10.14,104.14,24.32,4.8,2.27,9.32,4.62,13.56,7.07,26.38,15.23,41.8,33.94,46.35,55.97h-106.12c-3.38-8.35-9.96-15.31-19.67-20.92-2.2-1.27-4.56-2.47-7.07-3.6Z"/><path class="cls-9" d="M3135.58,2748.96c9.58-5.96,20.7-10.26,33.38-12.88l.65,105.71c-12.01-2.42-22.63-6.28-31.89-11.63-.57-.33-1.13-.66-1.69-1-16.99-10.51-25.53-23.82-25.77-40.02,.06-16.2,8.3-29.59,25.32-40.19Z"/><path class="cls-16" d="M3137.73,2830.16c9.26,5.35,19.88,9.21,31.89,11.63l.35,56.48c-41.37-3.37-77.15-13.42-107.18-30.06-.81-.45-1.62-.91-2.42-1.37-36.3-20.96-54.39-46.94-54.56-77.78-.18-31.52,18.42-57.61,55.94-78.54,29.91-16.96,65.54-27.07,106.87-30.52l.35,56.08c-12.69,2.62-23.8,6.92-33.38,12.88-17.02,10.6-25.26,23.99-25.32,40.19,.24,16.2,8.78,29.51,25.77,40.02,.56,.34,1.12,.67,1.69,1Z"/><path class="cls-9" d="M3543.8,2789.15c.63,111.38-154.72,201.65-347,201.65-96.14,0-183.3-22.57-246.5-59.06-63.2-36.49-102.45-86.9-102.76-142.59-.63-111.38,154.72-201.65,347-201.65,96.14,0,183.3,22.57,246.5,59.06,63.2,36.49,102.45,86.9,102.76,142.59Zm-217.19,86.16c34.52-16.55,54.21-37.65,59.05-63.66h-105.82c-4.17,10.33-12.9,18.39-26.62,24.25-8.88,3.79-19.16,6.41-30.79,7.79l-.62-109.55c11.7,1.37,21.96,3.99,30.88,7.9,2.52,1.13,4.88,2.33,7.07,3.6,9.71,5.61,16.3,12.56,19.67,20.92h106.12c-4.55-22.03-19.97-40.74-46.35-55.97-4.24-2.45-8.76-4.8-13.56-7.07-29.75-14.18-64.47-22.25-104.14-24.32l-.15-26.81h-52.91l.17,27.62c-41.33,3.45-76.96,13.56-106.87,30.52-37.52,20.93-56.12,47.02-55.94,78.54,.17,30.84,18.27,56.82,54.56,77.78,.8,.46,1.61,.92,2.42,1.37,30.03,16.64,65.81,26.69,107.18,30.06l.17,27.55,52.76,.09-.15-26.85c40.17-1.96,74.76-9.86,103.87-23.76h0Z"/><path class="cls-16" d="M3385.66,2811.65c-4.84,26.01-24.53,47.11-59.05,63.66-29.1,13.9-63.7,21.8-103.87,23.76l-.31-55.37c11.63-1.38,21.92-3.99,30.79-7.79,13.72-5.87,22.45-13.92,26.62-24.25h105.82Z"/><path class="cls-13" d="M3669.87,2789.15c.85,151.65-210.69,274.59-472.66,274.68-130.91,0-249.63-30.75-335.74-80.47-86.1-49.71-139.59-118.38-140.01-194.21-.7-151.74,210.84-274.68,472.66-274.68,130.98-.04,249.75,30.69,335.85,80.4,86.1,49.71,139.55,118.4,139.9,194.27Zm-473.07,201.65c192.28,0,347.63-90.28,347-201.65-.31-55.69-39.56-106.1-102.76-142.59-63.2-36.49-150.36-59.06-246.5-59.06-192.28,0-347.62,90.28-347,201.65,.31,55.69,39.56,106.1,102.76,142.59,63.2,36.49,150.36,59.06,246.5,59.06h0Z"/><path class="cls-9" d="M3669.87,2789.15l-.27,96.81c.85,151.65-210.69,274.59-472.66,274.68-130.91,0-249.63-30.75-335.74-80.47-86.1-49.71-139.59-118.38-140.01-194.21l.27-96.81c.43,75.83,53.91,144.5,140.01,194.21,86.1,49.71,204.83,80.47,335.74,80.47,261.97-.09,473.51-123.02,472.66-274.68Z"/><g><path class="cls-18" d="M2749.88,2979.27c8.08,12.83,17.58,25.18,28.74,37.06v-97.15c-11.16-11.88-20.9-24.23-28.74-37.06v97.15Z"/><path class="cls-18" d="M2807.36,3042.93c9.03,7.6,18.53,14.73,28.74,21.38v-96.91c-10.21-6.89-19.95-14.02-28.74-21.38v96.91Z"/><path class="cls-18" d="M2864.84,3082.12c9.26,5.46,18.76,10.45,28.74,15.2v-97.15c-9.98-4.75-19.48-9.74-28.74-14.96v96.91Z"/><path class="cls-18" d="M2922.33,3109.91c9.26,4.04,19,7.6,28.74,10.93v-96.91c-9.74-3.33-19.48-7.13-28.74-10.93v96.91Z"/><path class="cls-18" d="M2979.81,3130.1c9.5,3.09,19.24,5.7,28.98,8.08v-96.91c-9.98-2.37-19.48-5.23-28.98-8.08v96.91Z"/><path class="cls-18" d="M3037.53,3144.83c9.5,1.9,19,3.8,28.74,5.23v-96.91c-9.74-1.43-19.48-3.33-28.74-5.22v96.91Z"/><path class="cls-18" d="M3095.01,3154.33c9.5,1.19,19,2.37,28.74,3.33v-97.15c-9.74-.71-19.24-1.9-28.74-3.09v96.91Z"/><path class="cls-18" d="M3152.5,3159.56c9.5,.47,19,.95,28.74,.95v-96.91c-9.5,0-19.24-.47-28.74-.95v96.91Z"/><path class="cls-18" d="M3209.98,3160.51c9.74,0,19.24-.48,28.74-.95v-96.91c-9.5,.71-19,.95-28.74,.95v96.91Z"/><path class="cls-18" d="M3267.46,3157.66c9.5-.71,19.24-1.9,28.74-3.09v-96.68c-9.5,1.19-19.24,2.14-28.74,3.09v96.68Z"/><path class="cls-18" d="M3324.95,3150.29c9.74-1.43,19.48-3.09,28.74-4.99v-96.91c-9.26,1.9-19,3.8-28.74,5.23v96.68Z"/><path class="cls-18" d="M3382.43,3138.65c9.74-2.38,19.48-4.99,28.74-7.84v-96.68c-9.26,2.85-19,5.46-28.74,7.84v96.68Z"/><path class="cls-18" d="M3439.91,3121.79c9.74-3.33,19.48-6.89,28.74-10.93v-96.68c-9.26,3.8-19,7.6-28.74,10.93v96.68Z"/><path class="cls-18" d="M3497.4,3098.27c9.98-4.75,19.48-9.74,28.74-14.96v-96.68c-9.26,5.23-18.77,10.21-28.74,14.96v96.68Z"/><path class="cls-18" d="M3554.88,3065.73c10.21-6.89,19.95-14.02,28.74-21.38v-96.68c-8.79,7.6-18.53,14.49-28.74,21.38v96.68Z"/><path class="cls-18" d="M3612.37,2921.07v96.44c11.16-11.64,20.9-24.23,28.74-37.06v-96.2c-7.84,12.83-17.58,24.94-28.74,36.82Z"/></g></g><g class="cls-4"><path class="cls-9" d="M4907.95,2968.01c-136.49-78.8-356.89-78.8-492.34-.08-135.61,78.8-134.89,206.47,1.61,285.27,136.34,78.72,356.74,78.72,492.34-.09,135.45-78.72,134.74-206.38-1.6-285.1Z"/><path class="cls-16" d="M4749.34,3129.01c9.78-9.02,13.35-18.47,10.88-28.28-1.5-6.4-5.55-12.5-12.1-18.27l66.79-38.81c25.74,17.69,40.59,37.58,44.34,59.79,4.38,25.74-7.13,48.77-34.68,69l-75.22-43.43Z"/><polygon class="cls-16" points="4847.62 3024.64 4814.91 3043.65 4748.12 3082.47 4614.83 3159.92 4547.47 3199.07 4514.78 3218.06 4477.32 3196.44 4510.98 3176.88 4579.66 3136.97 4708.36 3062.18 4776.48 3022.58 4810.16 3003.02 4847.62 3024.64"/><path class="cls-16" d="M4769.81,3204.28c-30.17,13.78-63.9,20.9-101.19,21.14-5.94,0-12.11-.24-18.29-.47-12.35-.71-24.23-2.14-35.63-4.28-23.99-4.28-46.32-11.4-67.22-21.61l67.46-39.19c9.74,3.8,20.19,6.18,31.12,7.13,16.86,1.43,33.02-.48,48.46-6.18l42.76,24.7,32.54,18.76Z"/><path class="cls-9" d="M5136.79,3111.89l-.27,96.81c-.2,69.84-46.1,139.57-137.79,192.85-184.72,107.35-484.94,107.35-670.72,.09-93.51-53.99-140.24-124.87-140.03-195.66l.27-96.81c-.2,70.79,46.53,141.68,140.03,195.66,185.78,107.26,485.99,107.26,670.72-.09,91.69-53.29,137.59-123.02,137.79-192.85Z"/><path class="cls-13" d="M4996.81,2916.33c185.78,107.26,186.76,281.16,2.19,388.42-184.72,107.35-484.94,107.35-670.72,.09-185.78-107.26-186.91-281.24-2.19-388.59,184.57-107.26,484.94-107.18,670.72,.08Zm-579.64,336.85c136.34,78.72,356.74,78.72,492.34-.09,135.45-78.72,134.74-206.38-1.6-285.1-136.49-78.8-356.89-78.8-492.34-.09-135.61,78.8-134.89,206.47,1.61,285.27h0Z"/><path class="cls-16" d="M4527.8,3032.7c38.27-22.24,83.56-33.1,135.56-32.4,41.97,.28,79.65,7.76,113.12,22.28l-68.13,39.59c-12.21-3.36-25.35-4.87-39.38-4.52-25.09,.53-47.43,6.48-67.02,17.86-19.74,11.47-29.94,24.43-30.47,38.79-.47,8.08,2.28,15.64,8.17,22.66l-68.68,39.91c-25.24-19.31-38.44-41.01-39.42-65.11-.93-30.38,17.82-56.74,56.24-79.07Z"/><g><path class="cls-18" d="M4216.77,3300.85c8.08,12.83,17.58,25.18,28.74,37.06v-97.15c-11.16-11.88-20.9-24.23-28.74-37.06v97.15Z"/><path class="cls-18" d="M4274.25,3364.51c9.03,7.6,18.53,14.73,28.74,21.38v-96.91c-10.21-6.89-19.95-14.02-28.74-21.38v96.91Z"/><path class="cls-18" d="M4331.73,3403.7c9.26,5.46,18.76,10.45,28.74,15.2v-97.15c-9.98-4.75-19.48-9.74-28.74-14.96v96.91Z"/><path class="cls-18" d="M4389.22,3431.49c9.26,4.04,19,7.6,28.74,10.93v-96.91c-9.74-3.33-19.48-7.13-28.74-10.93v96.91Z"/><path class="cls-18" d="M4446.7,3451.68c9.5,3.09,19.24,5.7,28.98,8.08v-96.91c-9.98-2.37-19.48-5.23-28.98-8.08v96.91Z"/><path class="cls-18" d="M4504.42,3466.41c9.5,1.9,19,3.8,28.74,5.23v-96.91c-9.74-1.43-19.48-3.33-28.74-5.23v96.91Z"/><path class="cls-18" d="M4561.9,3475.91c9.5,1.19,19,2.37,28.74,3.33v-97.15c-9.74-.71-19.24-1.9-28.74-3.09v96.91Z"/><path class="cls-18" d="M4619.39,3481.14c9.5,.47,19,.95,28.74,.95v-96.91c-9.5,0-19.24-.47-28.74-.95v96.91Z"/><path class="cls-18" d="M4676.87,3482.09c9.74,0,19.24-.48,28.74-.95v-96.91c-9.5,.71-19,.95-28.74,.95v96.91Z"/><path class="cls-18" d="M4734.35,3479.24c9.5-.71,19.24-1.9,28.74-3.09v-96.68c-9.5,1.19-19.24,2.14-28.74,3.09v96.68Z"/><path class="cls-18" d="M4791.84,3471.87c9.74-1.43,19.48-3.09,28.74-4.99v-96.91c-9.26,1.9-19,3.8-28.74,5.23v96.68Z"/><path class="cls-18" d="M4849.32,3460.23c9.74-2.38,19.48-4.99,28.74-7.84v-96.68c-9.26,2.85-19,5.46-28.74,7.84v96.68Z"/><path class="cls-18" d="M4906.8,3443.37c9.74-3.33,19.48-6.89,28.74-10.93v-96.68c-9.26,3.8-19,7.6-28.74,10.93v96.68Z"/><path class="cls-18" d="M4964.29,3419.85c9.98-4.75,19.48-9.74,28.74-14.96v-96.68c-9.26,5.23-18.77,10.21-28.74,14.96v96.68Z"/><path class="cls-18" d="M5021.77,3387.31c10.21-6.89,19.95-14.02,28.74-21.38v-96.68c-8.79,7.6-18.53,14.49-28.74,21.38v96.68Z"/><path class="cls-18" d="M5079.25,3242.65v96.44c11.16-11.64,20.9-24.23,28.74-37.06v-96.2c-7.84,12.83-17.58,24.94-28.74,36.82Z"/></g></g><g class="cls-4"><path class="cls-9" d="M4907.95,2840.68c-136.49-78.8-356.89-78.8-492.34-.09-135.61,78.8-134.89,206.47,1.61,285.27,136.34,78.72,356.74,78.72,492.34-.09,135.45-78.72,134.74-206.38-1.6-285.1Z"/><path class="cls-16" d="M4749.34,3001.69c9.78-9.02,13.35-18.47,10.88-28.28-1.5-6.4-5.55-12.5-12.1-18.27l66.79-38.81c25.74,17.69,40.59,37.58,44.34,59.79,4.38,25.74-7.13,48.77-34.68,69l-75.22-43.43Z"/><polygon class="cls-16" points="4847.62 2897.32 4814.91 2916.33 4748.12 2955.14 4614.83 3032.6 4547.47 3071.75 4514.78 3090.74 4477.32 3069.12 4510.98 3049.56 4579.66 3009.65 4708.36 2934.85 4776.48 2895.26 4810.16 2875.69 4847.62 2897.32"/><path class="cls-16" d="M4769.81,3076.96c-30.17,13.78-63.9,20.9-101.19,21.14-5.94,0-12.11-.24-18.29-.47-12.35-.71-24.23-2.14-35.63-4.28-23.99-4.28-46.32-11.4-67.22-21.61l67.46-39.19c9.74,3.8,20.19,6.18,31.12,7.13,16.86,1.43,33.02-.48,48.46-6.18l42.76,24.7,32.54,18.76Z"/><path class="cls-9" d="M5136.79,2984.57l-.27,96.81c-.2,69.84-46.1,139.57-137.79,192.85-184.72,107.35-484.94,107.35-670.72,.09-93.51-53.99-140.24-124.87-140.03-195.66l.27-96.81c-.2,70.79,46.53,141.68,140.03,195.66,185.78,107.26,485.99,107.26,670.72-.09,91.69-53.29,137.59-123.02,137.79-192.85Z"/><path class="cls-13" d="M4996.81,2789.01c185.78,107.26,186.76,281.16,2.19,388.42-184.72,107.35-484.94,107.35-670.72,.09-185.78-107.26-186.91-281.24-2.19-388.59,184.57-107.26,484.94-107.18,670.72,.08Zm-579.64,336.85c136.34,78.72,356.74,78.72,492.34-.09,135.45-78.72,134.74-206.38-1.6-285.1-136.49-78.8-356.89-78.8-492.34-.09-135.61,78.8-134.89,206.47,1.61,285.27h0Z"/><path class="cls-16" d="M4527.8,2905.38c38.27-22.24,83.56-33.1,135.56-32.4,41.97,.28,79.65,7.76,113.12,22.28l-68.13,39.59c-12.21-3.36-25.35-4.87-39.38-4.52-25.09,.53-47.43,6.48-67.02,17.86-19.74,11.47-29.94,24.43-30.47,38.79-.47,8.08,2.28,15.64,8.17,22.66l-68.68,39.91c-25.24-19.31-38.44-41.01-39.42-65.11-.93-30.38,17.82-56.74,56.24-79.07Z"/><g><path class="cls-18" d="M4216.77,3173.52c8.08,12.83,17.58,25.18,28.74,37.06v-97.15c-11.16-11.88-20.9-24.23-28.74-37.06v97.15Z"/><path class="cls-18" d="M4274.25,3237.18c9.03,7.6,18.53,14.73,28.74,21.38v-96.91c-10.21-6.89-19.95-14.02-28.74-21.38v96.91Z"/><path class="cls-18" d="M4331.73,3276.38c9.26,5.46,18.76,10.45,28.74,15.2v-97.15c-9.98-4.75-19.48-9.74-28.74-14.96v96.91Z"/><path class="cls-18" d="M4389.22,3304.17c9.26,4.04,19,7.6,28.74,10.93v-96.91c-9.74-3.33-19.48-7.13-28.74-10.93v96.91Z"/><path class="cls-18" d="M4446.7,3324.36c9.5,3.09,19.24,5.7,28.98,8.08v-96.91c-9.98-2.37-19.48-5.23-28.98-8.08v96.91Z"/><path class="cls-18" d="M4504.42,3339.09c9.5,1.9,19,3.8,28.74,5.23v-96.91c-9.74-1.42-19.48-3.33-28.74-5.22v96.91Z"/><path class="cls-18" d="M4561.9,3348.59c9.5,1.19,19,2.37,28.74,3.33v-97.15c-9.74-.71-19.24-1.9-28.74-3.09v96.91Z"/><path class="cls-18" d="M4619.39,3353.81c9.5,.47,19,.95,28.74,.95v-96.91c-9.5,0-19.24-.47-28.74-.95v96.91Z"/><path class="cls-18" d="M4676.87,3354.76c9.74,0,19.24-.48,28.74-.95v-96.91c-9.5,.71-19,.95-28.74,.95v96.91Z"/><path class="cls-18" d="M4734.35,3351.91c9.5-.71,19.24-1.9,28.74-3.09v-96.68c-9.5,1.19-19.24,2.14-28.74,3.09v96.68Z"/><path class="cls-18" d="M4791.84,3344.55c9.74-1.43,19.48-3.09,28.74-4.99v-96.91c-9.26,1.9-19,3.8-28.74,5.23v96.68Z"/><path class="cls-18" d="M4849.32,3332.91c9.74-2.38,19.48-4.99,28.74-7.84v-96.68c-9.26,2.85-19,5.46-28.74,7.84v96.68Z"/><path class="cls-18" d="M4906.8,3316.04c9.74-3.33,19.48-6.89,28.74-10.93v-96.68c-9.26,3.8-19,7.6-28.74,10.93v96.68Z"/><path class="cls-18" d="M4964.29,3292.53c9.98-4.75,19.48-9.74,28.74-14.96v-96.68c-9.26,5.23-18.77,10.21-28.74,14.96v96.68Z"/><path class="cls-18" d="M5021.77,3259.99c10.21-6.89,19.95-14.02,28.74-21.38v-96.68c-8.79,7.6-18.53,14.49-28.74,21.38v96.68Z"/><path class="cls-18" d="M5079.25,3115.33v96.44c11.16-11.64,20.9-24.23,28.74-37.06v-96.2c-7.84,12.83-17.58,24.94-28.74,36.82Z"/></g></g></g><text class="cls-17" transform="translate(799.36 1899.51)"><tspan x="0" y="0">+ </tspan><tspan class="cls-1" x="648.76" y="0">$</tspan><tspan x="1105.01" y="0">13M</tspan></text></svg>